<svg width="117" height="134" viewBox="0 0 117 134" fill="none" xmlns="http://www.w3.org/2000/svg">
<g opacity="0.29" clip-path="url(#clip0)">
<path d="M4.79999 104.44C3.88927 105.107 3.10381 105.929 2.47999 106.87C1.68999 108.25 -0.630013 109.7 0.159987 107.87C0.595324 106.937 1.28955 106.149 2.15999 105.6C4.64999 103.54 13.16 97.89 24.3 104.92C25.4492 104.208 26.8033 103.9 28.1475 104.045C29.4916 104.19 30.7489 104.779 31.72 105.72C29.32 102.35 19.62 87.49 13.84 64.65C7.83999 40.88 9.23999 25.01 14.12 11.12C19 -2.77 28.67 -1.18 30.54 2.8C30.54 2.8 35.03 2.44 36.66 6.33C36.66 6.33 42.8 7.12 43.09 12.44C44.776 12.505 46.38 13.1846 47.5994 14.3506C48.8189 15.5167 49.5696 17.0886 49.71 18.77C49.71 18.77 53.58 19.16 54.01 22.77C54.01 22.77 60.01 22.77 61.11 28.01C61.11 28.01 67.67 27.84 70.52 35.56C70.52 35.56 80.11 41.03 76.76 50.39C75.2 54.75 72.86 59.7 70.33 65.11L70.56 64.93L70.74 64.79C71.11 64.51 71.48 64.23 71.87 63.97C72.43 63.6 72.98 63.28 73.53 62.97L74.06 62.69L74.55 62.43C75.05 62.18 75.55 61.94 76.04 61.74L76.64 61.51C76.91 61.4 77.17 61.29 77.43 61.2L78.23 60.93C78.66 60.79 79.07 60.66 79.47 60.55C79.72 60.47 79.98 60.39 80.22 60.33L80.99 60.12L81.24 60.05C82.0747 59.8552 82.8963 59.608 83.7 59.31C84.5511 58.9153 85.4822 58.7236 86.42 58.75H86.56C86.7014 58.7636 86.8418 58.787 86.98 58.82C87.2052 58.859 87.4262 58.9192 87.64 59C87.7659 59.0395 87.8894 59.0863 88.01 59.14L88.36 59.29L88.84 59.55L89.14 59.72C89.42 59.89 89.7 60.08 90 60.29C90.4614 60.6282 90.9899 60.8635 91.55 60.98C92.1785 61.1064 92.819 61.1634 93.46 61.15C94.1302 61.1403 94.7998 61.1939 95.46 61.31C96.1665 61.4612 96.8276 61.7763 97.39 62.23C97.5 62.32 97.61 62.41 97.71 62.51C97.8531 62.6332 97.9868 62.7669 98.11 62.91L98.65 63.51L100.4 65.51C100.92 66.09 101.4 66.6 101.92 67.08C102.491 67.6183 103.099 68.1162 103.74 68.57L103.85 68.64C104.07 68.8 104.3 68.96 104.55 69.12C106.82 70.6 108.26 70.8 109.28 72.6C109.38 72.78 109.47 72.97 109.57 73.18L109.63 73.33C109.72 73.55 109.81 73.78 109.9 74.05C110.18 74.94 110.45 75.73 110.71 76.47C110.85 76.85 110.99 77.21 111.13 77.56C111.27 77.91 111.37 78.14 111.5 78.43C111.63 78.71 111.76 78.98 111.9 79.25C112.04 79.53 112.19 79.79 112.35 80.06C112.51 80.34 112.68 80.61 112.86 80.88C113.04 81.15 113.16 81.32 113.33 81.55C115.05 83.88 115.01 85.12 114.96 88.61C114.96 88.69 114.96 88.77 114.96 88.85C114.973 89.4427 115.047 90.0324 115.18 90.61C115.27 91.05 115.39 91.47 115.52 91.9L115.86 92.96C116.185 93.8884 116.449 94.8371 116.65 95.8C116.861 96.8276 116.881 97.8851 116.71 98.92C116.704 99.0133 116.704 99.1068 116.71 99.2L116.47 100.38V100.48C116.47 100.68 116.38 100.88 116.33 101.1V101.16C116.27 101.4 116.2 101.65 116.13 101.92C115.849 102.97 115.515 104.004 115.13 105.02C114.96 105.49 114.76 106.02 114.55 106.46C114.34 106.95 114.11 107.46 113.86 107.95C112.702 110.288 111.195 112.436 109.39 114.32C109.1 114.62 108.8 114.92 108.48 115.21C106.554 116.987 104.325 118.406 101.9 119.4C101.22 119.69 100.53 119.95 99.84 120.2L99.14 120.44L97.72 120.91L96.88 121.16L95.55 121.54L94.66 121.78L93.33 122.1L92.42 122.3L91.05 122.59L90.18 122.76L88.68 123.01L87.91 123.14L85.84 123.43H85.63C84.87 123.53 84.11 123.61 83.35 123.69L82.57 123.76L81 124L80.07 124.07L78.7 124.15H77.7L76.38 124.2H75.38H74.06H73.11H70.94H69.33C67.66 124.2 66.03 124.11 64.44 124.03H64.26C63.82 124.03 63.39 123.97 62.96 123.93C62.27 123.93 61.6 123.8 60.96 123.72C61.41 124.21 61.87 124.72 62.32 125.27C65.21 128.69 70.17 138.62 61.22 129.34C50.61 118.34 43.8 118.26 38.38 117.09C32.96 115.92 31.67 112.09 31.67 112.09C26.72 114.21 22.53 110.46 22.67 107.38C20.12 106.13 13.46 103.74 7.97999 109.52C7.55258 110.086 7.28338 110.756 7.19999 111.46C6.94999 113.03 5.31999 115.22 5.37999 113.2C5.44315 112.191 5.78977 111.221 6.37999 110.4L6.45999 110.31C6.63515 110.059 6.82903 109.822 7.03999 109.6H6.99999C12.71 103.03 19.83 105.37 22.72 106.73C22.8765 106.11 23.2268 105.557 23.72 105.15C15.17 100 8.41999 102.26 4.79999 104.44Z" fill="url(#paint0_linear)"/>
</g>
<defs>
<linearGradient id="paint0_linear" x1="120.256" y1="85.8818" x2="2.15828" y2="55.4443" gradientUnits="userSpaceOnUse">
<stop offset="0.01" stop-color="#FFBEC5"/>
<stop offset="0.16" stop-color="#FEB5BF"/>
<stop offset="0.4" stop-color="#FB9EAE"/>
<stop offset="0.7" stop-color="#F67992"/>
<stop offset="1" stop-color="#F14C72"/>
</linearGradient>
<clipPath id="clip0">
<rect width="116.9" height="133.32" fill="white"/>
</clipPath>
</defs>
</svg>
