<svg width="622" height="736" viewBox="0 0 622 736" fill="none" xmlns="http://www.w3.org/2000/svg">
<rect x="158.941" y="112.467" width="462.88" height="509.354" fill="#FFC9F2"/>
<g filter="url(#filter0_d)">
<rect x="122" y="149.646" width="462.88" height="509.354" fill="#F9FFF0"/>
</g>
<g clip-path="url(#clip0)">
<path d="M229.646 385.706L233.095 392.677C233.183 392.856 233.314 393.011 233.476 393.127C233.638 393.244 233.826 393.319 234.024 393.346L241.72 394.461C241.942 394.495 242.15 394.589 242.321 394.734C242.492 394.879 242.619 395.069 242.689 395.282C242.758 395.495 242.767 395.723 242.714 395.941C242.661 396.159 242.549 396.358 242.389 396.515L236.812 401.953C236.674 402.091 236.571 402.26 236.511 402.446C236.451 402.632 236.437 402.829 236.469 403.022L237.788 410.69C237.827 410.913 237.802 411.142 237.717 411.351C237.632 411.56 237.49 411.742 237.307 411.874C237.124 412.007 236.907 412.085 236.682 412.101C236.457 412.117 236.231 412.069 236.032 411.963L229.144 408.338C228.971 408.247 228.778 408.2 228.582 408.2C228.386 408.2 228.193 408.247 228.02 408.338L221.132 411.963C220.933 412.067 220.709 412.112 220.485 412.095C220.261 412.078 220.046 411.999 219.865 411.867C219.683 411.735 219.542 411.555 219.457 411.347C219.373 411.139 219.347 410.911 219.385 410.69L220.695 403.022C220.731 402.829 220.719 402.63 220.659 402.444C220.599 402.257 220.493 402.088 220.351 401.953L214.775 396.515C214.612 396.359 214.496 396.16 214.441 395.941C214.386 395.723 214.394 395.493 214.464 395.278C214.534 395.064 214.663 394.873 214.836 394.729C215.01 394.584 215.22 394.491 215.444 394.461L223.14 393.346C223.337 393.318 223.525 393.243 223.687 393.126C223.849 393.01 223.98 392.855 224.069 392.677L227.508 385.706C227.611 385.511 227.765 385.348 227.953 385.234C228.141 385.121 228.357 385.061 228.577 385.061C228.797 385.061 229.013 385.121 229.201 385.234C229.39 385.348 229.544 385.511 229.646 385.706Z" fill="#DBF4FF"/>
<path d="M198.165 345.375L200.553 350.209C200.613 350.329 200.701 350.433 200.809 350.513C200.918 350.592 201.043 350.644 201.176 350.664L206.502 351.436C206.656 351.459 206.8 351.524 206.919 351.624C207.037 351.724 207.126 351.856 207.174 352.003C207.222 352.151 207.228 352.309 207.192 352.46C207.155 352.611 207.077 352.749 206.967 352.858L203.11 356.576C203.013 356.67 202.942 356.786 202.902 356.914C202.861 357.042 202.853 357.178 202.877 357.31L203.807 362.617C203.843 362.774 203.834 362.938 203.78 363.089C203.726 363.241 203.63 363.374 203.502 363.472C203.375 363.57 203.222 363.629 203.061 363.643C202.901 363.656 202.74 363.623 202.598 363.547L197.83 361.037C197.712 360.973 197.579 360.939 197.444 360.939C197.31 360.939 197.177 360.973 197.059 361.037L192.29 363.547C192.148 363.623 191.988 363.656 191.827 363.643C191.667 363.629 191.514 363.57 191.386 363.472C191.259 363.374 191.162 363.241 191.108 363.089C191.054 362.938 191.045 362.774 191.082 362.617L192.012 357.31C192.034 357.177 192.024 357.041 191.982 356.913C191.94 356.785 191.867 356.669 191.77 356.576L187.913 352.858C187.802 352.749 187.724 352.611 187.688 352.46C187.651 352.309 187.657 352.151 187.706 352.003C187.754 351.856 187.842 351.724 187.961 351.624C188.08 351.524 188.224 351.459 188.377 351.436L193.703 350.664C193.837 350.645 193.965 350.593 194.075 350.514C194.185 350.434 194.274 350.33 194.335 350.209L196.715 345.375C196.788 345.248 196.894 345.142 197.021 345.069C197.148 344.995 197.293 344.956 197.44 344.956C197.587 344.956 197.731 344.995 197.858 345.069C197.986 345.142 198.091 345.248 198.165 345.375Z" fill="#DBF4FF"/>
<path d="M370.49 220.677L372.144 224.023C372.186 224.107 372.248 224.18 372.324 224.235C372.4 224.29 372.488 224.326 372.581 224.339L376.299 224.878C376.406 224.894 376.506 224.939 376.588 225.009C376.67 225.078 376.731 225.17 376.764 225.272C376.797 225.375 376.801 225.484 376.774 225.589C376.748 225.693 376.693 225.788 376.615 225.863L373.948 228.466C373.88 228.531 373.83 228.612 373.801 228.701C373.772 228.79 373.765 228.885 373.78 228.977L374.412 232.695C374.43 232.801 374.418 232.909 374.377 233.008C374.336 233.107 374.268 233.193 374.181 233.256C374.094 233.319 373.992 233.356 373.885 233.364C373.778 233.371 373.671 233.349 373.576 233.299L370.267 231.57C370.184 231.525 370.092 231.501 369.997 231.501C369.903 231.501 369.81 231.525 369.728 231.57L366.4 233.262C366.305 233.312 366.198 233.334 366.092 233.326C365.985 233.319 365.882 233.282 365.795 233.219C365.708 233.156 365.64 233.07 365.6 232.971C365.559 232.872 365.546 232.763 365.564 232.658L366.196 228.94C366.209 228.847 366.201 228.753 366.172 228.665C366.143 228.576 366.094 228.495 366.029 228.429L363.352 225.826C363.274 225.751 363.219 225.655 363.193 225.55C363.167 225.445 363.171 225.334 363.205 225.231C363.239 225.129 363.302 225.037 363.385 224.968C363.468 224.899 363.57 224.855 363.677 224.841L367.395 224.302C367.487 224.287 367.575 224.251 367.651 224.196C367.727 224.141 367.789 224.069 367.832 223.986L369.486 220.64C369.54 220.552 369.615 220.481 369.705 220.433C369.795 220.384 369.897 220.361 369.999 220.365C370.101 220.368 370.2 220.399 370.287 220.454C370.373 220.509 370.443 220.586 370.49 220.677Z" fill="#E0E0E0"/>
<path d="M514.606 393.095L516.251 396.441C516.293 396.524 516.355 396.596 516.431 396.651C516.507 396.706 516.595 396.742 516.688 396.757L520.405 397.296C520.513 397.31 520.614 397.355 520.697 397.424C520.781 397.493 520.843 397.584 520.877 397.687C520.911 397.79 520.915 397.9 520.889 398.005C520.864 398.11 520.809 398.206 520.731 398.281L518.054 400.884C517.988 400.95 517.939 401.031 517.912 401.12C517.884 401.209 517.879 401.304 517.896 401.395L518.519 405.113C518.536 405.219 518.524 405.327 518.483 405.427C518.442 405.526 518.374 405.611 518.287 405.674C518.201 405.737 518.098 405.774 517.991 405.782C517.884 405.789 517.777 405.767 517.682 405.717L514.373 403.951C514.291 403.906 514.198 403.882 514.104 403.882C514.009 403.882 513.917 403.906 513.834 403.951L510.534 405.68C510.439 405.733 510.331 405.757 510.223 405.751C510.114 405.744 510.01 405.707 509.921 405.644C509.833 405.581 509.764 405.494 509.723 405.394C509.682 405.293 509.67 405.183 509.689 405.076L510.321 401.358C510.338 401.266 510.332 401.17 510.303 401.081C510.273 400.991 510.222 400.911 510.153 400.847L507.486 398.244C507.408 398.169 507.353 398.074 507.327 397.97C507.3 397.865 507.304 397.756 507.337 397.653C507.37 397.551 507.431 397.459 507.513 397.39C507.595 397.32 507.695 397.275 507.802 397.259L511.52 396.72C511.613 396.707 511.701 396.671 511.777 396.616C511.853 396.561 511.915 396.488 511.957 396.404L513.611 393.058C513.667 392.975 513.742 392.908 513.831 392.863C513.92 392.818 514.019 392.796 514.119 392.8C514.218 392.803 514.315 392.832 514.4 392.884C514.486 392.936 514.556 393.008 514.606 393.095Z" fill="#DBF4FF"/>
<path d="M476.441 377.703L479.164 383.215C479.23 383.356 479.33 383.478 479.455 383.571C479.58 383.663 479.726 383.723 479.88 383.744L485.968 384.627C486.15 384.643 486.323 384.712 486.466 384.826C486.608 384.939 486.715 385.092 486.771 385.265C486.828 385.439 486.832 385.625 486.783 385.801C486.735 385.977 486.636 386.134 486.498 386.254L482.092 390.548C481.98 390.655 481.897 390.789 481.85 390.937C481.803 391.085 481.794 391.242 481.823 391.394L482.864 397.454C482.907 397.633 482.896 397.82 482.833 397.992C482.77 398.164 482.657 398.314 482.509 398.422C482.361 398.531 482.184 398.593 482.001 398.601C481.817 398.609 481.636 398.562 481.479 398.467L476.032 395.604C475.891 395.523 475.731 395.48 475.567 395.48C475.404 395.48 475.244 395.523 475.103 395.604L469.656 398.467C469.499 398.562 469.317 398.609 469.134 398.601C468.951 398.593 468.774 398.531 468.626 398.422C468.478 398.314 468.365 398.164 468.302 397.992C468.239 397.82 468.228 397.633 468.271 397.454L469.312 391.394C469.34 391.241 469.329 391.083 469.28 390.935C469.232 390.788 469.147 390.655 469.033 390.548L464.637 386.254C464.5 386.135 464.4 385.978 464.351 385.803C464.303 385.628 464.306 385.442 464.361 385.269C464.417 385.096 464.522 384.943 464.663 384.829C464.805 384.715 464.976 384.645 465.157 384.627L471.245 383.744C471.401 383.724 471.549 383.665 471.676 383.573C471.803 383.48 471.904 383.357 471.97 383.215L474.694 377.703C474.759 377.523 474.878 377.368 475.034 377.259C475.19 377.149 475.377 377.09 475.567 377.09C475.758 377.09 475.945 377.149 476.101 377.259C476.257 377.368 476.376 377.523 476.441 377.703Z" fill="#DBF4FF"/>
<path d="M198.871 445.099L200.842 449.087C200.89 449.186 200.961 449.272 201.051 449.337C201.14 449.402 201.244 449.443 201.353 449.458L205.749 450.1C205.876 450.119 205.995 450.172 206.092 450.255C206.19 450.337 206.263 450.446 206.303 450.567C206.342 450.689 206.347 450.819 206.317 450.944C206.286 451.068 206.222 451.181 206.13 451.271L202.998 454.366C202.919 454.446 202.86 454.543 202.826 454.649C202.793 454.756 202.784 454.869 202.803 454.98L203.546 459.357C203.568 459.483 203.553 459.613 203.505 459.731C203.457 459.85 203.377 459.952 203.273 460.027C203.17 460.103 203.048 460.148 202.92 460.157C202.793 460.167 202.665 460.141 202.552 460.082L198.62 458.019C198.522 457.964 198.412 457.936 198.3 457.936C198.187 457.936 198.077 457.964 197.979 458.019L194.056 460.082C193.942 460.14 193.815 460.165 193.687 460.155C193.56 460.145 193.438 460.1 193.334 460.025C193.23 459.95 193.149 459.849 193.1 459.731C193.05 459.613 193.034 459.484 193.053 459.357L193.805 454.98C193.824 454.869 193.816 454.756 193.782 454.649C193.748 454.543 193.689 454.446 193.61 454.366L190.431 451.271C190.34 451.181 190.276 451.068 190.245 450.944C190.215 450.819 190.22 450.689 190.259 450.567C190.299 450.446 190.372 450.337 190.469 450.255C190.567 450.172 190.686 450.119 190.813 450.1L195.2 449.458C195.31 449.443 195.415 449.4 195.505 449.336C195.596 449.271 195.669 449.186 195.72 449.087L197.681 445.099C197.742 444.995 197.829 444.909 197.933 444.848C198.037 444.788 198.156 444.757 198.276 444.757C198.397 444.757 198.515 444.788 198.62 444.848C198.724 444.909 198.811 444.995 198.871 445.099Z" fill="#DBF4FF"/>
<path d="M292.665 224.419L281.994 224.526L282.525 277.618L293.195 277.511L292.665 224.419Z" fill="#E0E0E0"/>
<path d="M216.961 225.344L189.328 225.493L189.487 254.799L217.12 254.65L216.961 225.344Z" fill="#EBEBEB"/>
<path d="M244.695 224.63L217.061 224.906L217.354 254.213L244.988 253.936L244.695 224.63Z" fill="#F5F5F5"/>
<path d="M189.363 233.634C207.729 233.795 226.105 233.711 244.49 233.383C244.559 233.37 244.621 233.334 244.666 233.281C244.71 233.227 244.735 233.16 244.735 233.09C244.735 233.02 244.71 232.953 244.666 232.899C244.621 232.845 244.559 232.809 244.49 232.797C226.123 232.698 207.748 232.81 189.363 233.132C189.296 233.132 189.232 233.158 189.185 233.205C189.138 233.252 189.112 233.316 189.112 233.383C189.112 233.449 189.138 233.513 189.185 233.56C189.232 233.607 189.296 233.634 189.363 233.634Z" fill="#E0E0E0"/>
<path d="M222.304 254.166L172.103 254.437L172.233 278.325L222.433 278.053L222.304 254.166Z" fill="#EBEBEB"/>
<path d="M272.261 253.895L222.061 254.167L222.19 278.054L272.39 277.783L272.261 253.895Z" fill="#F5F5F5"/>
<path d="M172.13 261.081C205.48 261.453 238.941 261.081 272.291 260.579C272.359 260.567 272.422 260.531 272.466 260.477C272.511 260.424 272.536 260.356 272.536 260.286C272.536 260.217 272.511 260.149 272.466 260.096C272.422 260.042 272.359 260.006 272.291 259.994C238.941 259.817 205.48 259.836 172.139 260.579C172.073 260.579 172.009 260.606 171.962 260.653C171.915 260.7 171.888 260.764 171.888 260.83C171.888 260.897 171.915 260.961 171.962 261.008C172.009 261.055 172.073 261.081 172.139 261.081H172.13Z" fill="#E0E0E0"/>
<path d="M347.839 278.323H153.364V286.883H347.839V278.323Z" fill="#E0E0E0"/>
<path d="M193.099 282.441H185.208V311.635H193.099V282.441Z" fill="#E0E0E0"/>
<path d="M310.948 282.441H303.056V311.635H310.948V282.441Z" fill="#E0E0E0"/>
<path d="M302.988 204.572L292.318 204.679L293.048 277.699L303.718 277.592L302.988 204.572Z" fill="#EBEBEB"/>
<path d="M319.511 218.998L302.93 219.088L303.25 278.258L319.832 278.168L319.511 218.998Z" fill="#F5F5F5"/>
<path d="M319.387 230.399C319.387 230.566 315.669 230.687 311.106 230.687C306.542 230.687 302.815 230.566 302.815 230.399C302.815 230.232 306.533 230.12 311.106 230.12C315.679 230.12 319.387 230.241 319.387 230.399Z" fill="#E0E0E0"/>
<path d="M319.387 227.917C319.387 228.075 315.669 228.205 311.106 228.205C306.542 228.205 302.815 228.075 302.815 227.917C302.815 227.759 306.533 227.629 311.106 227.629C315.679 227.629 319.387 227.759 319.387 227.917Z" fill="#E0E0E0"/>
<path d="M319.387 269.27C319.387 269.428 315.669 269.558 311.106 269.558C306.542 269.558 302.815 269.428 302.815 269.27C302.815 269.112 306.533 268.982 311.106 268.982C315.679 268.982 319.387 269.112 319.387 269.27Z" fill="#E0E0E0"/>
<path d="M319.387 266.788C319.387 266.946 315.669 267.076 311.106 267.076C306.542 267.076 302.815 266.946 302.815 266.788C302.815 266.63 306.533 266.5 311.106 266.5C315.679 266.5 319.387 266.63 319.387 266.788Z" fill="#E0E0E0"/>
<path d="M311.366 261.36C311.208 261.36 311.078 255.393 311.078 248.031C311.078 240.67 311.208 234.693 311.366 234.693C311.524 234.693 311.654 240.67 311.654 248.031C311.654 255.393 311.524 261.36 311.366 261.36Z" fill="#E0E0E0"/>
<path d="M337.614 233.541H319.573V278.202H337.614V233.541Z" fill="#EBEBEB"/>
<path d="M300.407 217.879C300.407 218.486 300.227 219.079 299.89 219.583C299.553 220.087 299.074 220.481 298.514 220.713C297.953 220.945 297.337 221.006 296.742 220.887C296.147 220.769 295.6 220.477 295.171 220.048C294.742 219.619 294.45 219.072 294.332 218.477C294.213 217.882 294.274 217.266 294.506 216.705C294.738 216.145 295.131 215.666 295.636 215.329C296.14 214.992 296.733 214.812 297.34 214.812C298.153 214.812 298.934 215.135 299.509 215.71C300.084 216.285 300.407 217.065 300.407 217.879Z" fill="#E0E0E0"/>
<path d="M298.297 226.319H296.401V269.753H298.297V226.319Z" fill="#E0E0E0"/>
<path d="M551.785 241.729H420.598V359.095H551.785V241.729Z" fill="#FAFAFA"/>
<path d="M551.785 359.113C551.785 359.113 551.785 358.36 551.785 356.929C551.785 355.498 551.785 353.388 551.785 350.646C551.785 345.134 551.738 337.075 551.701 326.814C551.701 306.31 551.617 277.012 551.552 241.739L551.85 242.036L420.673 242.092L421.026 241.739C421.026 284.439 421.026 324.62 420.979 359.113L420.673 358.797L515.554 358.955L542.323 359.039H549.405H551.264C551.682 359.039 551.896 359.039 551.896 359.039H551.301H549.507H542.481L515.795 359.122L420.71 359.28H420.403V359.113C420.403 324.62 420.403 284.439 420.403 241.739V241.395H420.765H551.943H552.24V241.692C552.175 277.012 552.129 306.412 552.091 326.963C552.091 337.187 552.026 345.227 552.008 350.72C552.008 353.434 552.008 355.525 552.008 356.947C552.008 358.37 551.785 359.113 551.785 359.113Z" fill="#E0E0E0"/>
<path d="M470.901 262.578C470.901 262.773 463.995 262.931 455.481 262.931C446.967 262.931 440.052 262.773 440.052 262.578C440.052 262.382 446.958 262.224 455.481 262.224C464.005 262.224 470.901 262.382 470.901 262.578Z" fill="#E0E0E0"/>
<path d="M526.456 271.389C526.456 271.584 507.486 271.742 484.091 271.742C460.696 271.742 441.725 271.584 441.725 271.389C441.725 271.194 460.686 271.036 484.091 271.036C507.495 271.036 526.456 271.194 526.456 271.389Z" fill="#E0E0E0"/>
<path d="M445.815 286.316H440.284V291.847H445.815V286.316Z" fill="#E0E0E0"/>
<path d="M459.423 286.316H453.892V291.847H459.423V286.316Z" fill="#E0E0E0"/>
<path d="M473.281 286.065H467.75V291.596H473.281V286.065Z" fill="#E0E0E0"/>
<path d="M486.628 286.316H481.098V291.847H486.628V286.316Z" fill="#E0E0E0"/>
<path d="M500.236 286.316H494.705V291.847H500.236V286.316Z" fill="#E0E0E0"/>
<path d="M513.843 286.316H508.313V291.847H513.843V286.316Z" fill="#E0E0E0"/>
<path d="M527.442 286.316H521.911V291.847H527.442V286.316Z" fill="#EBEBEB"/>
<path d="M445.815 298.065H440.284V303.595H445.815V298.065Z" fill="#EBEBEB"/>
<path d="M459.423 298.065H453.892V303.595H459.423V298.065Z" fill="#E0E0E0"/>
<path d="M473.03 298.065H467.5V303.595H473.03V298.065Z" fill="#EBEBEB"/>
<path d="M486.628 298.065H481.098V303.595H486.628V298.065Z" fill="#E0E0E0"/>
<path d="M500.236 298.065H494.705V303.595H500.236V298.065Z" fill="#E0E0E0"/>
<path d="M514.094 297.814H508.564V303.344H514.094V297.814Z" fill="#E0E0E0"/>
<path d="M527.442 298.065H521.911V303.595H527.442V298.065Z" fill="#E0E0E0"/>
<path d="M445.815 309.823H440.284V315.353H445.815V309.823Z" fill="#E0E0E0"/>
<path d="M459.673 309.572H454.143V315.102H459.673V309.572Z" fill="#E0E0E0"/>
<path d="M473.03 309.823H467.5V315.353H473.03V309.823Z" fill="#E0E0E0"/>
<path d="M486.628 309.823H481.098V315.353H486.628V309.823Z" fill="#EBEBEB"/>
<path d="M500.236 309.823H494.705V315.353H500.236V309.823Z" fill="#E0E0E0"/>
<path d="M513.843 309.823H508.313V315.353H513.843V309.823Z" fill="#E0E0E0"/>
<path d="M527.442 309.823H521.911V315.353H527.442V309.823Z" fill="#E0E0E0"/>
<path d="M445.815 321.572H440.284V327.102H445.815V321.572Z" fill="#E0E0E0"/>
<path d="M459.423 321.572H453.892V327.102H459.423V321.572Z" fill="#E0E0E0"/>
<path d="M473.03 321.572H467.5V327.102H473.03V321.572Z" fill="#E0E0E0"/>
<path d="M486.879 321.321H481.349V326.851H486.879V321.321Z" fill="#E0E0E0"/>
<path d="M500.236 321.572H494.705V327.102H500.236V321.572Z" fill="#E0E0E0"/>
<path d="M513.843 321.572H508.313V327.102H513.843V321.572Z" fill="#EBEBEB"/>
<path d="M527.442 321.572H521.911V327.102H527.442V321.572Z" fill="#E0E0E0"/>
<path d="M445.815 333.32H440.284V338.851H445.815V333.32Z" fill="#E0E0E0"/>
<path d="M459.423 333.32H453.892V338.851H459.423V333.32Z" fill="#EBEBEB"/>
<path d="M473.03 333.32H467.5V338.851H473.03V333.32Z" fill="#E0E0E0"/>
<path d="M486.628 333.32H481.098V338.851H486.628V333.32Z" fill="#E0E0E0"/>
<path d="M500.236 333.32H494.705V338.851H500.236V333.32Z" fill="#E0E0E0"/>
<path d="M514.094 333.069H508.564V338.6H514.094V333.069Z" fill="#E0E0E0"/>
<path d="M527.442 333.32H521.911V338.851H527.442V333.32Z" fill="#E0E0E0"/>
<path d="M170.661 541.235V575.412H164.964V579.13H170.661V602.004H277.356V581.184H269.456V576.611H277.356V569.817H280.86V566.759H276.696V541.235H170.661Z" fill="#9A9999"/>
<path d="M249.007 541.337V601.614H277.328V580.803H269.428V576.648L277.328 576.797V569.993L280.907 570.002L280.842 566.48L276.668 566.378V541.244L249.007 541.337Z" fill="#E0E0E0"/>
<path d="M251.015 578.628C251.015 578.842 231.719 579.009 207.915 579.009C184.111 579.009 164.806 578.842 164.806 578.628C164.806 578.414 184.102 578.256 207.915 578.256C231.728 578.256 251.015 578.47 251.015 578.628Z" fill="#E0E0E0"/>
<path d="M251.015 575.161C251.015 575.366 231.719 575.542 207.915 575.542C184.111 575.542 164.806 575.366 164.806 575.161C164.806 574.957 184.102 574.752 207.915 574.752C231.728 574.752 251.015 574.947 251.015 575.161Z" fill="#E0E0E0"/>
<path d="M256.555 565.82C256.555 566.024 237.259 566.201 213.455 566.201C189.651 566.201 170.345 566.024 170.345 565.82C170.345 565.615 189.641 565.457 213.455 565.457C237.268 565.457 256.555 565.606 256.555 565.82Z" fill="#E0E0E0"/>
<path d="M257.084 591.278C257.084 591.483 237.788 591.659 213.984 591.659C190.181 591.659 170.875 591.483 170.875 591.278C170.875 591.074 190.171 590.897 213.984 590.897C237.798 590.897 257.084 591.064 257.084 591.278Z" fill="#E0E0E0"/>
<path d="M184.501 484.295V516.688H179.101V520.201H184.501V541.876H285.591V522.153H278.1V517.859H285.591V511.408H288.919V508.48H284.969V484.314L184.501 484.295Z" fill="#9A9999"/>
<path d="M258.748 484.388V541.523H285.591V521.79H278.109V517.859L285.591 517.989V511.548H288.984L288.919 508.22L284.969 508.127V484.295L258.748 484.388Z" fill="#E0E0E0"/>
<path d="M260.626 519.736C260.626 519.931 242.343 520.089 219.784 520.089C197.226 520.089 178.887 519.931 178.887 519.736C178.887 519.541 197.179 519.374 219.784 519.374C242.389 519.374 260.626 519.532 260.626 519.736Z" fill="#E0E0E0"/>
<path d="M260.626 516.446C260.626 516.641 242.343 516.799 219.784 516.799C197.226 516.799 178.887 516.641 178.887 516.446C178.887 516.251 197.179 516.083 219.784 516.083C242.389 516.083 260.626 516.251 260.626 516.446Z" fill="#E0E0E0"/>
<path d="M265.905 507.588C265.905 507.792 247.613 507.951 225.055 507.951C202.496 507.951 184.204 507.792 184.204 507.588C184.204 507.383 202.487 507.235 225.101 507.235C247.715 507.235 265.905 507.393 265.905 507.588Z" fill="#E0E0E0"/>
<path d="M266.407 531.717C266.407 531.912 248.115 532.08 225.556 532.08C202.998 532.08 184.706 531.912 184.706 531.717C184.706 531.522 202.998 531.364 225.603 531.364C248.208 531.364 266.407 531.522 266.407 531.717Z" fill="#E0E0E0"/>
<path d="M492.902 498.405C487.372 495.551 480.866 495.179 474.731 496.193C471.431 496.741 467.992 497.726 465.743 500.208C463.494 502.69 463.075 507.04 465.659 509.168C467.193 510.432 469.377 510.627 471.32 510.609C476.125 510.553 481.451 509.679 485.262 512.598C487.456 514.243 488.915 516.985 491.527 517.794C494.139 518.602 496.983 517.078 498.34 514.764C499.587 512.356 499.863 509.561 499.111 506.956C498.803 505.149 498.082 503.438 497.006 501.955C495.929 500.472 494.525 499.257 492.902 498.405Z" fill="#5E9D78"/>
<path d="M505.571 473.95C502.188 478.783 495.616 477.185 492.558 474.238C489.5 471.292 488.227 467.016 487.056 462.945C484.379 453.65 481.674 443.872 483.673 434.392C484.155 431.52 485.416 428.836 487.316 426.63C488.282 425.546 489.516 424.734 490.894 424.276C492.273 423.817 493.747 423.729 495.17 424.019C498.479 424.892 500.543 428.146 502.03 431.231C506.427 440.339 508.739 450.313 508.796 460.426C508.796 465.129 508.257 470.056 505.608 473.941" fill="#73BA8F"/>
<path d="M514.857 480.875C511.185 476.516 510.488 470.158 512.115 464.702C513.741 459.246 517.44 454.608 521.697 450.816C526.703 446.361 532.528 442.923 538.846 440.693C541.291 439.708 543.919 439.261 546.552 439.383C547.874 439.455 549.159 439.851 550.293 440.535C551.427 441.218 552.377 442.17 553.058 443.305C554.861 446.744 553.132 450.918 551.255 454.32C547.96 460.329 544.193 466.066 539.99 471.478C536.616 475.828 532.749 480.122 527.609 482.083C522.469 484.044 517.115 483.821 514.392 480.224" fill="#8BD6A9"/>
<path d="M505.794 546.784C505.624 546.064 505.525 545.33 505.497 544.591C505.339 543.001 505.144 540.993 504.911 538.605C504.611 535.656 504.161 532.724 503.563 529.821C502.776 526.287 501.707 522.821 500.366 519.457C499.058 516.096 497.277 512.938 495.077 510.079C493.291 507.744 491.004 505.838 488.385 504.502C486.613 503.62 484.711 503.027 482.752 502.745C482.016 502.71 481.284 502.604 480.568 502.429C481.306 502.347 482.051 502.347 482.79 502.429C484.824 502.583 486.814 503.102 488.664 503.963C491.419 505.25 493.837 507.159 495.728 509.54C498.018 512.443 499.866 515.669 501.212 519.114C502.568 522.526 503.629 526.05 504.381 529.645C504.947 532.584 505.335 535.554 505.543 538.54C505.738 541.086 505.813 543.141 505.841 544.563C505.912 545.302 505.896 546.048 505.794 546.784Z" fill="#5B755F"/>
<path d="M505.385 542.22C505.331 541.883 505.312 541.54 505.329 541.198C505.329 540.436 505.329 539.469 505.329 538.289C505.329 535.761 505.329 532.108 505.199 527.59C504.976 518.565 504.195 508.843 502.69 495.142C501.268 482.26 499.362 467.258 497.345 457.517C496.918 455.305 496.481 453.306 496.072 451.559C495.663 449.812 495.347 448.297 495.021 447.079C494.696 445.861 494.529 444.997 494.343 444.291C494.25 443.963 494.191 443.626 494.166 443.287C494.318 443.582 494.437 443.894 494.52 444.216L495.365 447.005C495.737 448.222 496.128 449.719 496.564 451.466C497.001 453.214 497.494 455.184 497.977 457.406C500.457 468.935 502.318 480.589 503.554 492.317C505.06 506.045 505.738 518.547 505.794 527.637C505.85 532.163 505.794 535.826 505.636 538.354C505.571 539.534 505.506 540.501 505.46 541.263C505.47 541.584 505.445 541.905 505.385 542.22Z" fill="#5B755F"/>
<path d="M505.329 518.054C505.246 517.043 505.246 516.026 505.329 515.015C505.441 513.053 505.71 510.228 506.259 506.77C506.936 502.739 507.836 498.749 508.954 494.817C510.264 489.959 511.942 485.208 513.973 480.605C518.138 470.734 523.798 462.657 528.715 457.656C529.805 456.51 530.966 455.432 532.191 454.431C532.721 453.985 533.186 453.502 533.669 453.176L535.017 452.247C535.825 451.635 536.679 451.088 537.573 450.611C537.722 450.806 533.948 453.028 529.208 458.047C523.154 464.8 518.294 472.536 514.838 480.921C512.82 485.499 511.112 490.206 509.726 495.012C508.597 498.925 507.666 502.893 506.937 506.9C506.305 510.33 505.943 513.118 505.729 515.061C505.664 516.067 505.531 517.067 505.329 518.054Z" fill="#5B755F"/>
<path d="M528.631 560.605L526.215 593.704H483.7L481.284 560.605H528.631Z" fill="#934949"/>
<path d="M532.74 547.556H476.209V560.605H532.74V547.556Z" fill="#B96565"/>
<path d="M532.74 592.44V596.056H530.081H477.138V592.44H532.74Z" fill="#EBEBEB"/>
<path d="M527.479 602.423L530.081 596.056H479.165L482.204 602.423H527.479Z" fill="#E0E0E0"/>
<path d="M482.064 571.415C482.115 571.526 482.181 571.629 482.26 571.722C482.436 571.945 482.641 572.224 482.901 572.568L485.373 575.737L485.485 575.877L485.596 575.728L491.675 567.316H491.331L497.317 575.793L497.512 576.063L497.717 575.812L504.827 567.363H504.418L504.809 567.855L511.157 575.821L511.371 576.081L511.566 575.812L517.561 567.326H517.208L524.597 575.737L524.728 575.886L524.83 575.719L527.135 571.834L527.73 570.802C527.804 570.684 527.866 570.56 527.916 570.43C527.916 570.43 527.813 570.532 527.665 570.755L527.005 571.75L524.597 575.579H524.83L517.571 567.065L517.385 566.842L517.217 567.075L511.166 575.524H511.585L505.246 567.539L504.855 567.047L504.651 566.796L504.446 567.047L497.364 575.514H497.754L491.703 567.075L491.527 566.824L491.359 567.075L485.401 575.579H485.559L482.985 572.484L482.297 571.685L482.064 571.415Z" fill="#381717"/>
<path d="M480.689 560.382C480.689 560.531 491.341 560.652 504.474 560.652C517.608 560.652 528.278 560.531 528.278 560.382C528.278 560.234 517.626 560.122 504.474 560.122C491.322 560.122 480.689 560.234 480.689 560.382Z" fill="#381717"/>
<path d="M478.532 596.409C478.532 596.558 490.114 596.669 504.4 596.669C518.686 596.669 530.258 596.558 530.258 596.409C530.258 596.26 518.686 596.139 504.4 596.139C490.114 596.139 478.532 596.26 478.532 596.409Z" fill="#F5F5F5"/>
<path d="M542.062 602.265C542.062 602.395 459.636 602.506 357.97 602.506C256.304 602.506 173.868 602.395 173.868 602.265C173.868 602.135 256.276 602.023 357.97 602.023C459.664 602.023 542.062 602.125 542.062 602.265Z" fill="#263238"/>
<path d="M374.226 256.768C374.617 249.779 378.874 245.484 384.934 241.897C387.969 240.134 391.385 239.129 394.891 238.968C398.397 238.806 401.891 239.492 405.076 240.967C409.296 242.984 412.995 246.414 417.633 247.018C425.283 248.003 432.505 240.921 440.015 242.687C442.276 243.199 444.286 244.485 445.699 246.323C447.111 248.161 447.837 250.435 447.75 252.751C447.663 255.067 446.768 257.28 445.222 259.007C443.675 260.734 441.573 261.865 439.281 262.206C444.291 262.931 447.116 269.261 445.266 273.964C443.417 278.667 438.165 281.4 433.109 281.511C428.053 281.623 423.201 279.559 418.823 277.022C414.445 274.484 410.365 271.445 405.81 269.251C401.256 267.058 396.004 265.794 391.115 267.086C384.497 268.852 379.813 275.098 378.102 281.725C376.392 288.352 377.126 295.342 378.149 302.108C379.171 308.875 380.482 315.707 379.841 322.557C379.864 322.956 379.792 323.354 379.63 323.72C379.469 324.085 379.222 324.407 378.911 324.657C377.889 325.224 376.727 324.258 375.983 323.375C367.508 313.317 361.091 301.692 357.096 289.161C354.791 281.911 353.518 274.847 356.288 267.783C359.057 260.719 368.371 253.943 374.273 256.824" fill="#263238"/>
<path d="M367.785 290.518L378.939 359.522C381.03 372.405 389.395 384.86 409.612 380.631C426.881 375.639 425.599 363.212 423.349 347.894C423.349 347.894 442.339 342.959 440.638 323.644C439.82 314.303 436.557 295.212 433.406 277.979C431.771 269.053 426.835 261.069 419.581 255.617C412.327 250.164 403.286 247.642 394.257 248.552L392.398 248.738C372.479 251.935 364.039 270.664 367.785 290.518Z" fill="#FFBF9D"/>
<path d="M423.387 347.894C423.387 347.894 411.303 349.837 397.519 342.996C397.519 342.996 405.094 357.347 424.167 353.676L423.387 347.894Z" fill="#FF9A6C"/>
<path d="M426.9 297.303C426.975 298.019 426.77 298.736 426.328 299.304C425.886 299.872 425.242 300.248 424.53 300.352C424.181 300.415 423.824 300.409 423.478 300.332C423.132 300.255 422.805 300.109 422.517 299.904C422.228 299.699 421.984 299.438 421.798 299.136C421.612 298.835 421.489 298.499 421.435 298.149C421.363 297.433 421.57 296.717 422.013 296.151C422.457 295.584 423.102 295.211 423.814 295.109C424.161 295.046 424.518 295.052 424.862 295.128C425.207 295.205 425.533 295.35 425.821 295.554C426.108 295.759 426.352 296.019 426.537 296.319C426.723 296.619 426.846 296.954 426.9 297.303Z" fill="#263238"/>
<path d="M430.255 287.869C429.949 288.259 427.709 286.939 424.744 287.227C421.779 287.515 419.752 289.235 419.399 288.91C419.222 288.761 419.501 288.082 420.384 287.292C421.579 286.274 423.059 285.65 424.623 285.508C426.159 285.335 427.71 285.661 429.047 286.437C430.032 287.069 430.404 287.692 430.255 287.869Z" fill="#263238"/>
<path d="M399.118 299.078C399.192 299.795 398.986 300.514 398.543 301.082C398.099 301.651 397.452 302.025 396.738 302.127C396.391 302.191 396.035 302.184 395.69 302.108C395.346 302.031 395.02 301.887 394.732 301.682C394.444 301.478 394.2 301.217 394.015 300.917C393.83 300.617 393.706 300.282 393.653 299.933C393.578 299.217 393.783 298.5 394.224 297.932C394.666 297.364 395.311 296.989 396.023 296.885C396.371 296.819 396.728 296.825 397.074 296.901C397.419 296.976 397.746 297.121 398.035 297.326C398.324 297.53 398.569 297.791 398.755 298.092C398.941 298.393 399.064 298.728 399.118 299.078Z" fill="#263238"/>
<path d="M401.172 291.345C400.865 291.745 398.616 290.415 395.651 290.713C392.686 291.01 390.669 292.721 390.306 292.386C390.139 292.247 390.418 291.559 391.301 290.778C392.491 289.758 393.969 289.134 395.53 288.993C397.069 288.826 398.621 289.152 399.964 289.923C400.977 290.555 401.321 291.168 401.172 291.345Z" fill="#263238"/>
<path d="M414.138 312.258C414.138 312.091 415.923 311.58 418.869 310.901C419.613 310.743 420.319 310.529 420.394 309.972C420.377 309.183 420.121 308.418 419.659 307.778C418.73 306.012 417.8 304.172 416.871 302.201C412.939 294.301 410.011 287.776 410.365 287.627C410.718 287.478 414.129 293.743 418.07 301.634L420.793 307.211C421.363 308.075 421.606 309.112 421.481 310.139C421.403 310.419 421.261 310.676 421.066 310.891C420.87 311.105 420.627 311.271 420.356 311.375C419.947 311.532 419.519 311.635 419.083 311.682C416.025 312.221 414.166 312.425 414.138 312.258Z" fill="#263238"/>
<path d="M400.763 279.652C400.549 280.489 397.556 280.405 394.117 281.176C390.678 281.948 387.964 283.175 387.434 282.496C387.193 282.171 387.602 281.362 388.661 280.47C390.078 279.359 391.729 278.586 393.49 278.211C395.251 277.835 397.074 277.867 398.82 278.304C400.15 278.685 400.856 279.262 400.763 279.652Z" fill="#263238"/>
<path d="M428.303 279.392C427.848 280.117 425.738 279.624 423.275 279.838C420.812 280.052 418.786 280.767 418.237 280.089C417.996 279.773 418.237 279.067 419.092 278.332C420.239 277.45 421.622 276.927 423.065 276.827C424.509 276.728 425.95 277.058 427.207 277.775C428.145 278.379 428.499 279.039 428.303 279.392Z" fill="#263238"/>
<path d="M370.797 304.646C370.453 304.544 357.143 302.062 358.89 315.205C360.637 328.347 373.474 323.886 373.446 323.514C373.418 323.142 370.797 304.646 370.797 304.646Z" fill="#FFBF9D"/>
<path d="M368.77 319.062C368.705 319.062 368.566 319.257 368.203 319.48C367.688 319.785 367.075 319.878 366.493 319.74C365.034 319.415 363.575 317.37 363.194 315.009C363.009 313.887 363.079 312.737 363.398 311.645C363.469 311.219 363.641 310.815 363.9 310.469C364.159 310.123 364.496 309.844 364.885 309.656C365.14 309.552 365.423 309.54 365.685 309.621C365.948 309.703 366.174 309.872 366.326 310.102C366.549 310.446 366.502 310.725 366.577 310.734C366.651 310.743 366.828 310.483 366.651 309.953C366.533 309.635 366.31 309.366 366.019 309.191C365.62 308.968 365.151 308.908 364.709 309.024C364.184 309.204 363.714 309.516 363.343 309.929C362.972 310.342 362.713 310.843 362.589 311.384C362.184 312.599 362.078 313.894 362.283 315.158C362.72 317.798 364.402 320.094 366.382 320.391C366.748 320.445 367.122 320.416 367.476 320.307C367.83 320.198 368.154 320.01 368.427 319.759C368.789 319.387 368.817 319.081 368.77 319.062Z" fill="#FF9A6C"/>
<path d="M431.873 259.994C429.772 256.369 426.407 253.645 422.838 251.47C415.118 246.675 406.083 244.434 397.017 245.066C387.919 245.771 379.45 249.984 373.399 256.815C368.774 262.415 365.897 269.251 365.127 276.473C364.377 283.663 365.063 290.929 367.144 297.851C368.018 300.891 369.179 304.032 371.587 306.086C373.093 307.378 375.528 308.076 376.968 306.719C377.721 305.818 378.152 304.693 378.195 303.521C379.71 293.092 381.114 281.892 376.401 272.467C378.479 268.833 381.286 265.669 384.646 263.172C386.328 261.939 388.239 261.052 390.267 260.564C392.295 260.076 394.4 259.996 396.46 260.328C402.529 261.546 406.684 266.9 411.815 270.413C415.482 272.91 419.689 274.501 424.09 275.055C428.492 275.609 432.962 275.111 437.134 273.601L431.873 259.994Z" fill="#263238"/>
<path d="M416.778 320.261C416.627 321.511 416.295 322.732 415.793 323.886C415.54 324.463 415.167 324.979 414.699 325.401C414.231 325.822 413.679 326.139 413.079 326.33C412.416 326.476 411.727 326.451 411.077 326.257C410.427 326.064 409.836 325.709 409.361 325.224C408.431 324.248 407.836 323.001 407.66 321.665C407.465 320.465 407.706 318.941 408.859 318.551C409.347 318.43 409.858 318.43 410.346 318.551L417.057 319.768" fill="#FF9A6C"/>
<path d="M415.347 325.866C415.272 325.68 414.027 326.516 411.963 326.154C410.794 325.954 409.739 325.332 408.998 324.406C408.568 323.839 408.262 323.188 408.102 322.494C407.942 321.8 407.931 321.08 408.069 320.382C408.141 320.022 408.257 319.673 408.413 319.341C408.608 319.034 408.561 319.053 408.84 319.043C409.119 319.034 409.547 319.164 409.909 319.22L411.015 319.424C412.447 319.685 413.739 319.898 414.835 320.066C417.02 320.4 418.377 320.531 418.414 320.373C418.451 320.215 417.131 319.815 414.993 319.285C413.915 319.015 412.642 318.718 411.21 318.356L410.123 318.114C409.718 318.019 409.308 317.945 408.896 317.891C408.571 317.859 408.245 317.935 407.967 318.105C407.721 318.283 407.523 318.52 407.39 318.792C407.188 319.209 407.038 319.649 406.944 320.103C406.773 320.961 406.794 321.846 407.006 322.695C407.218 323.543 407.616 324.334 408.171 325.011C409.099 326.089 410.415 326.757 411.833 326.87C412.759 326.966 413.694 326.809 414.538 326.414C415.133 326.191 415.384 325.922 415.347 325.866Z" fill="#263238"/>
<path d="M444.411 245.41C444.542 245.683 444.63 245.975 444.672 246.275C444.831 247.13 444.863 248.004 444.764 248.868C444.547 250.462 444.015 251.996 443.2 253.383C442.384 254.769 441.302 255.98 440.015 256.945C436.78 259.51 431.65 260.542 426.389 259.733C421.128 258.925 415.718 256.434 410.132 254.157C404.546 251.879 398.83 250.308 393.699 251.247C389.153 252.116 385.028 254.478 381.978 257.958C379.877 260.271 378.183 262.924 376.968 265.803C376.132 267.848 375.834 269.056 375.751 269.028C375.768 268.728 375.825 268.431 375.918 268.145C376.117 267.307 376.366 266.482 376.662 265.673C377.779 262.692 379.429 259.939 381.532 257.549C384.614 253.891 388.849 251.39 393.541 250.457C398.904 249.435 404.834 251.033 410.43 253.348C416.025 255.662 421.304 258.209 426.482 258.925C431.659 259.64 436.501 258.804 439.615 256.434C442.15 254.609 443.873 251.868 444.421 248.793C444.567 247.67 444.564 246.533 444.411 245.41Z" fill="#455A64"/>
<path d="M358.081 285.461C358.009 284.228 358.182 282.992 358.593 281.827C359.854 277.348 362.447 273.357 366.028 270.385C367.058 269.476 368.297 268.837 369.635 268.526C370.558 268.33 371.52 268.438 372.377 268.833C372.972 269.14 373.185 269.446 373.157 269.484C372.103 268.972 370.904 268.844 369.765 269.121C367.701 269.651 365.378 271.91 363.259 274.466C361.486 276.748 360.104 279.307 359.169 282.041C358.444 284.104 358.221 285.489 358.081 285.461Z" fill="#455A64"/>
<path d="M361.567 296.838C361.591 295.594 361.843 294.366 362.311 293.213C364.276 287.483 368.292 282.682 373.585 279.736C374.637 279.077 375.799 278.611 377.015 278.36C377.071 278.5 375.788 279.067 373.892 280.266C368.934 283.399 365.08 288.004 362.868 293.436C362.493 294.592 362.058 295.727 361.567 296.838Z" fill="#455A64"/>
<path d="M432.402 371.299C432.402 371.299 446.521 389.489 449.895 396.292C453.269 403.096 477.594 478.616 477.594 478.616L467.053 483.05L432.402 371.299Z" fill="#0F516A"/>
<path d="M375.676 354.28V345.162L426.909 361.818L440.628 383.791L451.206 414.473L421.555 369.904L375.676 354.28Z" fill="#EBEBEB"/>
<path d="M372.628 363.036C372.628 363.036 350.887 389.061 351.361 405.95C351.826 422.597 374.403 523.752 374.403 523.752L368.938 541.83L363.017 602.079H486.164L477.594 478.644C476.227 478.56 450.592 407.901 450.592 407.901L421.946 368.12L374.775 351.129L372.628 363.036Z" fill="#0F516A"/>
<path d="M466.468 449.273C466.468 449.273 475.084 448.929 479.583 450.936C484.081 452.944 487.883 451.94 491.071 458.168C494.259 464.395 497.968 467.202 498.749 476.636C499.529 486.071 489.342 507.923 482.613 511.027C475.883 514.132 466.468 449.273 466.468 449.273Z" fill="#0F516A"/>
<g opacity="0.3">
<path opacity="0.3" d="M370.137 448.39C370.137 448.39 420.487 495.644 426.891 500.161C433.295 504.679 434.243 533.27 442.134 533.809C450.025 534.348 475.595 515.442 475.595 515.442L399.852 444.086L370.137 448.39Z" fill="black"/>
</g>
<path d="M441.037 490.699C441.037 490.699 430.088 504.716 428.861 508.229C427.634 511.743 426.389 514.076 427.727 515.247C428.207 515.759 428.833 516.11 429.52 516.253C430.207 516.396 430.922 516.324 431.566 516.046C433.351 515.368 442.153 503.759 442.153 503.759C442.153 503.759 430.478 520.406 429.949 523.278C429.419 526.15 431.705 527.544 434.373 527.042C437.041 526.54 442.153 519.011 442.153 519.011C442.153 519.011 434.931 527.377 436.446 528.799C437.961 530.221 439.727 530.388 441.734 529.384C443.742 528.38 448.845 521.772 448.845 521.772C448.845 521.772 445.332 525.536 447.256 526.419C449.18 527.302 449.347 527.442 451.02 526.047C452.693 524.653 467.453 510.246 467.453 510.246L458.158 503.879L441.037 490.699Z" fill="#FFBF9D"/>
<path d="M445.527 499.26C445.015 500.087 444.44 500.873 443.807 501.611L439.541 507.188C437.859 509.354 436.288 511.287 435.107 512.635C434.505 513.403 433.83 514.109 433.09 514.745C433.619 513.931 434.203 513.155 434.838 512.421L439.16 506.891C440.833 504.725 442.376 502.783 443.538 501.416C444.134 500.638 444.8 499.917 445.527 499.26Z" fill="#FF9A6C"/>
<path d="M453.279 505.971C451.46 508.49 449.512 510.913 447.441 513.23C445.497 515.656 443.425 517.977 441.233 520.182C443.051 517.663 445 515.24 447.07 512.923C449.014 510.497 451.087 508.176 453.279 505.971Z" fill="#FF9A6C"/>
<path d="M459.534 510.181C457.62 512.635 455.579 514.987 453.418 517.227C451.368 519.576 449.197 521.816 446.912 523.938C448.829 521.487 450.874 519.138 453.037 516.901C456.504 513.1 459.404 510.098 459.534 510.181Z" fill="#FF9A6C"/>
<path d="M379.283 379.227C386.356 377.731 395.344 377.099 402.176 380.975L439.541 414.677C439.541 414.677 492.187 473.755 494.259 477.045C496.332 480.336 499.102 499.771 491.136 509.689C483.171 519.606 474.201 515.786 463.968 513.453C455.863 511.594 399.248 470.009 375.974 452.73C367.899 446.785 362.072 438.285 359.438 428.61C357.668 422.373 357.038 415.868 357.579 409.407" fill="#0F516A"/>
<path d="M357.542 409.398C357.542 409.398 357.542 409.723 357.487 410.327C357.431 410.932 357.384 411.926 357.375 413.172C357.369 416.828 357.737 420.475 358.472 424.056C358.972 426.648 359.656 429.201 360.517 431.696C361.565 434.651 362.93 437.484 364.588 440.145C366.496 443.198 368.768 446.007 371.354 448.51C374.059 451.224 377.424 453.502 380.835 456.058C394.545 466.161 410.894 478.161 429.317 491.118C433.918 494.352 438.658 497.624 443.547 500.942C448.436 504.26 453.446 507.569 458.735 510.637C460.051 511.411 461.41 512.109 462.806 512.728C463.512 513.013 464.243 513.231 464.99 513.379L467.267 513.936C470.282 514.769 473.355 515.374 476.46 515.749C479.597 516.136 482.777 515.559 485.578 514.094C488.356 512.501 490.677 510.219 492.317 507.467C495.003 502.82 496.035 497.42 496.174 492.187C496.271 489.573 496.162 486.957 495.849 484.36C495.688 483.071 495.474 481.798 495.207 480.54C494.982 479.294 494.559 478.092 493.953 476.98C492.428 474.973 490.709 473.03 489.073 471.106L484.128 465.39L474.406 454.375L439.374 414.808L402.064 381.058C399.107 379.468 395.848 378.518 392.5 378.27C390.062 378.062 387.61 378.084 385.176 378.335C383.205 378.521 381.727 378.772 380.733 378.939L379.608 379.143L379.227 379.208C379.227 379.208 379.729 379.088 380.714 378.883C381.699 378.679 383.196 378.418 385.166 378.214C387.605 377.941 390.063 377.9 392.509 378.093C395.893 378.324 399.189 379.275 402.176 380.882L439.587 414.529C450.063 426.277 461.895 439.625 474.675 454.059L484.388 465.129L489.342 470.846C490.988 472.788 492.67 474.675 494.269 476.766C494.443 477.052 494.601 477.346 494.743 477.649C494.863 477.956 494.956 478.272 495.068 478.579C495.282 479.202 495.421 479.843 495.588 480.438C495.861 481.721 496.075 483.013 496.23 484.314C496.551 486.934 496.663 489.576 496.564 492.214C496.378 497.494 495.393 502.959 492.642 507.727C490.954 510.548 488.57 512.888 485.717 514.522C482.834 516.039 479.555 516.639 476.32 516.241C473.18 515.854 470.073 515.232 467.026 514.382L464.767 513.825C463.993 513.674 463.237 513.447 462.508 513.146C461.09 512.526 459.712 511.818 458.381 511.027C453.065 507.95 448.064 504.595 443.166 501.305C438.268 498.014 433.546 494.705 428.936 491.471C410.532 478.458 394.201 466.449 380.51 456.309C377.108 453.762 373.734 451.457 371.01 448.715C368.423 446.172 366.148 443.33 364.235 440.247C362.58 437.56 361.218 434.702 360.173 431.724C359.328 429.214 358.657 426.649 358.165 424.046C357.502 420.474 357.209 416.842 357.291 413.209C357.301 411.935 357.385 410.662 357.542 409.398Z" fill="#263238"/>
<path d="M452.265 412.233C452.265 412.233 452.182 412.233 452.052 412.093L451.457 411.657C450.946 411.248 450.155 410.727 449.217 409.891C447.302 408.329 444.662 405.903 441.511 402.808C438.36 399.713 434.717 395.921 430.581 391.803C428.489 389.767 426.305 387.62 423.916 385.538C421.49 383.348 418.912 381.333 416.202 379.506C415.077 378.688 413.841 378.065 412.697 377.368L412.54 377.275V377.099C412.735 376.253 412.921 375.426 413.106 374.598L413.274 374.886L384.664 365.88L376.197 363.166L373.92 362.404L373.334 362.199C373.265 362.181 373.199 362.153 373.139 362.115L373.343 362.162L373.948 362.32L376.243 362.998L384.757 365.573L413.413 374.431L413.627 374.496V374.71C413.441 375.528 413.246 376.364 413.06 377.21L412.93 376.941C414.092 377.647 415.337 378.279 416.48 379.106C419.21 380.944 421.804 382.975 424.242 385.185C426.63 387.286 428.824 389.442 430.906 391.487C435.033 395.623 438.649 399.443 441.762 402.566C444.876 405.689 447.469 408.143 449.347 409.751C450.276 410.578 451.038 411.145 451.522 411.61L452.089 412.093L452.265 412.233Z" fill="#263238"/>
<path d="M470.753 450.276C470.352 449.687 470.001 449.065 469.702 448.417L467.007 443.073C464.758 438.556 461.69 432.291 458.335 425.357C454.979 418.423 451.959 412.131 449.802 407.567C448.752 405.327 447.943 403.486 447.274 402.148C446.995 401.544 446.781 401.051 446.605 400.67C446.522 400.5 446.454 400.322 446.4 400.14C446.522 400.287 446.622 400.449 446.698 400.624C446.884 401.005 447.135 401.479 447.441 402.074L450.109 407.418L458.772 425.106C462.09 432.021 465.101 438.277 467.314 442.878L469.87 448.287C470.465 449.57 470.79 450.314 470.753 450.276Z" fill="#263238"/>
<path d="M383.716 552.249C383.828 552.241 383.94 552.241 384.051 552.249L384.981 552.324L388.652 552.621L402.241 553.792L448.055 557.882L447.804 558.179C446.874 554.341 445.861 550.335 444.848 546.245L443.473 540.668L443.677 540.845L392.379 534.896L392.537 534.812C389.526 540.148 387.202 544.46 385.687 547.453C384.934 548.95 384.376 550.121 384.051 550.939C383.917 551.239 383.808 551.55 383.726 551.868C383.67 552.082 383.726 552.194 383.679 552.203C383.654 551.751 383.754 551.301 383.967 550.902C384.265 550.074 384.795 548.894 385.529 547.379C386.998 544.349 389.247 540.017 392.258 534.654V534.561H392.37L443.733 540.408H443.9V540.575C444.356 542.388 444.83 544.247 445.276 546.152L448.232 558.096L448.315 558.421H447.981L402.046 554.127L388.513 552.816L384.888 552.454L383.958 552.352L383.716 552.249Z" fill="#263238"/>
<g opacity="0.3">
<path opacity="0.3" d="M385.39 552.398L387.592 558.133L448.074 561.739V558.133L385.39 552.398Z" fill="black"/>
</g>
<path d="M302.22 264.176C302.034 260.942 299.348 258.228 296.262 257.252C293.176 256.276 289.755 256.778 286.725 257.791C280.024 260.022 274.391 264.576 268.926 269.037C260.44 275.971 252.195 285.48 248.951 295.946C246.516 303.828 245.81 308.959 248.31 317.324C250.532 324.76 252.288 331.926 251.842 338.126C251.154 347.932 249.983 350.209 247.446 359.857C245.866 365.88 251.229 381.616 251.229 381.616L285.145 368.603C297.228 362.915 323.319 352.291 323.319 352.291L302.22 264.176Z" fill="#263238"/>
<path d="M283.156 379.171C283.156 370.927 283.286 365.183 283.277 365.229C283.268 365.276 268.47 361.818 265.487 340.691C263.754 327.021 263.371 313.214 264.344 299.469C265.357 286.846 273.992 271.482 286.567 273.034L325.717 283.649C329.528 284.114 330.811 287.367 330.671 291.215L330.95 293.074L328.087 353.369L329.323 379.023C328.821 390.474 317.482 400.893 306.021 401.423C303.034 401.561 300.05 401.084 297.254 400.023C294.458 398.961 291.91 397.338 289.767 395.252C287.624 393.166 285.931 390.663 284.794 387.897C283.657 385.131 283.1 382.161 283.156 379.171Z" fill="#FFBF9D"/>
<path d="M273.22 316.292C273.2 317 273.456 317.687 273.936 318.208C274.415 318.729 275.079 319.042 275.785 319.081C276.126 319.107 276.467 319.067 276.792 318.961C277.116 318.855 277.416 318.687 277.675 318.465C277.934 318.243 278.147 317.972 278.301 317.668C278.455 317.364 278.548 317.032 278.574 316.692C278.597 315.985 278.342 315.298 277.864 314.776C277.387 314.255 276.724 313.942 276.018 313.903C275.677 313.875 275.334 313.915 275.009 314.02C274.683 314.125 274.382 314.294 274.122 314.516C273.862 314.738 273.649 315.009 273.494 315.314C273.339 315.619 273.246 315.951 273.22 316.292Z" fill="#263238"/>
<path d="M269.67 308.968C270.004 309.33 272.077 307.843 274.977 307.908C277.877 307.973 279.996 309.451 280.312 309.107C280.47 308.949 280.145 308.308 279.225 307.611C277.98 306.718 276.49 306.231 274.958 306.217C273.447 306.186 271.965 306.639 270.729 307.509C269.818 308.178 269.512 308.81 269.67 308.968Z" fill="#263238"/>
<path d="M300.435 315.967C300.41 316.674 300.664 317.363 301.142 317.885C301.62 318.406 302.284 318.719 302.991 318.755C303.332 318.783 303.674 318.743 303.999 318.638C304.324 318.533 304.624 318.364 304.884 318.142C305.143 317.92 305.356 317.649 305.509 317.344C305.663 317.039 305.755 316.707 305.78 316.366C305.803 315.66 305.548 314.972 305.07 314.451C304.592 313.93 303.93 313.617 303.224 313.578C302.883 313.55 302.541 313.59 302.216 313.695C301.891 313.8 301.591 313.969 301.331 314.191C301.072 314.413 300.859 314.684 300.706 314.989C300.552 315.294 300.46 315.626 300.435 315.967Z" fill="#263238"/>
<path d="M297.554 308.921C297.879 309.284 299.961 307.806 302.861 307.862C305.761 307.918 307.88 309.405 308.196 309.061C308.354 308.903 308.029 308.261 307.109 307.564C305.864 306.671 304.374 306.184 302.843 306.17C301.331 306.14 299.85 306.592 298.613 307.462C297.712 308.094 297.396 308.726 297.554 308.921Z" fill="#263238"/>
<path d="M285.88 330.876C285.88 330.708 284.095 330.364 281.176 329.946C280.433 329.862 279.736 329.704 279.615 329.193C279.564 328.425 279.749 327.66 280.145 327C280.882 325.215 281.647 323.356 282.441 321.423C285.629 313.429 287.952 306.849 287.627 306.719C287.302 306.588 284.457 312.974 281.269 320.967C280.507 322.947 279.773 324.825 279.067 326.619C278.59 327.509 278.439 328.538 278.639 329.528C278.742 329.791 278.903 330.028 279.111 330.219C279.318 330.411 279.567 330.553 279.838 330.634C280.246 330.754 280.668 330.82 281.093 330.829C284.039 330.996 285.87 331.043 285.88 330.876Z" fill="#263238"/>
<path d="M283.277 365.238C293.196 365.564 303.01 363.128 311.626 358.202C311.626 358.202 304.255 372.944 283.203 370.611L283.277 365.238Z" fill="#FF9A6C"/>
<path d="M296.615 298.604C296.959 299.376 299.831 298.799 303.261 298.985C306.691 299.171 309.507 299.915 309.916 299.162C310.093 298.809 309.563 298.102 308.401 297.414C306.856 296.577 305.14 296.104 303.385 296.03C301.629 295.956 299.88 296.283 298.27 296.987C297.061 297.582 296.466 298.242 296.615 298.604Z" fill="#263238"/>
<path d="M268.851 299.896C269.446 300.565 271.826 299.896 274.679 299.896C277.533 299.896 279.931 300.435 280.498 299.747C280.749 299.422 280.377 298.753 279.336 298.112C277.898 297.308 276.27 296.906 274.624 296.95C272.99 296.935 271.383 297.365 269.976 298.195C268.935 298.892 268.591 299.562 268.851 299.896Z" fill="#263238"/>
<path d="M286.567 338.042C287.19 337.145 288.042 336.432 289.034 335.977C290.027 335.523 291.124 335.343 292.209 335.458H292.414C293.004 335.457 293.581 335.629 294.075 335.952C294.569 336.276 294.958 336.736 295.194 337.277C295.43 337.818 295.503 338.416 295.403 338.997C295.304 339.579 295.037 340.119 294.635 340.552C293.909 341.399 292.933 341.994 291.847 342.252C291.164 342.471 290.442 342.543 289.729 342.463C289.016 342.383 288.328 342.153 287.711 341.788C287.106 341.401 286.659 340.812 286.45 340.125C286.24 339.439 286.282 338.7 286.567 338.042Z" fill="#FF9A6C"/>
<path d="M294.71 333.636C294.561 333.636 294.384 334.37 293.845 335.449C293.175 336.856 292.149 338.064 290.87 338.953C289.59 339.843 288.101 340.385 286.549 340.524C285.341 340.654 284.569 340.524 284.541 340.7C284.513 340.877 285.257 341.156 286.567 341.193C288.295 341.23 289.99 340.72 291.409 339.735C292.828 338.75 293.899 337.34 294.468 335.709C294.877 334.463 294.821 333.645 294.71 333.636Z" fill="#263238"/>
<path d="M263.823 323.793L259.455 306.133C255.532 300.723 258.599 291.903 261.379 285.824C264.158 279.745 269.456 275.098 275.321 271.956C281.186 268.814 287.729 267.039 294.217 265.45C291.539 273.645 286.021 280.614 278.658 285.099C278.658 285.099 267.894 292.451 265.952 301.114C263.86 310.585 263.823 323.793 263.823 323.793Z" fill="#263238"/>
<path d="M288.324 276.594L319.062 295.072C319.906 304.546 322.097 313.85 325.568 322.706C331.238 317.863 334.742 327.204 336.452 320.019C336.536 319.648 334.891 335.095 328.942 335.579L328.013 352.365L357.291 345.171C357.291 345.171 355.711 324.806 350.711 312.453C347.597 304.776 345.952 298.335 342.884 290.639C340.561 284.811 336.434 276.111 333.329 271.965C326.665 263.061 302.006 262.671 302.006 262.671C291.14 265.236 298.455 264.009 289.309 270.413L286.177 278.778" fill="#263238"/>
<path d="M325.605 322.594C325.605 318.151 330.327 314.926 334.37 316.933C336.583 318.03 338.358 320.391 338.423 325.104C338.6 337.661 325.689 335.253 325.689 334.947C325.689 334.64 325.624 327.79 325.605 322.594Z" fill="#B56760"/>
<path d="M329.528 330.086C329.584 330.039 329.751 330.234 330.132 330.392C330.666 330.606 331.262 330.606 331.796 330.392C333.144 329.89 334.25 327.762 334.287 325.503C334.306 324.425 334.077 323.356 333.618 322.38C333.493 321.985 333.273 321.627 332.976 321.338C332.679 321.05 332.315 320.839 331.917 320.726C331.661 320.661 331.391 320.687 331.152 320.799C330.913 320.911 330.72 321.101 330.606 321.339C330.439 321.692 330.532 321.943 330.457 321.962C330.383 321.981 330.178 321.757 330.281 321.237C330.347 320.924 330.521 320.644 330.773 320.447C331.123 320.179 331.562 320.056 332 320.103C332.523 320.198 333.013 320.423 333.426 320.758C333.839 321.093 334.16 321.526 334.361 322.018C334.918 323.097 335.199 324.298 335.179 325.513C335.133 328.041 333.841 330.429 332 330.978C331.659 331.083 331.298 331.111 330.944 331.06C330.591 331.008 330.253 330.879 329.955 330.68C329.556 330.383 329.481 330.104 329.528 330.086Z" fill="#8A4A43"/>
<path d="M302.973 262.624C302.838 262.9 302.663 263.154 302.452 263.377C302.071 263.823 301.523 264.464 300.751 265.236C299.255 266.742 297.108 268.712 294.738 270.878C292.367 273.044 290.211 275.014 288.696 276.455C287.181 277.895 286.27 278.853 286.214 278.806C286.367 278.535 286.554 278.285 286.772 278.063C287.144 277.607 287.701 276.975 288.454 276.204C289.914 274.679 292.023 272.662 294.403 270.497L300.51 264.92C302.062 263.554 302.917 262.587 302.973 262.624Z" fill="#455A64"/>
<path d="M268.786 273.276C269.019 272.919 269.294 272.591 269.604 272.3C270.397 271.466 271.248 270.689 272.151 269.976C275.154 267.596 278.611 265.854 282.31 264.855C284.36 264.225 286.548 264.199 288.612 264.78C289.46 265.021 290.247 265.44 290.92 266.009C291.593 266.578 292.137 267.284 292.516 268.08C293.002 269.171 293.065 270.403 292.693 271.538C292.594 271.838 292.453 272.123 292.274 272.384C292.132 272.557 292.058 272.641 292.051 272.635C292.233 272.262 292.388 271.877 292.516 271.482C292.8 270.392 292.691 269.237 292.209 268.22C291.83 267.496 291.305 266.857 290.669 266.344C290.033 265.831 289.298 265.454 288.51 265.236C286.524 264.71 284.43 264.755 282.468 265.366C278.833 266.355 275.417 268.024 272.402 270.283C270.051 271.984 268.852 273.341 268.786 273.276Z" fill="#455A64"/>
<path d="M261.75 285.907C261.988 285.571 262.259 285.259 262.559 284.978C263.098 284.42 263.888 283.621 264.892 282.664C267.49 280.117 270.39 277.898 273.527 276.055C275.254 275.029 277.138 274.294 279.104 273.88C280.757 273.546 282.475 273.806 283.956 274.614C284.949 275.164 285.733 276.027 286.186 277.068C286.3 277.349 286.378 277.642 286.419 277.942C286.419 278.146 286.419 278.258 286.419 278.258C286.419 278.258 286.335 277.83 286.01 277.142C285.508 276.191 284.73 275.413 283.779 274.912C282.344 274.185 280.702 273.978 279.132 274.326C277.21 274.746 275.368 275.471 273.676 276.473C270.573 278.305 267.678 280.468 265.041 282.924L262.605 285.117C262.349 285.41 262.062 285.675 261.75 285.907Z" fill="#455A64"/>
<path d="M335.337 336.118C335.368 336.987 335.14 337.847 334.682 338.587C334.224 339.327 333.557 339.914 332.766 340.275C331.974 340.635 331.093 340.753 330.234 340.612C329.375 340.472 328.578 340.08 327.942 339.486C327.306 338.892 326.861 338.122 326.663 337.275C326.464 336.428 326.522 335.541 326.828 334.727C327.134 333.912 327.675 333.207 328.383 332.7C329.09 332.193 329.932 331.908 330.801 331.879C331.964 331.842 333.095 332.267 333.945 333.061C334.795 333.856 335.296 334.955 335.337 336.118Z" fill="#455A64"/>
<path d="M254.816 461.672C253.766 462.378 242.176 465.185 239.359 472.556C236.543 479.927 221.643 494.928 232.435 509.558L254.816 497.141V461.672Z" fill="#7FCAEB"/>
<path d="M232.425 509.586C230.539 507.099 229.285 504.189 228.772 501.11C228.372 498.367 228.533 495.571 229.246 492.893C230.576 487.586 233.596 482.669 236.022 478.653C237.298 476.722 238.411 474.689 239.35 472.575C241.655 466.533 249.816 463.559 253.292 462.285C253.81 462.114 254.316 461.909 254.807 461.672V497.206L232.425 509.586ZM254.789 461.718C254.31 461.947 253.816 462.142 253.311 462.304C249.825 463.577 241.674 466.552 239.368 472.528C238.424 474.648 237.308 476.687 236.032 478.625C233.615 482.594 230.594 487.548 229.265 492.846C228.552 495.519 228.39 498.308 228.791 501.044C229.301 504.113 230.548 507.013 232.425 509.493L254.733 497.094L254.789 461.718Z" fill="#263238"/>
<path d="M280.637 400.54L282.468 375.24L328.533 356.018L330.169 365.462L298.79 381.43L280.637 400.54Z" fill="#E0E0E0"/>
<path d="M330.169 359.885C330.169 359.885 301.941 371.299 289.44 382.452C277.663 392.946 253.19 434.28 250.569 445.555C247.948 456.829 248.459 488.022 248.459 488.022C248.459 488.022 248.394 520.201 248.394 520.982C248.394 521.763 228.205 573.683 231.877 601.995H346.965C346.965 601.995 350.367 562.148 342.503 546.673C334.64 531.197 334.38 534.357 334.38 534.357C334.38 534.357 339.092 529.115 338.572 524.393C338.121 521.283 336.953 518.321 335.161 515.74L355.349 452.814C355.349 452.814 357.449 421.091 351.947 399.834C346.779 379.924 344.864 381.049 338.404 374.682C338.265 374.543 338.488 374.859 338.404 374.682L332.539 369.867L330.169 359.885Z" fill="#7FCAEB"/>
<path d="M254.816 552.249C254.454 550.892 263.535 534.775 263.535 534.775L315.586 543.512L319.211 558.133L254.816 552.249Z" fill="#7FCAEB"/>
<path d="M254.816 552.249C254.928 552.241 255.04 552.241 255.151 552.249L256.081 552.324L259.798 552.621L273.397 553.792L319.192 557.882L318.941 558.179C318.012 554.638 317.138 550.92 316.153 547.137L315.27 543.559L315.465 543.745L263.414 534.933L263.581 534.85C260.57 540.185 258.246 544.488 256.731 547.491C255.978 548.987 255.421 550.158 255.095 550.967C254.963 551.268 254.854 551.578 254.77 551.896C254.737 552.005 254.721 552.118 254.723 552.231C254.699 551.779 254.798 551.329 255.012 550.93C255.309 550.102 255.839 548.913 256.573 547.398C258.042 544.377 260.291 540.045 263.293 534.682L263.349 534.58H263.461L315.511 543.233H315.669V543.392C315.958 544.553 316.264 545.762 316.599 546.97C317.528 550.753 318.458 554.462 319.332 558.012L319.406 558.337H319.071L273.164 554.043L259.696 552.77L256.071 552.398L255.142 552.296L254.816 552.249Z" fill="#263238"/>
<g opacity="0.3">
<path opacity="0.3" d="M243.644 527.256L244.824 536.643C253.125 542.518 264.855 541.393 273.722 536.43C282.589 531.466 289.161 523.352 295.249 515.265C313.69 490.579 329.76 463.93 340.719 435.135C312.128 469.424 272.514 493.163 243.644 527.256Z" fill="black"/>
</g>
<path d="M336.573 386.524C346.231 394.21 354.652 418.265 339.696 439.058C339.696 439.058 274.354 527.702 263.535 534.794C252.716 541.886 238.142 537.712 233.978 527.302C229.814 516.892 231.487 506.909 237.314 499.836C243.142 492.763 281.427 425.339 281.427 425.339C281.427 425.339 290.165 394.08 305.036 385.008" fill="#7FCAEB"/>
<path d="M305.036 384.99L304.367 385.464C303.911 385.752 303.27 386.245 302.434 386.914C300.063 388.938 297.95 391.244 296.141 393.783C291.326 400.354 285.861 411.09 281.585 425.385C273.22 440.182 262.689 458.595 250.485 479.295C247.409 484.444 244.248 489.751 240.856 495.096C239.926 496.406 239.155 497.773 238.179 499.065C237.705 499.725 237.249 500.366 236.738 500.998C236.227 501.63 235.809 502.309 235.4 502.987C234.583 504.377 233.895 505.84 233.346 507.356C232.821 508.901 232.435 510.491 232.193 512.105C231.743 515.394 231.884 518.737 232.611 521.976C232.797 522.794 232.992 523.612 233.253 524.412C233.513 525.211 233.782 526.01 234.071 526.8C234.359 527.59 234.768 528.334 235.13 529.096L235.818 530.156C236.033 530.516 236.282 530.856 236.562 531.169C238.73 533.832 241.612 535.821 244.871 536.904C248.037 538.002 251.419 538.328 254.736 537.856C258.053 537.384 261.21 536.127 263.944 534.19C266.363 532.123 268.616 529.87 270.683 527.451C274.902 522.72 278.881 517.896 282.766 513.118C290.499 503.563 297.777 494.204 304.664 485.234C311.552 476.265 318.04 467.732 324.081 459.701L332.8 448.074L336.843 442.58C338.153 440.768 339.529 439.058 340.635 437.245C342.878 433.872 344.624 430.194 345.822 426.324C346.082 425.394 346.324 424.465 346.575 423.582C346.825 422.699 346.909 421.769 347.086 420.886C347.378 419.161 347.562 417.42 347.634 415.672C347.823 409.872 346.84 404.093 344.743 398.681C343.448 395.247 341.582 392.058 339.222 389.247C338.804 388.782 338.479 388.317 338.126 388.011L337.243 387.193L336.545 386.523C336.545 386.523 336.796 386.728 337.28 387.156L338.209 387.955C338.562 388.28 338.906 388.717 339.325 389.182C341.708 391.982 343.594 395.17 344.901 398.607C347.047 404.036 348.066 409.846 347.894 415.681C347.83 417.442 347.65 419.196 347.355 420.933C347.188 421.862 347.104 422.745 346.853 423.656L346.11 426.445C344.917 430.351 343.163 434.065 340.905 437.468C339.799 439.327 338.432 441.019 337.122 442.831L333.032 448.334L324.341 459.98C318.309 468.02 311.84 476.581 304.952 485.55C298.065 494.52 290.797 503.879 283.063 513.434C279.197 518.203 275.209 523.036 270.98 527.786C269.93 528.975 268.833 530.137 267.727 531.299C266.623 532.478 265.436 533.578 264.176 534.589C261.379 536.573 258.149 537.86 254.754 538.345C251.359 538.83 247.898 538.498 244.657 537.378C241.313 536.27 238.356 534.228 236.134 531.494C235.844 531.169 235.586 530.817 235.362 530.444L234.656 529.347C234.254 528.582 233.891 527.797 233.569 526.995C233.271 526.187 232.964 525.397 232.741 524.57C232.482 523.757 232.265 522.932 232.091 522.097C231.354 518.803 231.212 515.403 231.672 512.059C232.134 508.774 233.247 505.614 234.944 502.764C235.372 502.076 235.818 501.379 236.301 500.738C236.785 500.096 237.296 499.446 237.751 498.804C238.681 497.55 239.536 496.174 240.41 494.863C243.811 489.528 246.962 484.221 250.048 479.062C262.28 458.419 272.802 440.024 281.251 425.255C285.591 410.959 291.103 400.224 295.983 393.653C297.818 391.118 299.96 388.82 302.359 386.812C302.99 386.305 303.648 385.834 304.33 385.399L305.036 384.99Z" fill="#263238"/>
<path d="M276.222 453.622C276.222 453.622 274.54 449.217 271.185 448.631C267.829 448.046 261.323 448.631 261.323 448.631C261.323 448.631 258.451 450.788 258.479 453.743C258.48 455.438 258.683 457.126 259.083 458.772C259.083 458.772 256.731 455.602 253.636 458.605C250.541 461.607 247.827 467.695 247.827 467.695C247.827 467.695 243.709 469.015 242.138 471.004C241.035 472.608 240.195 474.378 239.647 476.246C238.623 476.946 237.814 477.918 237.312 479.053C236.809 480.187 236.633 481.44 236.803 482.669C236.989 483.976 237.481 485.222 238.241 486.302C239 487.383 240.004 488.269 241.172 488.887C241.172 488.887 253.441 497.931 254.947 496.769C256.452 495.607 259.52 493.748 255.095 489.844C250.671 485.94 247.92 483.468 247.92 483.468L250.002 480.261C250.002 480.261 262.011 488.515 263.944 488.115C265.877 487.716 269.149 487.66 267.811 484.695C266.472 481.73 255.225 473.086 255.225 473.086L256.564 468.438C256.564 468.438 269.577 477.241 271.677 475.828C273.778 474.415 275.702 473.764 273.536 470.874C271.37 467.983 261.992 461.04 261.992 461.04L265.84 457.452C265.84 457.452 274.903 459.041 276.222 453.622Z" fill="#FFBF9D"/>
<path d="M332.539 369.895C332.435 369.941 332.326 369.976 332.214 369.997L331.285 370.248C330.448 370.471 329.202 370.797 327.622 371.243C323.141 372.485 318.729 373.965 314.405 375.676C313.039 376.225 311.617 376.829 310.176 377.535C309.451 377.879 308.717 378.242 307.992 378.642C307.629 378.837 307.248 379.023 306.886 379.236C306.523 379.45 306.17 379.683 305.826 379.943C302.995 382.279 300.39 384.878 298.046 387.704C292.953 393.597 287.757 400.41 282.431 407.651C277.105 414.891 272.207 421.918 267.792 428.35C265.598 431.566 263.526 434.633 261.62 437.524C259.8 440.164 258.152 442.918 256.685 445.768C254.639 449.943 252.909 454.265 251.507 458.697C251.006 460.259 250.643 461.486 250.401 462.322C250.281 462.722 250.197 463.029 250.123 463.252C250.097 463.36 250.062 463.465 250.02 463.568C250.027 463.455 250.045 463.342 250.076 463.233C250.132 463.001 250.206 462.676 250.308 462.304C250.522 461.458 250.848 460.222 251.331 458.651C252.662 454.185 254.35 449.834 256.378 445.638C257.826 442.759 259.466 439.98 261.286 437.319C263.145 434.42 265.236 431.334 267.429 428.118C271.817 421.667 276.724 414.64 282.041 407.381C287.357 400.122 292.581 393.318 297.702 387.434C300.079 384.59 302.721 381.978 305.594 379.636C305.938 379.367 306.328 379.153 306.691 378.92C307.053 378.688 307.434 378.511 307.806 378.316C308.549 377.917 309.293 377.563 310.018 377.219C311.477 376.532 312.909 375.937 314.284 375.36C318.628 373.671 323.066 372.234 327.576 371.057C329.165 370.639 330.411 370.351 331.294 370.128L332.223 369.923L332.539 369.895Z" fill="#263238"/>
<path d="M325.234 528.771C324.733 528.539 324.252 528.269 323.793 527.962C322.864 527.414 321.59 526.577 320.075 525.49C311.949 519.768 304.853 512.709 299.088 504.614C297.991 503.061 297.145 501.779 296.596 500.896C296.287 500.441 296.014 499.962 295.779 499.464C296.137 499.882 296.463 500.327 296.755 500.794C297.349 501.667 298.242 502.922 299.366 504.446C305.257 512.382 312.303 519.391 320.27 525.239C321.804 526.354 323.059 527.237 323.932 527.832C324.39 528.11 324.825 528.424 325.234 528.771Z" fill="#263238"/>
<g opacity="0.3">
<path opacity="0.3" d="M256.49 552.398L258.06 558.133L316.971 557.929L256.49 552.398Z" fill="black"/>
</g>
</g>
<g clip-path="url(#clip1)">
<path d="M104.194 97.0741C105.041 97.6938 105.771 98.4585 106.351 99.3328C107.085 100.615 109.241 101.963 108.507 100.262C108.103 99.3953 107.457 98.663 106.648 98.1523C104.334 96.2376 96.424 90.9861 86.0696 97.5203C85.0014 96.8585 83.7428 96.5723 82.4934 96.707C81.2441 96.8417 80.0754 97.3896 79.1728 98.2639C81.4036 95.1315 90.4195 81.3195 95.7919 60.0902C101.369 37.9965 100.068 23.2457 95.5317 10.3353C90.9958 -2.5752 82.0078 -1.09733 80.2696 2.602C80.2696 2.602 76.0963 2.26738 74.5812 5.88305C74.5812 5.88305 68.8742 6.61734 68.6047 11.5622C67.0376 11.6225 65.5467 12.2542 64.4133 13.338C63.2798 14.4218 62.582 15.8829 62.4515 17.4458C62.4515 17.4458 58.8545 17.8083 58.4548 21.1637C58.4548 21.1637 52.8779 21.1637 51.8555 26.0341C51.8555 26.0341 45.7581 25.8761 43.1091 33.0517C43.1091 33.0517 34.1954 38.1359 37.3092 46.8359C38.7591 50.8884 40.9341 55.4893 43.2857 60.5178L43.0719 60.3505L42.9046 60.2203C42.5607 59.9601 42.2168 59.6998 41.8543 59.4582C41.3338 59.1143 40.8226 58.8168 40.3114 58.5287L39.8187 58.2684L39.3633 58.0268C38.8986 57.7944 38.4338 57.5713 37.9784 57.3854L37.4207 57.1716C37.1697 57.0694 36.9281 56.9672 36.6864 56.8835L35.9428 56.6326C35.5431 56.5024 35.1621 56.3816 34.7903 56.2794C34.5579 56.205 34.3162 56.1306 34.0932 56.0749L33.3775 55.8797L33.1451 55.8146C32.3693 55.6335 31.6056 55.4038 30.8586 55.1268C30.0675 54.7599 29.2021 54.5818 28.3304 54.6063H28.2003C28.0688 54.6189 27.9383 54.6407 27.8099 54.6714C27.6006 54.7076 27.3952 54.7636 27.1964 54.8387C27.0794 54.8754 26.9646 54.9189 26.8525 54.9688L26.5272 55.1082L26.0811 55.3499L25.8022 55.5079C25.542 55.6659 25.2817 55.8425 25.0029 56.0377C24.574 56.352 24.0827 56.5707 23.5622 56.679C22.978 56.7965 22.3826 56.8495 21.7869 56.837C21.1639 56.828 20.5415 56.8778 19.9279 56.9858V56.9858C19.2712 57.1263 18.6567 57.4192 18.134 57.8409V57.8409C18.0318 57.9245 17.9295 58.0082 17.8366 58.1011C17.7035 58.2156 17.5793 58.3399 17.4648 58.4729L16.9629 59.0306L15.3363 60.8896C14.853 61.4287 14.4068 61.9027 13.9235 62.3488C13.3924 62.8492 12.8272 63.312 12.2318 63.7338L12.1296 63.7988C11.9251 63.9475 11.7113 64.0963 11.479 64.245C9.36904 65.6206 8.03059 65.8065 7.08252 67.4796C6.98958 67.6469 6.90592 67.8235 6.81297 68.0187L6.75721 68.1581C6.67355 68.3626 6.5899 68.5764 6.50624 68.8273C6.24599 69.6545 5.99503 70.3888 5.75337 71.0766C5.62324 71.4298 5.49312 71.7645 5.36299 72.0898C5.23286 72.4151 5.13991 72.6289 5.01908 72.8984C4.89825 73.1587 4.77741 73.4096 4.64729 73.6606C4.51716 73.9208 4.37774 74.1625 4.22903 74.4135C4.08031 74.6737 3.9223 74.9247 3.75499 75.1756C3.58768 75.4266 3.47615 75.5846 3.31813 75.7984C1.71943 77.9641 1.75661 79.1166 1.80309 82.3605C1.80309 82.4349 1.80309 82.5092 1.80309 82.5836C1.79116 83.1344 1.72264 83.6826 1.5986 84.2195C1.51495 84.6284 1.40341 85.0188 1.28258 85.4185L0.966555 86.4037C0.664303 87.2666 0.419012 88.1484 0.232267 89.0435V89.0435C0.0361466 89.9985 0.0172453 90.9815 0.1765 91.9434C0.181717 92.0301 0.181717 92.117 0.1765 92.2037V92.2037L0.399573 93.3005V93.3934C0.399573 93.5793 0.483225 93.7652 0.529699 93.9697V94.0255C0.585468 94.2485 0.650536 94.4809 0.715599 94.7319C0.976632 95.7074 1.28685 96.6691 1.64508 97.6132C1.80309 98.0501 1.98898 98.5427 2.18417 98.9517C2.37936 99.4071 2.59314 99.8812 2.82551 100.337C3.90138 102.51 5.30241 104.506 6.98028 106.257V106.257C7.24983 106.536 7.52867 106.815 7.8261 107.085C9.61649 108.737 11.6877 110.056 13.9421 110.979C14.5741 111.249 15.2155 111.49 15.8568 111.723L16.5074 111.946L17.8273 112.383L18.6081 112.615L19.8443 112.968L20.6715 113.191L21.9077 113.489L22.7535 113.675L24.0269 113.944L24.8356 114.102L26.2298 114.335L26.9455 114.455L28.8695 114.725H29.0647C29.7711 114.818 30.4775 114.892 31.1839 114.967L31.9089 115.032L33.3682 115.255L34.2326 115.32L35.506 115.394H36.4354L37.6624 115.441H38.5918H39.8187H40.7017H42.7187H44.2152C45.7674 115.441 47.2825 115.357 48.7603 115.283H48.9276C49.3366 115.283 49.7363 115.227 50.136 115.19C50.7773 115.19 51.4 115.069 51.9949 114.994C51.5766 115.45 51.1491 115.924 50.7308 116.435C48.0446 119.614 43.4344 128.844 51.7532 120.218C61.615 109.994 67.9448 109.92 72.9825 108.832C78.0203 107.745 79.2193 104.185 79.2193 104.185C83.8202 106.155 87.7148 102.67 87.5846 99.8068C89.9548 98.645 96.1451 96.4235 101.239 101.796C101.636 102.322 101.886 102.944 101.964 103.599C102.196 105.058 103.711 107.094 103.655 105.216C103.597 104.279 103.274 103.377 102.726 102.614V102.614L102.651 102.53C102.489 102.297 102.308 102.076 102.112 101.87H102.15C96.8422 95.7636 90.2243 97.9386 87.5382 99.2027C87.3927 98.6266 87.067 98.1121 86.6087 97.7341C94.5557 92.9473 100.83 95.0479 104.194 97.0741Z" fill="url(#paint0_linear)"/>
</g>
<g opacity="0.33" clip-path="url(#clip2)">
<path d="M421.252 684.002H421.221C418.899 684.002 417.602 685.701 417 686.851C416.388 685.701 415.101 684.002 412.78 684.002H412.737C410.226 684.023 408.133 686.165 408.007 688.877C407.848 692.2 410.501 694.437 414.468 697.814C415.154 698.405 415.882 699.027 416.652 699.692L417 699.998L417.348 699.692C418.108 699.027 418.847 698.405 419.532 697.814C423.5 694.437 426.152 692.2 425.993 688.877C425.867 686.165 423.763 684.023 421.252 684.002Z" fill="#FF3636"/>
<path d="M425.993 688.877C426.151 692.2 423.5 694.437 419.532 697.814C418.846 698.405 418.108 699.027 417.348 699.692L417 699.998V686.851C417.601 685.701 418.899 684.002 421.22 684.002H421.252C423.763 684.023 425.867 686.165 425.993 688.877Z" fill="#F40000"/>
</g>
<path d="M285.275 701.525C285.275 701.945 285.41 702.5 285.68 703.19C285.98 703.85 286.13 704.375 286.13 704.765C286.13 705.125 285.995 705.485 285.725 705.845C285.485 706.205 285.155 706.385 284.735 706.385C284.315 706.385 283.955 706.04 283.655 705.35C283.385 704.66 283.25 703.97 283.25 703.28C283.25 701.36 284.015 699.8 285.545 698.6C287.075 697.4 288.74 696.8 290.54 696.8C292.34 696.8 293.885 697.295 295.175 698.285C296.495 699.275 297.155 700.595 297.155 702.245C297.155 703.865 296.84 705.26 296.21 706.43C295.61 707.6 294.905 708.545 294.095 709.265C293.285 709.985 292.07 711.05 290.45 712.46C288.86 713.87 287.465 715.22 286.265 716.51C287.345 716.69 288.83 717.065 290.72 717.635C292.64 718.175 293.765 718.445 294.095 718.445C295.205 718.445 296.255 717.635 297.245 716.015C297.755 715.145 298.115 714.71 298.325 714.71C298.595 714.71 298.73 714.89 298.73 715.25C298.73 716.09 298.295 717.2 297.425 718.58C296.585 719.96 295.82 720.92 295.13 721.46C294.44 721.97 293.405 722.225 292.025 722.225C291.605 722.225 290.51 721.73 288.74 720.74C286.97 719.75 285.545 719.255 284.465 719.255C283.625 721.085 282.86 722 282.17 722C281.66 722 281.24 721.85 280.91 721.55C280.61 721.25 280.46 720.77 280.46 720.11C280.46 719.45 280.805 718.685 281.495 717.815C282.185 716.945 282.98 716.45 283.88 716.33C284.9 715.25 286.055 714.095 287.345 712.865C288.635 711.635 289.55 710.735 290.09 710.165C290.66 709.595 291.23 708.92 291.8 708.14C292.4 707.36 292.79 706.595 292.97 705.845C293.18 705.095 293.285 704.15 293.285 703.01C293.285 701.87 292.94 700.88 292.25 700.04C291.56 699.17 290.645 698.735 289.505 698.735C288.365 698.735 287.375 698.945 286.535 699.365C285.695 699.785 285.275 700.505 285.275 701.525ZM309.846 714.755L301.071 715.25C300.561 715.25 300.156 715.115 299.856 714.845C299.556 714.575 299.406 714.29 299.406 713.99C299.406 713.66 299.811 713.375 300.621 713.135C300.861 712.355 301.791 710.03 303.411 706.16C305.061 702.29 305.946 700.115 306.066 699.635C306.216 699.125 306.366 698.54 306.516 697.88C306.666 697.22 306.801 696.725 306.921 696.395C307.041 696.065 307.296 695.72 307.686 695.36C308.076 695 308.496 694.82 308.946 694.82C309.396 694.82 309.711 695.015 309.891 695.405C310.101 695.795 310.206 696.215 310.206 696.665C310.206 697.805 309.816 698.975 309.036 700.175C308.256 701.345 307.206 703.19 305.886 705.71C304.566 708.23 303.471 710.63 302.601 712.91C304.041 712.91 305.541 712.745 307.101 712.415C308.691 712.055 309.771 711.83 310.341 711.74C310.791 706.52 311.361 703.91 312.051 703.91C312.381 703.91 312.711 704.135 313.041 704.585C313.401 705.035 313.581 705.485 313.581 705.935L313.221 711.47C314.391 711.47 315.411 711.74 316.281 712.28C317.181 712.82 317.631 713.405 317.631 714.035C317.631 714.815 317.136 715.205 316.146 715.205C315.726 715.205 315.186 715.13 314.526 714.98C313.896 714.8 313.356 714.71 312.906 714.71C312.846 715.97 312.816 717.92 312.816 720.56C312.816 721.1 312.576 721.55 312.096 721.91C311.646 722.27 311.001 722.45 310.161 722.45C309.561 722.45 309.261 721.955 309.261 720.965C309.261 719.375 309.456 717.305 309.846 714.755ZM319.091 728.795C318.671 728.795 318.326 728.585 318.056 728.165C317.786 727.775 317.651 727.34 317.651 726.86C317.651 726.41 317.846 725.675 318.236 724.655C318.626 723.665 319.031 722.75 319.451 721.91C320.261 720.38 321.176 718.715 322.196 716.915C323.426 714.485 324.671 710.885 325.931 706.115C327.191 701.345 328.046 698.48 328.496 697.52C328.946 696.53 329.471 696.035 330.071 696.035C330.281 696.035 330.386 696.215 330.386 696.575C330.386 696.935 330.296 697.475 330.116 698.195C327.386 709.925 324.896 718.64 322.646 724.34C322.166 725.54 321.566 726.575 320.846 727.445C320.126 728.345 319.541 728.795 319.091 728.795ZM338.774 711.875C338.384 711.875 337.934 711.965 337.424 712.145C336.914 712.295 336.509 712.37 336.209 712.37C335.609 712.37 335.309 712.13 335.309 711.65C335.309 710.48 336.764 709.895 339.674 709.895C341.084 706.775 342.164 704.195 342.914 702.155C341.534 701.855 339.764 701.315 337.604 700.535C335.444 699.755 334.244 699.365 334.004 699.365C333.374 699.365 333.059 699.695 333.059 700.355C333.059 700.595 333.119 700.895 333.239 701.255C333.389 701.585 333.464 701.81 333.464 701.93C333.464 702.17 333.359 702.29 333.149 702.29C332.669 702.29 332.234 701.945 331.844 701.255C331.484 700.535 331.304 699.845 331.304 699.185C331.304 698.525 331.514 697.925 331.934 697.385C332.354 696.845 332.894 696.575 333.554 696.575C334.214 696.575 335.759 696.95 338.189 697.7C340.649 698.42 342.539 698.795 343.859 698.825C344.039 698.555 344.369 698.255 344.849 697.925C345.329 697.565 345.749 697.385 346.109 697.385C346.499 697.385 346.859 697.67 347.189 698.24C347.519 698.78 347.684 699.5 347.684 700.4C347.684 700.94 347.369 701.375 346.739 701.705C346.139 702.035 345.464 702.245 344.714 702.335C344.024 704.405 343.094 707 341.924 710.12C342.854 710.21 343.844 710.255 344.894 710.255C345.974 710.255 346.514 710.495 346.514 710.975C346.514 711.365 346.109 711.59 345.299 711.65C345.029 711.68 343.694 711.725 341.294 711.785C340.004 715.235 339.284 717.215 339.134 717.725C338.984 718.235 338.849 718.79 338.729 719.39C338.609 719.99 338.474 720.47 338.324 720.83C338.204 721.19 337.934 721.55 337.514 721.91C337.094 722.27 336.614 722.45 336.074 722.45C335.564 722.45 335.189 722.255 334.949 721.865C334.739 721.475 334.634 721.055 334.634 720.605C334.634 719.525 335.174 718.25 336.254 716.78C336.734 716.09 337.574 714.455 338.774 711.875ZM358.892 705.96L359.292 707.84C359.292 708.293 359.132 708.667 358.812 708.96C358.492 709.253 358.119 709.4 357.692 709.4C357.266 709.4 356.946 709.2 356.732 708.8C356.546 708.4 356.452 707.96 356.452 707.48C356.452 706.04 357.066 704.747 358.292 703.6C359.546 702.427 360.959 701.84 362.532 701.84H362.772C363.306 699.813 364.106 698.8 365.172 698.8C365.492 698.8 365.652 699.227 365.652 700.08C365.652 700.24 365.612 700.88 365.532 702C365.932 702.053 366.399 702.12 366.932 702.2C368.186 702.387 369.226 702.48 370.052 702.48C370.906 702.48 371.759 702.347 372.612 702.08C373.492 701.787 374.079 701.64 374.372 701.64C375.119 701.64 375.492 702.027 375.492 702.8C375.492 703.547 375.092 704.12 374.292 704.52C373.492 704.893 372.332 705.08 370.812 705.08C369.292 705.08 367.439 704.733 365.252 704.04C364.932 705.88 364.746 707.267 364.692 708.2C364.639 709.133 364.586 710.52 364.532 712.36C365.652 712.307 367.199 712.28 369.172 712.28C369.519 712.28 369.812 712.413 370.052 712.68C370.319 712.947 370.452 713.227 370.452 713.52C370.452 713.813 370.359 714.053 370.172 714.24C369.986 714.427 369.786 714.52 369.572 714.52L364.492 714.24C364.386 716.853 364.292 718.627 364.212 719.56C364.159 720.493 363.906 721.36 363.452 722.16C362.999 722.96 362.466 723.36 361.852 723.36C361.506 723.36 361.119 723.173 360.692 722.8C360.292 722.453 360.092 722.12 360.092 721.8C360.092 721.48 360.132 721.24 360.212 721.08C360.319 720.893 360.426 720.72 360.532 720.56C360.666 720.373 360.759 720.227 360.812 720.12C361.132 719.427 361.426 717.52 361.692 714.4L360.132 714.6C359.919 714.6 359.746 714.533 359.612 714.4C359.479 714.24 359.412 714.067 359.412 713.88C359.412 713.667 359.452 713.48 359.532 713.32C359.612 713.16 359.772 713.04 360.012 712.96C360.252 712.853 360.426 712.787 360.532 712.76C360.959 712.653 361.386 712.6 361.812 712.6C361.866 711.96 361.932 710.573 362.012 708.44C362.119 706.307 362.266 704.64 362.452 703.44C362.292 703.413 362.052 703.4 361.732 703.4C359.839 703.4 358.892 704.253 358.892 705.96ZM385.02 713.32C386.086 712.973 386.82 712.68 387.22 712.44C387.646 712.173 387.966 711.973 388.18 711.84L388.66 711.56C388.793 711.48 388.9 711.44 388.98 711.44C389.193 711.44 389.3 711.56 389.3 711.8C389.3 712.04 388.886 712.467 388.06 713.08C387.233 713.667 386.206 714.2 384.98 714.68C384.793 716.92 384.086 718.733 382.86 720.12C381.633 721.507 379.886 722.2 377.62 722.2C375.966 722.2 374.7 721.547 373.82 720.24C372.94 718.907 372.5 717.36 372.5 715.6C372.5 713.813 373.02 712.133 374.06 710.56C375.126 708.987 376.486 708.2 378.14 708.2C378.886 707.667 379.766 707.4 380.78 707.4C381.82 707.4 382.78 707.947 383.66 709.04C384.54 710.133 384.993 711.56 385.02 713.32ZM382.42 715.36L380.98 715.44C379.753 715.44 378.713 715.08 377.86 714.36C377.006 713.613 376.58 712.8 376.58 711.92C376.58 711.04 376.726 710.28 377.02 709.64C375.873 710.547 375.3 712.333 375.3 715C375.3 716.28 375.566 717.507 376.1 718.68C376.633 719.827 377.473 720.4 378.62 720.4C379.766 720.4 380.66 719.92 381.3 718.96C381.94 717.973 382.313 716.773 382.42 715.36ZM379.94 708.72C379.513 708.72 379.18 708.92 378.94 709.32C378.7 709.693 378.58 710.107 378.58 710.56C378.58 711.547 378.913 712.347 379.58 712.96C380.273 713.573 381.073 713.88 381.98 713.88H382.46C382.406 712.573 382.18 711.387 381.78 710.32C381.406 709.253 380.793 708.72 379.94 708.72ZM390.55 711.56L392.75 711.32C392.963 711.32 393.15 711.44 393.31 711.68C393.47 711.92 393.55 712.173 393.55 712.44C393.55 712.707 393.456 713.613 393.27 715.16C393.11 716.707 393.03 717.933 393.03 718.84C393.03 719.72 393.11 720.16 393.27 720.16C393.723 720.133 394.35 719.573 395.15 718.48C395.95 717.36 396.736 715.933 397.51 714.2C398.31 712.467 398.79 711.6 398.95 711.6C399.136 711.6 399.23 711.707 399.23 711.92C399.23 712.667 398.843 713.853 398.07 715.48C395.963 719.96 394.19 722.2 392.75 722.2C391.71 722.2 390.923 721.987 390.39 721.56C390.203 721.373 390.11 720.213 390.11 718.08C390.11 715.947 390.336 714.12 390.79 712.6C389.243 712.6 388.163 712.107 387.55 711.12C387.23 710.613 387.07 710.04 387.07 709.4C387.07 708.76 387.203 708.2 387.47 707.72C387.736 707.24 388.11 707 388.59 707C389.096 707 389.55 707.267 389.95 707.8C390.376 708.307 390.59 708.88 390.59 709.52C390.59 710.16 390.403 710.8 390.03 711.44C390.136 711.52 390.31 711.56 390.55 711.56ZM421.834 720.16C422.287 720.16 422.914 719.613 423.714 718.52C424.514 717.4 425.301 715.973 426.074 714.24C426.874 712.48 427.354 711.6 427.514 711.6C427.701 711.6 427.794 711.707 427.794 711.92C427.794 712.667 427.407 713.853 426.634 715.48C424.527 719.96 422.767 722.2 421.354 722.2C420.127 722.2 419.261 722 418.754 721.6C418.541 721.387 418.434 720.867 418.434 720.04C418.434 719.213 418.501 717.933 418.634 716.2C417.621 717.933 416.541 719.373 415.394 720.52C414.274 721.64 413.154 722.2 412.034 722.2C410.941 722.2 410.047 721.613 409.354 720.44C408.661 719.24 408.314 717.64 408.314 715.64C408.314 713.613 408.514 711.093 408.914 708.08C409.314 705.04 409.514 702.787 409.514 701.32C409.514 700.947 409.421 700.76 409.234 700.76C408.807 700.76 408.314 701.08 407.754 701.72C407.221 702.333 406.861 703.293 406.674 704.6C406.647 704.893 406.527 705.16 406.314 705.4C406.127 705.613 405.927 705.72 405.714 705.72C405.394 705.72 405.234 705.453 405.234 704.92C405.234 704.387 405.501 703.64 406.034 702.68C406.567 701.693 407.261 700.8 408.114 700C408.994 699.2 409.847 698.8 410.674 698.8C411.634 698.8 412.101 699.573 412.074 701.12C412.074 702.64 411.914 704.867 411.594 707.8C411.274 710.733 411.114 712.933 411.114 714.4C411.114 718.133 411.807 720 413.194 720C413.994 720 414.927 719.36 415.994 718.08C417.061 716.8 418.007 715.307 418.834 713.6C419.367 706.773 419.754 702.547 419.994 700.92C420.047 700.68 420.461 700.267 421.234 699.68C422.007 699.093 422.594 698.8 422.994 698.8C423.421 698.8 423.634 699.573 423.634 701.12C423.634 702.293 423.541 703.307 423.354 704.16C423.167 705.013 422.927 706.013 422.634 707.16C422.367 708.307 422.167 709.16 422.034 709.72C421.767 713.293 421.634 716.413 421.634 719.08C421.634 719.8 421.701 720.16 421.834 720.16Z" fill="#0F516A"/>
<defs>
<filter id="filter0_d" x="118" y="149.646" width="470.88" height="517.354" filterUnits="userSpaceOnUse" color-interpolation-filters="sRGB">
<feFlood flood-opacity="0" result="BackgroundImageFix"/>
<feColorMatrix in="SourceAlpha" type="matrix" values="0 0 0 0 0 0 0 0 0 0 0 0 0 0 0 0 0 0 127 0"/>
<feOffset dy="4"/>
<feGaussianBlur stdDeviation="2"/>
<feColorMatrix type="matrix" values="0 0 0 0 0 0 0 0 0 0 0 0 0 0 0 0 0 0 0.25 0"/>
<feBlend mode="normal" in2="BackgroundImageFix" result="effect1_dropShadow"/>
<feBlend mode="normal" in="SourceGraphic" in2="effect1_dropShadow" result="shape"/>
</filter>
<linearGradient id="paint0_linear" x1="-3.11924" y1="79.8247" x2="106.65" y2="51.5337" gradientUnits="userSpaceOnUse">
<stop offset="0.01" stop-color="#FFBEC5"/>
<stop offset="0.16" stop-color="#FEB5BF"/>
<stop offset="0.4" stop-color="#FB9EAE"/>
<stop offset="0.7" stop-color="#F67992"/>
<stop offset="1" stop-color="#F14C72"/>
</linearGradient>
<clipPath id="clip0">
<rect width="400.428" height="397.092" fill="white" transform="translate(153.364 205.415)"/>
</clipPath>
<clipPath id="clip1">
<rect width="108.656" height="123.918" fill="white" transform="matrix(-1 0 0 1 108.656 0)"/>
</clipPath>
<clipPath id="clip2">
<rect width="18" height="18" fill="white" transform="translate(408 683)"/>
</clipPath>
</defs>
</svg>
