<svg width="131" height="61" viewBox="0 0 131 61" fill="none" xmlns="http://www.w3.org/2000/svg">
<path d="M54.3368 29.356L54.7768 31.424C54.7768 31.9227 54.6008 32.3333 54.2488 32.656C53.8968 32.9787 53.4861 33.14 53.0168 33.14C52.5474 33.14 52.1954 32.92 51.9608 32.48C51.7554 32.04 51.6528 31.556 51.6528 31.028C51.6528 29.444 52.3274 28.0213 53.6768 26.76C55.0554 25.4693 56.6101 24.824 58.3408 24.824H58.6048C59.1914 22.5947 60.0714 21.48 61.2448 21.48C61.5968 21.48 61.7728 21.9493 61.7728 22.888C61.7728 23.064 61.7288 23.768 61.6408 25C62.0808 25.0587 62.5941 25.132 63.1808 25.22C64.5594 25.4253 65.7034 25.528 66.6128 25.528C67.5514 25.528 68.4901 25.3813 69.4288 25.088C70.3968 24.7653 71.0421 24.604 71.3648 24.604C72.1861 24.604 72.5968 25.0293 72.5968 25.88C72.5968 26.7013 72.1568 27.332 71.2768 27.772C70.3968 28.1827 69.1208 28.388 67.4488 28.388C65.7768 28.388 63.7381 28.0067 61.3328 27.244C60.9808 29.268 60.7754 30.7933 60.7168 31.82C60.6581 32.8467 60.5994 34.372 60.5408 36.396C61.7728 36.3373 63.4741 36.308 65.6448 36.308C66.0261 36.308 66.3488 36.4547 66.6128 36.748C66.9061 37.0413 67.0528 37.3493 67.0528 37.672C67.0528 37.9947 66.9501 38.2587 66.7448 38.464C66.5394 38.6693 66.3194 38.772 66.0848 38.772L60.4968 38.464C60.3794 41.3387 60.2768 43.2893 60.1888 44.316C60.1301 45.3427 59.8514 46.296 59.3528 47.176C58.8541 48.056 58.2674 48.496 57.5928 48.496C57.2114 48.496 56.7861 48.2907 56.3168 47.88C55.8768 47.4987 55.6568 47.132 55.6568 46.78C55.6568 46.428 55.7008 46.164 55.7888 45.988C55.9061 45.7827 56.0234 45.592 56.1408 45.416C56.2874 45.2107 56.3901 45.0493 56.4488 44.932C56.8008 44.1693 57.1234 42.072 57.4168 38.64L55.7008 38.86C55.4661 38.86 55.2754 38.7867 55.1288 38.64C54.9821 38.464 54.9088 38.2733 54.9088 38.068C54.9088 37.8333 54.9528 37.628 55.0408 37.452C55.1288 37.276 55.3048 37.144 55.5688 37.056C55.8328 36.9387 56.0234 36.8653 56.1408 36.836C56.6101 36.7187 57.0794 36.66 57.5488 36.66C57.6074 35.956 57.6808 34.4307 57.7688 32.084C57.8861 29.7373 58.0474 27.904 58.2528 26.584C58.0768 26.5547 57.8128 26.54 57.4608 26.54C55.3781 26.54 54.3368 27.4787 54.3368 29.356ZM83.0767 37.452C84.25 37.0707 85.0567 36.748 85.4967 36.484C85.966 36.1907 86.318 35.9707 86.5527 35.824L87.0807 35.516C87.2274 35.428 87.3447 35.384 87.4327 35.384C87.6674 35.384 87.7847 35.516 87.7847 35.78C87.7847 36.044 87.33 36.5133 86.4207 37.188C85.5114 37.8333 84.382 38.42 83.0327 38.948C82.8274 41.412 82.05 43.4067 80.7007 44.932C79.3514 46.4573 77.43 47.22 74.9367 47.22C73.118 47.22 71.7247 46.5013 70.7567 45.064C69.7887 43.5973 69.3047 41.896 69.3047 39.96C69.3047 37.9947 69.8767 36.1467 71.0207 34.416C72.194 32.6853 73.69 31.82 75.5087 31.82C76.33 31.2333 77.298 30.94 78.4127 30.94C79.5567 30.94 80.6127 31.5413 81.5807 32.744C82.5487 33.9467 83.0474 35.516 83.0767 37.452ZM80.2167 39.696L78.6327 39.784C77.2834 39.784 76.1394 39.388 75.2007 38.596C74.262 37.7747 73.7927 36.88 73.7927 35.912C73.7927 34.944 73.954 34.108 74.2767 33.404C73.0154 34.4013 72.3847 36.3667 72.3847 39.3C72.3847 40.708 72.678 42.0573 73.2647 43.348C73.8514 44.6093 74.7754 45.24 76.0367 45.24C77.298 45.24 78.2807 44.712 78.9847 43.656C79.6887 42.5707 80.0994 41.2507 80.2167 39.696ZM77.4887 32.392C77.0194 32.392 76.6527 32.612 76.3887 33.052C76.1247 33.4627 75.9927 33.9173 75.9927 34.416C75.9927 35.5013 76.3594 36.3813 77.0927 37.056C77.8554 37.7307 78.7354 38.068 79.7327 38.068H80.2607C80.202 36.6307 79.9527 35.3253 79.5127 34.152C79.102 32.9787 78.4274 32.392 77.4887 32.392ZM89.16 35.516L91.58 35.252C91.8147 35.252 92.02 35.384 92.196 35.648C92.372 35.912 92.46 36.1907 92.46 36.484C92.46 36.7773 92.3574 37.7747 92.152 39.476C91.976 41.1773 91.888 42.5267 91.888 43.524C91.888 44.492 91.976 44.976 92.152 44.976C92.6507 44.9467 93.34 44.3307 94.22 43.128C95.1 41.896 95.9654 40.3267 96.816 38.42C97.696 36.5133 98.224 35.56 98.4 35.56C98.6054 35.56 98.708 35.6773 98.708 35.912C98.708 36.7333 98.2827 38.0387 97.432 39.828C95.1147 44.756 93.164 47.22 91.58 47.22C90.436 47.22 89.5707 46.9853 88.984 46.516C88.7787 46.3107 88.676 45.0347 88.676 42.688C88.676 40.3413 88.9254 38.332 89.424 36.66C87.7227 36.66 86.5347 36.1173 85.86 35.032C85.508 34.4747 85.332 33.844 85.332 33.14C85.332 32.436 85.4787 31.82 85.772 31.292C86.0654 30.764 86.476 30.5 87.004 30.5C87.5614 30.5 88.06 30.7933 88.5 31.38C88.9694 31.9373 89.204 32.568 89.204 33.272C89.204 33.976 88.9987 34.68 88.588 35.384C88.7054 35.472 88.896 35.516 89.16 35.516ZM123.573 44.976C124.071 44.976 124.761 44.3747 125.641 43.172C126.521 41.94 127.386 40.3707 128.237 38.464C129.117 36.528 129.645 35.56 129.821 35.56C130.026 35.56 130.129 35.6773 130.129 35.912C130.129 36.7333 129.703 38.0387 128.853 39.828C126.535 44.756 124.599 47.22 123.045 47.22C121.695 47.22 120.742 47 120.185 46.56C119.95 46.3253 119.833 45.7533 119.833 44.844C119.833 43.9347 119.906 42.5267 120.053 40.62C118.938 42.5267 117.75 44.1107 116.489 45.372C115.257 46.604 114.025 47.22 112.793 47.22C111.59 47.22 110.607 46.5747 109.845 45.284C109.082 43.964 108.701 42.204 108.701 40.004C108.701 37.7747 108.921 35.0027 109.361 31.688C109.801 28.344 110.021 25.8653 110.021 24.252C110.021 23.8413 109.918 23.636 109.713 23.636C109.243 23.636 108.701 23.988 108.085 24.692C107.498 25.3667 107.102 26.4227 106.897 27.86C106.867 28.1827 106.735 28.476 106.501 28.74C106.295 28.9747 106.075 29.092 105.841 29.092C105.489 29.092 105.312 28.7987 105.312 28.212C105.312 27.6253 105.606 26.804 106.193 25.748C106.779 24.6627 107.542 23.68 108.481 22.8C109.449 21.92 110.387 21.48 111.297 21.48C112.353 21.48 112.866 22.3307 112.837 24.032C112.837 25.704 112.661 28.1533 112.309 31.38C111.957 34.6067 111.78 37.0267 111.78 38.64C111.78 42.7467 112.543 44.8 114.069 44.8C114.949 44.8 115.975 44.096 117.149 42.688C118.322 41.28 119.363 39.6373 120.273 37.76C120.859 30.2507 121.285 25.6013 121.549 23.812C121.607 23.548 122.062 23.0933 122.913 22.448C123.763 21.8027 124.409 21.48 124.849 21.48C125.318 21.48 125.553 22.3307 125.553 24.032C125.553 25.3227 125.45 26.4373 125.245 27.376C125.039 28.3147 124.775 29.4147 124.453 30.676C124.159 31.9373 123.939 32.876 123.793 33.492C123.499 37.4227 123.353 40.8547 123.353 43.788C123.353 44.58 123.426 44.976 123.573 44.976Z" fill="#0F516A"/>
<path d="M50.5131 6.88547H10.5381V13.4103H50.5131V6.88547Z" fill="#7FC9E9" stroke="#FFF5FD" stroke-width="0.3" stroke-miterlimit="10"/>
<path d="M39.3041 0.999998L35.0256 49.4989L42.4578 50.17L46.7362 1.6711L39.3041 0.999998Z" fill="#7FC9E9" stroke="#FFF5FD" stroke-width="0.3" stroke-miterlimit="10"/>
<path d="M40.4927 8.88067C40.787 8.88067 41.0257 8.63924 41.0257 8.34143C41.0257 8.04361 40.787 7.80219 40.4927 7.80219C40.1983 7.80219 39.9597 8.04361 39.9597 8.34143C39.9597 8.63924 40.1983 8.88067 40.4927 8.88067Z" fill="#FEE2F7" stroke="#231F20" stroke-width="0.2" stroke-miterlimit="10"/>
<path d="M44.0638 8.88067C44.3581 8.88067 44.5968 8.63924 44.5968 8.34143C44.5968 8.04361 44.3581 7.80219 44.0638 7.80219C43.7694 7.80219 43.5308 8.04361 43.5308 8.34143C43.5308 8.63924 43.7694 8.88067 44.0638 8.88067Z" fill="#FEE2F7" stroke="#231F20" stroke-width="0.2" stroke-miterlimit="10"/>
<path d="M44.0638 12.5474C44.3581 12.5474 44.5968 12.306 44.5968 12.0082C44.5968 11.7104 44.3581 11.469 44.0638 11.469C43.7694 11.469 43.5308 11.7104 43.5308 12.0082C43.5308 12.306 43.7694 12.5474 44.0638 12.5474Z" fill="#FEE2F7" stroke="#231F20" stroke-width="0.2" stroke-miterlimit="10"/>
<path d="M40.4927 12.5474C40.787 12.5474 41.0257 12.306 41.0257 12.0082C41.0257 11.7104 40.787 11.469 40.4927 11.469C40.1983 11.469 39.9597 11.7104 39.9597 12.0082C39.9597 12.306 40.1983 12.5474 40.4927 12.5474Z" fill="#FEE2F7" stroke="#231F20" stroke-width="0.2" stroke-miterlimit="10"/>
<path d="M39.1069 34.8183C38.414 30.72 36.0155 33.0927 36.0155 33.0927C32.4977 36.3282 36.6018 33.3084 37.4546 34.8722C38.3074 36.436 36.5485 37.0292 35.0561 37.5145C33.5637 37.9998 30.5789 37.137 30.5789 37.137C30.6322 34.4947 30.8454 31.8525 31.3251 29.2641C31.9647 26.2443 32.9241 23.3324 34.3099 20.5823C35.5891 17.94 34.3632 18.7488 33.5104 19.2342C32.6576 19.7195 30.0459 19.5577 26.5281 22.1461C24.0763 23.9256 22.3707 25.3276 19.1727 31.3132C15.3351 38.4852 16.9341 42.4756 15.6016 44.1472C14.2691 45.8189 10.0051 41.6128 10.0051 41.6128C11.6041 39.995 12.9899 38.2155 14.1625 36.2743C16.1346 33.0927 16.7209 29.2102 15.7615 25.5433C14.8021 21.9304 11.0178 19.7734 6.64722 21.4451C5.52792 21.8765 4.62182 22.6314 3.92893 23.602L3.02283 23.2785C-0.708166 21.7147 -0.548266 25.5972 1.15733 24.8962C1.85023 24.6805 2.54313 24.6805 3.18273 24.9501C2.01013 27.5385 2.01013 30.72 3.02283 32.2839C4.56852 34.7644 8.67262 34.4408 8.51272 28.9405C8.45942 26.3522 7.50002 25.3815 5.68782 24.4648C7.28682 22.4157 10.3249 22.5775 11.764 23.2785C13.5229 24.1413 14.8554 26.4061 14.429 30.8818C14.0026 35.3575 8.77922 40.6421 8.77922 40.6421C4.88832 36.8674 1.37053 38.8626 0.730932 41.3431C0.197933 43.3383 0.944132 44.7404 2.86293 45.1718C4.99492 45.6571 8.83252 42.7991 8.83252 42.7991C8.83252 42.7991 9.95181 44.2011 12.8833 45.8189C15.8148 47.4366 17.5737 44.9561 18.1067 44.2551C18.6397 43.554 18.9595 39.9411 18.9595 39.9411C24.8225 37.7302 27.9139 39.0783 27.9139 39.0783C27.8073 39.8333 27.5941 44.0394 27.6474 46.8974C27.7007 49.7553 28.7134 48.6229 28.7134 48.6229C29.5129 48.1376 30.3124 47.7601 31.1652 47.3827C31.7515 47.167 33.6703 47.8141 32.1779 46.1963C30.6855 44.5786 30.5789 39.3479 30.5789 39.3479C32.9774 40.2647 39.7998 38.8626 39.1069 34.8183ZM6.70052 29.1562C6.80712 32.2839 5.04822 31.5289 4.62182 31.0436C4.19543 30.5583 3.82233 29.6955 4.88832 26.0286L4.94162 25.9208C5.95432 26.6757 6.59392 27.8621 6.70052 29.1562ZM4.46193 43.3383C2.86293 43.7697 2.43653 42.9069 2.22333 42.2599C2.01013 41.6128 2.70303 40.2107 4.51522 40.1568C6.32742 40.1029 7.71322 41.6128 7.71322 41.6128C6.70052 42.3677 5.63452 42.9609 4.46193 43.3383ZM29.353 28.3474C28.0738 32.0682 27.9139 36.8135 27.9139 36.8135C24.6093 35.3036 18.693 37.5684 18.693 37.5684C18.693 35.9507 21.3047 29.8573 24.556 26.2983C26.688 24.0874 29.353 22.4157 32.2845 21.499C31.1119 23.656 30.1525 25.9747 29.353 28.3474Z" fill="#0F516A"/>
<path d="M22.8504 47.3826C23.7565 47.8679 24.2895 48.8386 24.2362 49.8632C24.2362 49.8632 25.1956 48.4611 22.8504 47.3826Z" fill="#2AB24B"/>
<path d="M24.3961 45.7649C24.3961 45.7649 25.622 47.2209 24.8758 49.6475C24.8758 49.6475 26.4215 48.0297 24.3961 45.7649Z" fill="#2AB24B"/>
<path d="M23.3302 46.4121C23.2769 46.3581 24.3429 47.868 24.2896 48.3533C24.3429 48.3533 24.8226 47.7602 23.3302 46.4121Z" fill="#2AB24B"/>
<path d="M27.0611 45.9806C27.0611 45.9806 25.9418 46.2502 25.7819 47.9219C25.7286 47.9219 26.688 46.412 27.0611 45.9806Z" fill="#2AB24B"/>
<path d="M25.7287 49.5396C25.8886 49.0004 26.1018 48.4611 26.4749 48.0298C25.8886 48.1915 25.5155 48.8386 25.6754 49.4857C25.7287 49.4857 25.7287 49.4857 25.7287 49.5396Z" fill="#2AB24B"/>
<path d="M26.1016 49.5935C26.2615 49.27 26.528 49.0004 26.7945 48.7847C26.7945 48.7307 26.2615 48.569 26.1016 49.5935Z" fill="#2AB24B"/>
</svg>
