<svg width="504" height="624" viewBox="0 0 504 624" fill="none" xmlns="http://www.w3.org/2000/svg">
<g opacity="0.18">
<rect x="40.9407" y="0.466858" width="462.88" height="509.354" fill="#FFC9F2"/>
<g filter="url(#filter0_d)">
<rect x="4" y="37.646" width="462.88" height="509.354" fill="#F9FFF0"/>
</g>
<g clip-path="url(#clip0)">
<path d="M111.646 273.706L115.095 280.677C115.183 280.856 115.314 281.011 115.476 281.127C115.638 281.244 115.826 281.319 116.024 281.346L123.72 282.461C123.942 282.495 124.15 282.589 124.321 282.734C124.492 282.879 124.619 283.069 124.689 283.282C124.758 283.495 124.767 283.723 124.714 283.941C124.661 284.159 124.549 284.358 124.389 284.515L118.812 289.953C118.674 290.091 118.571 290.26 118.511 290.446C118.451 290.632 118.437 290.829 118.469 291.022L119.788 298.69C119.827 298.913 119.802 299.142 119.717 299.351C119.632 299.56 119.49 299.742 119.307 299.874C119.124 300.007 118.907 300.085 118.682 300.101C118.457 300.117 118.231 300.069 118.032 299.963L111.144 296.338C110.971 296.247 110.778 296.2 110.582 296.2C110.386 296.2 110.193 296.247 110.02 296.338L103.132 299.963C102.933 300.067 102.709 300.112 102.485 300.095C102.261 300.078 102.046 299.999 101.865 299.867C101.683 299.735 101.542 299.555 101.457 299.347C101.373 299.139 101.347 298.911 101.385 298.69L102.695 291.022C102.731 290.829 102.719 290.63 102.659 290.444C102.599 290.257 102.493 290.088 102.351 289.953L96.7745 284.515C96.6115 284.359 96.4959 284.16 96.441 283.941C96.386 283.723 96.394 283.493 96.4639 283.278C96.5338 283.064 96.6628 282.873 96.8362 282.729C97.0095 282.584 97.2201 282.491 97.4437 282.461L105.14 281.346C105.337 281.318 105.525 281.243 105.687 281.126C105.849 281.01 105.98 280.855 106.069 280.677L109.508 273.706C109.611 273.511 109.765 273.348 109.953 273.234C110.141 273.121 110.357 273.061 110.577 273.061C110.797 273.061 111.013 273.121 111.201 273.234C111.39 273.348 111.544 273.511 111.646 273.706Z" fill="#DBF4FF"/>
<path d="M80.1647 233.375L82.5535 238.209C82.6131 238.329 82.7008 238.433 82.8092 238.513C82.9176 238.592 83.0435 238.644 83.1762 238.664L88.5021 239.436C88.6557 239.459 88.7999 239.524 88.9185 239.624C89.0371 239.724 89.1255 239.856 89.1737 240.003C89.222 240.151 89.2282 240.309 89.1916 240.46C89.1551 240.611 89.0773 240.749 88.9669 240.858L85.1095 244.576C85.0135 244.67 84.942 244.786 84.9015 244.914C84.861 245.042 84.8526 245.178 84.8772 245.31L85.8066 250.617C85.8435 250.774 85.8344 250.938 85.7804 251.089C85.7264 251.241 85.6299 251.374 85.5024 251.472C85.3749 251.57 85.2217 251.629 85.0614 251.643C84.901 251.656 84.7403 251.623 84.5983 251.547L79.8301 249.037C79.7117 248.973 79.5791 248.939 79.4444 248.939C79.3096 248.939 79.177 248.973 79.0586 249.037L74.2904 251.547C74.1485 251.623 73.9877 251.656 73.8273 251.643C73.667 251.629 73.5139 251.57 73.3863 251.472C73.2588 251.374 73.1623 251.241 73.1083 251.089C73.0544 250.938 73.0452 250.774 73.0821 250.617L74.0116 245.31C74.0341 245.177 74.0239 245.041 73.9818 244.913C73.9397 244.785 73.8669 244.669 73.7699 244.576L69.9126 240.858C69.8022 240.749 69.7243 240.611 69.6878 240.46C69.6513 240.309 69.6575 240.151 69.7057 240.003C69.7539 239.856 69.8423 239.724 69.9609 239.624C70.0795 239.524 70.2237 239.459 70.3773 239.436L75.7032 238.664C75.8374 238.645 75.9648 238.593 76.0748 238.514C76.1848 238.434 76.2741 238.33 76.3353 238.209L78.7147 233.375C78.7881 233.248 78.8937 233.142 79.021 233.069C79.1483 232.995 79.2927 232.956 79.4397 232.956C79.5867 232.956 79.7312 232.995 79.8584 233.069C79.9857 233.142 80.0914 233.248 80.1647 233.375Z" fill="#DBF4FF"/>
<path d="M252.49 108.677L254.144 112.023C254.186 112.107 254.248 112.18 254.324 112.235C254.4 112.29 254.488 112.326 254.581 112.339L258.299 112.878C258.406 112.894 258.506 112.939 258.588 113.009C258.67 113.078 258.731 113.17 258.764 113.272C258.797 113.375 258.801 113.484 258.774 113.589C258.748 113.693 258.693 113.788 258.615 113.863L255.948 116.466C255.88 116.531 255.83 116.612 255.801 116.701C255.772 116.79 255.765 116.885 255.78 116.977L256.412 120.695C256.43 120.801 256.418 120.909 256.377 121.008C256.336 121.107 256.268 121.193 256.181 121.256C256.094 121.319 255.992 121.356 255.885 121.364C255.778 121.371 255.671 121.349 255.576 121.299L252.267 119.57C252.184 119.525 252.092 119.501 251.997 119.501C251.903 119.501 251.81 119.525 251.728 119.57L248.4 121.262C248.305 121.312 248.198 121.334 248.092 121.326C247.985 121.319 247.882 121.282 247.795 121.219C247.708 121.156 247.64 121.07 247.6 120.971C247.559 120.872 247.546 120.763 247.564 120.658L248.196 116.94C248.209 116.847 248.201 116.753 248.172 116.665C248.143 116.576 248.094 116.495 248.029 116.429L245.352 113.826C245.274 113.751 245.219 113.655 245.193 113.55C245.167 113.445 245.171 113.334 245.205 113.231C245.239 113.129 245.302 113.037 245.385 112.968C245.468 112.899 245.57 112.855 245.677 112.841L249.395 112.302C249.487 112.287 249.575 112.251 249.651 112.196C249.727 112.141 249.789 112.069 249.832 111.986L251.486 108.64C251.54 108.552 251.615 108.481 251.705 108.433C251.795 108.384 251.897 108.361 251.999 108.365C252.101 108.368 252.2 108.399 252.287 108.454C252.373 108.509 252.443 108.586 252.49 108.677Z" fill="#E0E0E0"/>
<path d="M396.606 281.095L398.251 284.441C398.293 284.524 398.355 284.596 398.431 284.651C398.507 284.706 398.595 284.742 398.688 284.757L402.405 285.296C402.513 285.31 402.614 285.355 402.697 285.424C402.781 285.493 402.843 285.584 402.877 285.687C402.911 285.79 402.915 285.9 402.889 286.005C402.864 286.11 402.809 286.206 402.731 286.281L400.054 288.884C399.988 288.95 399.939 289.031 399.912 289.12C399.884 289.209 399.879 289.304 399.896 289.395L400.519 293.113C400.536 293.219 400.524 293.327 400.483 293.427C400.442 293.526 400.374 293.611 400.287 293.674C400.201 293.737 400.098 293.774 399.991 293.782C399.884 293.789 399.777 293.767 399.682 293.717L396.373 291.951C396.291 291.906 396.198 291.882 396.104 291.882C396.009 291.882 395.917 291.906 395.834 291.951L392.534 293.68C392.439 293.733 392.331 293.757 392.223 293.751C392.114 293.744 392.01 293.707 391.921 293.644C391.833 293.581 391.764 293.494 391.723 293.394C391.682 293.293 391.67 293.183 391.689 293.076L392.321 289.358C392.338 289.266 392.332 289.17 392.303 289.081C392.273 288.991 392.222 288.911 392.153 288.847L389.486 286.244C389.408 286.169 389.353 286.074 389.327 285.97C389.3 285.865 389.304 285.756 389.337 285.653C389.37 285.551 389.431 285.459 389.513 285.39C389.595 285.32 389.695 285.275 389.802 285.259L393.52 284.72C393.613 284.707 393.701 284.671 393.777 284.616C393.853 284.561 393.915 284.488 393.957 284.404L395.611 281.058C395.667 280.975 395.742 280.908 395.831 280.863C395.92 280.818 396.019 280.796 396.119 280.8C396.218 280.803 396.315 280.832 396.4 280.884C396.486 280.936 396.556 281.008 396.606 281.095Z" fill="#DBF4FF"/>
<path d="M358.441 265.703L361.164 271.215C361.23 271.356 361.33 271.478 361.455 271.571C361.58 271.663 361.726 271.723 361.88 271.744L367.968 272.627C368.15 272.643 368.323 272.712 368.466 272.826C368.608 272.939 368.715 273.092 368.771 273.265C368.828 273.439 368.832 273.625 368.783 273.801C368.735 273.977 368.636 274.134 368.498 274.254L364.092 278.548C363.98 278.655 363.897 278.789 363.85 278.937C363.803 279.085 363.794 279.242 363.823 279.394L364.864 285.454C364.907 285.633 364.896 285.82 364.833 285.992C364.77 286.164 364.657 286.314 364.509 286.422C364.361 286.531 364.184 286.593 364.001 286.601C363.817 286.609 363.636 286.562 363.479 286.467L358.032 283.604C357.891 283.523 357.731 283.48 357.567 283.48C357.404 283.48 357.244 283.523 357.103 283.604L351.656 286.467C351.499 286.562 351.317 286.609 351.134 286.601C350.951 286.593 350.774 286.531 350.626 286.422C350.478 286.314 350.365 286.164 350.302 285.992C350.239 285.82 350.228 285.633 350.271 285.454L351.312 279.394C351.34 279.241 351.329 279.083 351.28 278.935C351.232 278.788 351.147 278.655 351.033 278.548L346.637 274.254C346.5 274.135 346.4 273.978 346.351 273.803C346.303 273.628 346.306 273.442 346.361 273.269C346.417 273.096 346.522 272.943 346.663 272.829C346.805 272.715 346.976 272.645 347.157 272.627L353.245 271.744C353.401 271.724 353.549 271.665 353.676 271.573C353.803 271.48 353.904 271.357 353.97 271.215L356.694 265.703C356.759 265.523 356.878 265.368 357.034 265.259C357.19 265.149 357.377 265.09 357.567 265.09C357.758 265.09 357.945 265.149 358.101 265.259C358.257 265.368 358.376 265.523 358.441 265.703Z" fill="#DBF4FF"/>
<path d="M80.8711 333.099L82.8416 337.087C82.8896 337.186 82.9614 337.272 83.0506 337.337C83.1398 337.402 83.2436 337.443 83.3529 337.458L87.7493 338.1C87.8759 338.119 87.9947 338.172 88.0924 338.255C88.1902 338.337 88.2629 338.446 88.3025 338.567C88.3421 338.689 88.347 338.819 88.3166 338.944C88.2862 339.068 88.2217 339.181 88.1304 339.271L84.998 342.366C84.9192 342.446 84.8604 342.543 84.8265 342.649C84.7926 342.756 84.7844 342.869 84.8028 342.98L85.5464 347.357C85.5676 347.483 85.5533 347.613 85.5051 347.731C85.4569 347.85 85.3766 347.952 85.2733 348.027C85.17 348.103 85.0478 348.148 84.9204 348.157C84.793 348.167 84.6654 348.141 84.5519 348.082L80.6202 346.019C80.5221 345.964 80.4117 345.936 80.2995 345.936C80.1873 345.936 80.0769 345.964 79.9788 346.019L76.0564 348.082C75.9424 348.14 75.8146 348.165 75.6872 348.155C75.5598 348.145 75.4376 348.1 75.334 348.025C75.2303 347.95 75.1493 347.849 75.0997 347.731C75.05 347.613 75.0338 347.484 75.0526 347.357L75.8055 342.98C75.8239 342.869 75.8158 342.756 75.7818 342.649C75.7479 342.543 75.6891 342.446 75.6103 342.366L72.4315 339.271C72.3402 339.181 72.2757 339.068 72.2453 338.944C72.2149 338.819 72.2198 338.689 72.2593 338.567C72.2989 338.446 72.3717 338.337 72.4694 338.255C72.5672 338.172 72.686 338.119 72.8126 338.1L77.1997 337.458C77.3098 337.443 77.4146 337.4 77.5051 337.336C77.5957 337.271 77.6694 337.186 77.7202 337.087L79.6814 333.099C79.7419 332.995 79.8287 332.909 79.9331 332.848C80.0375 332.788 80.1558 332.757 80.2763 332.757C80.3967 332.757 80.5151 332.788 80.6195 332.848C80.7239 332.909 80.8107 332.995 80.8711 333.099Z" fill="#DBF4FF"/>
<path d="M174.665 112.419L163.994 112.526L164.525 165.618L175.195 165.511L174.665 112.419Z" fill="#E0E0E0"/>
<path d="M98.961 113.344L71.328 113.493L71.4866 142.799L99.1195 142.65L98.961 113.344Z" fill="#EBEBEB"/>
<path d="M126.695 112.63L99.0612 112.906L99.3542 142.213L126.988 141.936L126.695 112.63Z" fill="#F5F5F5"/>
<path d="M71.3625 121.634C89.729 121.795 108.105 121.711 126.49 121.383C126.559 121.37 126.621 121.334 126.666 121.281C126.71 121.227 126.735 121.16 126.735 121.09C126.735 121.02 126.71 120.953 126.666 120.899C126.621 120.845 126.559 120.809 126.49 120.797C108.123 120.698 89.7476 120.81 71.3625 121.132C71.296 121.132 71.2321 121.158 71.1851 121.205C71.138 121.252 71.1116 121.316 71.1116 121.383C71.1116 121.449 71.138 121.513 71.1851 121.56C71.2321 121.607 71.296 121.634 71.3625 121.634Z" fill="#E0E0E0"/>
<path d="M104.304 142.166L54.1033 142.437L54.2325 166.325L104.433 166.053L104.304 142.166Z" fill="#EBEBEB"/>
<path d="M154.261 141.895L104.061 142.167L104.19 166.054L154.39 165.783L154.261 141.895Z" fill="#F5F5F5"/>
<path d="M54.1301 149.081C87.4798 149.453 120.941 149.081 154.291 148.579C154.359 148.567 154.422 148.531 154.466 148.477C154.511 148.424 154.536 148.356 154.536 148.286C154.536 148.217 154.511 148.149 154.466 148.096C154.422 148.042 154.359 148.006 154.291 147.994C120.941 147.817 87.4798 147.836 54.1394 148.579C54.0728 148.579 54.009 148.606 53.9619 148.653C53.9149 148.7 53.8884 148.764 53.8884 148.83C53.8884 148.897 53.9149 148.961 53.9619 149.008C54.009 149.055 54.0728 149.081 54.1394 149.081H54.1301Z" fill="#E0E0E0"/>
<path d="M229.839 166.323H35.3639V174.883H229.839V166.323Z" fill="#E0E0E0"/>
<path d="M75.099 170.441H67.2078V199.635H75.099V170.441Z" fill="#E0E0E0"/>
<path d="M192.948 170.441H185.056V199.635H192.948V170.441Z" fill="#E0E0E0"/>
<path d="M184.988 92.5724L174.318 92.6791L175.048 165.699L185.718 165.592L184.988 92.5724Z" fill="#EBEBEB"/>
<path d="M201.511 106.998L184.93 107.088L185.25 166.258L201.832 166.168L201.511 106.998Z" fill="#F5F5F5"/>
<path d="M201.387 118.399C201.387 118.566 197.669 118.687 193.106 118.687C188.542 118.687 184.815 118.566 184.815 118.399C184.815 118.232 188.533 118.12 193.106 118.12C197.679 118.12 201.387 118.241 201.387 118.399Z" fill="#E0E0E0"/>
<path d="M201.387 115.917C201.387 116.075 197.669 116.205 193.106 116.205C188.542 116.205 184.815 116.075 184.815 115.917C184.815 115.759 188.533 115.629 193.106 115.629C197.679 115.629 201.387 115.759 201.387 115.917Z" fill="#E0E0E0"/>
<path d="M201.387 157.27C201.387 157.428 197.669 157.558 193.106 157.558C188.542 157.558 184.815 157.428 184.815 157.27C184.815 157.112 188.533 156.982 193.106 156.982C197.679 156.982 201.387 157.112 201.387 157.27Z" fill="#E0E0E0"/>
<path d="M201.387 154.788C201.387 154.946 197.669 155.076 193.106 155.076C188.542 155.076 184.815 154.946 184.815 154.788C184.815 154.63 188.533 154.5 193.106 154.5C197.679 154.5 201.387 154.63 201.387 154.788Z" fill="#E0E0E0"/>
<path d="M193.366 149.36C193.208 149.36 193.078 143.393 193.078 136.031C193.078 128.67 193.208 122.693 193.366 122.693C193.524 122.693 193.654 128.67 193.654 136.031C193.654 143.393 193.524 149.36 193.366 149.36Z" fill="#E0E0E0"/>
<path d="M219.614 121.541H201.573V166.202H219.614V121.541Z" fill="#EBEBEB"/>
<path d="M182.407 105.879C182.407 106.486 182.227 107.079 181.89 107.583C181.553 108.087 181.074 108.481 180.514 108.713C179.953 108.945 179.337 109.006 178.742 108.887C178.147 108.769 177.6 108.477 177.171 108.048C176.742 107.619 176.45 107.072 176.332 106.477C176.213 105.882 176.274 105.266 176.506 104.705C176.738 104.145 177.131 103.666 177.636 103.329C178.14 102.992 178.733 102.812 179.34 102.812C180.153 102.812 180.934 103.135 181.509 103.71C182.084 104.285 182.407 105.065 182.407 105.879Z" fill="#E0E0E0"/>
<path d="M180.297 114.319H178.401V157.753H180.297V114.319Z" fill="#E0E0E0"/>
<path d="M433.785 129.729H302.598V247.095H433.785V129.729Z" fill="#FAFAFA"/>
<path d="M433.785 247.113C433.785 247.113 433.785 246.36 433.785 244.929C433.785 243.498 433.785 241.388 433.785 238.646C433.785 233.134 433.738 225.075 433.701 214.814C433.701 194.31 433.617 165.012 433.552 129.739L433.85 130.036L302.673 130.092L303.026 129.739C303.026 172.439 303.026 212.62 302.979 247.113L302.673 246.797L397.554 246.955L424.323 247.039H431.405H433.264C433.682 247.039 433.896 247.039 433.896 247.039H433.301H431.507H424.481L397.795 247.122L302.71 247.28H302.403V247.113C302.403 212.62 302.403 172.439 302.403 129.739V129.395H302.765H433.943H434.24V129.692C434.175 165.012 434.129 194.412 434.091 214.963C434.091 225.187 434.026 233.227 434.008 238.72C434.008 241.434 434.008 243.525 434.008 244.947C434.008 246.37 433.785 247.113 433.785 247.113Z" fill="#E0E0E0"/>
<path d="M352.901 150.578C352.901 150.773 345.995 150.931 337.481 150.931C328.967 150.931 322.052 150.773 322.052 150.578C322.052 150.382 328.958 150.224 337.481 150.224C346.005 150.224 352.901 150.382 352.901 150.578Z" fill="#E0E0E0"/>
<path d="M408.456 159.389C408.456 159.584 389.486 159.742 366.091 159.742C342.696 159.742 323.725 159.584 323.725 159.389C323.725 159.194 342.686 159.036 366.091 159.036C389.495 159.036 408.456 159.194 408.456 159.389Z" fill="#E0E0E0"/>
<path d="M327.815 174.316H322.284V179.847H327.815V174.316Z" fill="#E0E0E0"/>
<path d="M341.423 174.316H335.892V179.847H341.423V174.316Z" fill="#E0E0E0"/>
<path d="M355.281 174.065H349.75V179.596H355.281V174.065Z" fill="#E0E0E0"/>
<path d="M368.628 174.316H363.098V179.847H368.628V174.316Z" fill="#E0E0E0"/>
<path d="M382.236 174.316H376.705V179.847H382.236V174.316Z" fill="#E0E0E0"/>
<path d="M395.843 174.316H390.313V179.847H395.843V174.316Z" fill="#E0E0E0"/>
<path d="M409.442 174.316H403.911V179.847H409.442V174.316Z" fill="#EBEBEB"/>
<path d="M327.815 186.065H322.284V191.595H327.815V186.065Z" fill="#EBEBEB"/>
<path d="M341.423 186.065H335.892V191.595H341.423V186.065Z" fill="#E0E0E0"/>
<path d="M355.03 186.065H349.5V191.595H355.03V186.065Z" fill="#EBEBEB"/>
<path d="M368.628 186.065H363.098V191.595H368.628V186.065Z" fill="#E0E0E0"/>
<path d="M382.236 186.065H376.705V191.595H382.236V186.065Z" fill="#E0E0E0"/>
<path d="M396.094 185.814H390.564V191.344H396.094V185.814Z" fill="#E0E0E0"/>
<path d="M409.442 186.065H403.911V191.595H409.442V186.065Z" fill="#E0E0E0"/>
<path d="M327.815 197.823H322.284V203.353H327.815V197.823Z" fill="#E0E0E0"/>
<path d="M341.673 197.572H336.143V203.102H341.673V197.572Z" fill="#E0E0E0"/>
<path d="M355.03 197.823H349.5V203.353H355.03V197.823Z" fill="#E0E0E0"/>
<path d="M368.628 197.823H363.098V203.353H368.628V197.823Z" fill="#EBEBEB"/>
<path d="M382.236 197.823H376.705V203.353H382.236V197.823Z" fill="#E0E0E0"/>
<path d="M395.843 197.823H390.313V203.353H395.843V197.823Z" fill="#E0E0E0"/>
<path d="M409.442 197.823H403.911V203.353H409.442V197.823Z" fill="#E0E0E0"/>
<path d="M327.815 209.572H322.284V215.102H327.815V209.572Z" fill="#E0E0E0"/>
<path d="M341.423 209.572H335.892V215.102H341.423V209.572Z" fill="#E0E0E0"/>
<path d="M355.03 209.572H349.5V215.102H355.03V209.572Z" fill="#E0E0E0"/>
<path d="M368.879 209.321H363.349V214.851H368.879V209.321Z" fill="#E0E0E0"/>
<path d="M382.236 209.572H376.705V215.102H382.236V209.572Z" fill="#E0E0E0"/>
<path d="M395.843 209.572H390.313V215.102H395.843V209.572Z" fill="#EBEBEB"/>
<path d="M409.442 209.572H403.911V215.102H409.442V209.572Z" fill="#E0E0E0"/>
<path d="M327.815 221.32H322.284V226.851H327.815V221.32Z" fill="#E0E0E0"/>
<path d="M341.423 221.32H335.892V226.851H341.423V221.32Z" fill="#EBEBEB"/>
<path d="M355.03 221.32H349.5V226.851H355.03V221.32Z" fill="#E0E0E0"/>
<path d="M368.628 221.32H363.098V226.851H368.628V221.32Z" fill="#E0E0E0"/>
<path d="M382.236 221.32H376.705V226.851H382.236V221.32Z" fill="#E0E0E0"/>
<path d="M396.094 221.069H390.564V226.6H396.094V221.069Z" fill="#E0E0E0"/>
<path d="M409.442 221.32H403.911V226.851H409.442V221.32Z" fill="#E0E0E0"/>
<path d="M52.6614 429.235V463.412H46.9637V467.13H52.6614V490.004H159.356V469.184H151.456V464.611H159.356V457.817H162.86V454.759H158.696V429.235H52.6614Z" fill="#9A9999"/>
<path d="M131.007 429.337V489.614H159.328V468.803H151.428V464.648L159.328 464.797V457.993L162.907 458.002L162.842 454.48L158.668 454.378V429.244L131.007 429.337Z" fill="#E0E0E0"/>
<path d="M133.015 466.628C133.015 466.842 113.719 467.009 89.915 467.009C66.111 467.009 46.8058 466.842 46.8058 466.628C46.8058 466.414 66.1018 466.256 89.915 466.256C113.728 466.256 133.015 466.47 133.015 466.628Z" fill="#E0E0E0"/>
<path d="M133.015 463.161C133.015 463.366 113.719 463.542 89.915 463.542C66.111 463.542 46.8058 463.366 46.8058 463.161C46.8058 462.957 66.1018 462.752 89.915 462.752C113.728 462.752 133.015 462.947 133.015 463.161Z" fill="#E0E0E0"/>
<path d="M138.555 453.82C138.555 454.024 119.259 454.201 95.4547 454.201C71.6507 454.201 52.3455 454.024 52.3455 453.82C52.3455 453.615 71.6414 453.457 95.4547 453.457C119.268 453.457 138.555 453.606 138.555 453.82Z" fill="#E0E0E0"/>
<path d="M139.084 479.278C139.084 479.483 119.788 479.659 95.9844 479.659C72.1805 479.659 52.8752 479.483 52.8752 479.278C52.8752 479.074 72.1712 478.897 95.9844 478.897C119.798 478.897 139.084 479.064 139.084 479.278Z" fill="#E0E0E0"/>
<path d="M66.5015 372.295V404.688H61.1012V408.201H66.5015V429.876H167.591V410.153H160.1V405.859H167.591V399.408H170.919V396.48H166.969V372.314L66.5015 372.295Z" fill="#9A9999"/>
<path d="M140.748 372.388V429.523H167.591V409.79H160.109V405.859L167.591 405.989V399.548H170.984L170.919 396.22L166.969 396.127V372.295L140.748 372.388Z" fill="#E0E0E0"/>
<path d="M142.626 407.736C142.626 407.931 124.343 408.089 101.784 408.089C79.2259 408.089 60.8873 407.931 60.8873 407.736C60.8873 407.541 79.1795 407.374 101.784 407.374C124.389 407.374 142.626 407.532 142.626 407.736Z" fill="#E0E0E0"/>
<path d="M142.626 404.446C142.626 404.641 124.343 404.799 101.784 404.799C79.2259 404.799 60.8873 404.641 60.8873 404.446C60.8873 404.251 79.1795 404.083 101.784 404.083C124.389 404.083 142.626 404.251 142.626 404.446Z" fill="#E0E0E0"/>
<path d="M147.905 395.588C147.905 395.792 129.613 395.951 107.055 395.951C84.4961 395.951 66.204 395.792 66.204 395.588C66.204 395.383 84.4868 395.235 107.101 395.235C129.715 395.235 147.905 395.393 147.905 395.588Z" fill="#E0E0E0"/>
<path d="M148.407 419.717C148.407 419.912 130.115 420.08 107.556 420.08C84.9981 420.08 66.7059 419.912 66.7059 419.717C66.7059 419.522 84.9981 419.364 107.603 419.364C130.208 419.364 148.407 419.522 148.407 419.717Z" fill="#E0E0E0"/>
<path d="M374.902 386.405C369.372 383.551 362.866 383.179 356.731 384.193C353.431 384.741 349.992 385.726 347.743 388.208C345.494 390.69 345.075 395.04 347.659 397.168C349.193 398.432 351.377 398.627 353.32 398.609C358.125 398.553 363.451 397.679 367.262 400.598C369.456 402.243 370.915 404.985 373.527 405.794C376.139 406.602 378.983 405.078 380.34 402.764C381.587 400.356 381.863 397.561 381.111 394.956C380.803 393.149 380.082 391.438 379.006 389.955C377.929 388.472 376.525 387.257 374.902 386.405Z" fill="#5E9D78"/>
<path d="M387.571 361.95C384.188 366.783 377.616 365.185 374.558 362.238C371.5 359.292 370.227 355.016 369.056 350.945C366.379 341.65 363.674 331.872 365.673 322.392C366.155 319.52 367.416 316.836 369.316 314.63C370.282 313.546 371.516 312.734 372.894 312.276C374.273 311.817 375.747 311.729 377.17 312.019C380.479 312.892 382.543 316.146 384.03 319.231C388.427 328.339 390.739 338.313 390.796 348.426C390.796 353.129 390.257 358.056 387.608 361.941" fill="#73BA8F"/>
<path d="M396.857 368.875C393.185 364.516 392.488 358.158 394.115 352.702C395.741 347.246 399.44 342.608 403.697 338.816C408.703 334.361 414.528 330.923 420.846 328.693C423.291 327.708 425.919 327.261 428.552 327.383C429.874 327.455 431.159 327.851 432.293 328.535C433.427 329.218 434.377 330.17 435.058 331.305C436.861 334.744 435.132 338.918 433.255 342.32C429.96 348.329 426.193 354.066 421.99 359.478C418.616 363.828 414.749 368.122 409.609 370.083C404.469 372.044 399.115 371.821 396.392 368.224" fill="#8BD6A9"/>
<path d="M387.794 434.784C387.624 434.064 387.525 433.33 387.497 432.591C387.339 431.001 387.144 428.993 386.911 426.605C386.611 423.656 386.161 420.724 385.563 417.821C384.776 414.287 383.707 410.821 382.366 407.457C381.058 404.096 379.277 400.938 377.077 398.079C375.291 395.744 373.004 393.838 370.385 392.502C368.613 391.62 366.711 391.027 364.752 390.745C364.016 390.71 363.284 390.604 362.568 390.429C363.306 390.347 364.051 390.347 364.79 390.429C366.824 390.583 368.814 391.102 370.664 391.963C373.419 393.25 375.837 395.159 377.728 397.54C380.018 400.443 381.866 403.669 383.212 407.114C384.568 410.526 385.629 414.05 386.381 417.645C386.947 420.584 387.335 423.554 387.543 426.54C387.738 429.086 387.813 431.141 387.841 432.563C387.912 433.302 387.896 434.048 387.794 434.784Z" fill="#5B755F"/>
<path d="M387.385 430.22C387.331 429.883 387.312 429.54 387.329 429.198C387.329 428.436 387.329 427.469 387.329 426.289C387.329 423.761 387.329 420.108 387.199 415.59C386.976 406.565 386.195 396.843 384.69 383.142C383.268 370.26 381.362 355.258 379.345 345.517C378.918 343.305 378.481 341.306 378.072 339.559C377.663 337.812 377.347 336.297 377.021 335.079C376.696 333.861 376.529 332.997 376.343 332.291C376.25 331.963 376.191 331.626 376.166 331.287C376.318 331.582 376.437 331.894 376.52 332.216L377.365 335.005C377.737 336.222 378.128 337.719 378.564 339.466C379.001 341.214 379.494 343.184 379.977 345.406C382.457 356.935 384.318 368.589 385.554 380.317C387.06 394.045 387.738 406.547 387.794 415.637C387.85 420.163 387.794 423.826 387.636 426.354C387.571 427.534 387.506 428.501 387.46 429.263C387.47 429.584 387.445 429.905 387.385 430.22Z" fill="#5B755F"/>
<path d="M387.329 406.054C387.246 405.043 387.246 404.026 387.329 403.015C387.441 401.053 387.71 398.228 388.259 394.77C388.936 390.739 389.836 386.749 390.954 382.817C392.264 377.959 393.942 373.208 395.973 368.605C400.138 358.734 405.798 350.657 410.715 345.656C411.805 344.51 412.966 343.432 414.191 342.431C414.721 341.985 415.186 341.502 415.669 341.176L417.017 340.247C417.825 339.635 418.679 339.088 419.573 338.611C419.722 338.806 415.948 341.028 411.208 346.047C405.154 352.8 400.294 360.536 396.838 368.921C394.82 373.499 393.112 378.206 391.726 383.012C390.597 386.925 389.666 390.893 388.937 394.9C388.305 398.33 387.943 401.118 387.729 403.061C387.664 404.067 387.531 405.067 387.329 406.054Z" fill="#5B755F"/>
<path d="M410.631 448.605L408.215 481.704H365.7L363.284 448.605H410.631Z" fill="#934949"/>
<path d="M414.74 435.556H358.209V448.605H414.74V435.556Z" fill="#B96565"/>
<path d="M414.74 480.44V484.056H412.081H359.138V480.44H414.74Z" fill="#EBEBEB"/>
<path d="M409.479 490.423L412.081 484.056H361.165L364.204 490.423H409.479Z" fill="#E0E0E0"/>
<path d="M364.064 459.415C364.115 459.526 364.181 459.629 364.26 459.722C364.436 459.945 364.641 460.224 364.901 460.568L367.373 463.737L367.485 463.877L367.596 463.728L373.675 455.316H373.331L379.317 463.793L379.512 464.063L379.717 463.812L386.827 455.363H386.418L386.809 455.855L393.157 463.821L393.371 464.081L393.566 463.812L399.561 455.326H399.208L406.597 463.737L406.728 463.886L406.83 463.719L409.135 459.834L409.73 458.802C409.804 458.684 409.866 458.56 409.916 458.43C409.916 458.43 409.813 458.532 409.665 458.755L409.005 459.75L406.597 463.579H406.83L399.571 455.065L399.385 454.842L399.217 455.075L393.166 463.524H393.585L387.246 455.539L386.855 455.047L386.651 454.796L386.446 455.047L379.364 463.514H379.754L373.703 455.075L373.527 454.824L373.359 455.075L367.401 463.579H367.559L364.985 460.484L364.297 459.685L364.064 459.415Z" fill="#381717"/>
<path d="M362.689 448.382C362.689 448.531 373.341 448.652 386.474 448.652C399.608 448.652 410.278 448.531 410.278 448.382C410.278 448.234 399.626 448.122 386.474 448.122C373.322 448.122 362.689 448.234 362.689 448.382Z" fill="#381717"/>
<path d="M360.532 484.409C360.532 484.558 372.114 484.669 386.4 484.669C400.686 484.669 412.258 484.558 412.258 484.409C412.258 484.26 400.686 484.139 386.4 484.139C372.114 484.139 360.532 484.26 360.532 484.409Z" fill="#F5F5F5"/>
<path d="M424.062 490.265C424.062 490.395 341.636 490.506 239.97 490.506C138.304 490.506 55.8682 490.395 55.8682 490.265C55.8682 490.135 138.276 490.023 239.97 490.023C341.664 490.023 424.062 490.125 424.062 490.265Z" fill="#263238"/>
<path d="M256.226 144.768C256.617 137.779 260.874 133.484 266.934 129.897C269.969 128.134 273.385 127.129 276.891 126.968C280.397 126.806 283.891 127.492 287.076 128.967C291.296 130.984 294.995 134.414 299.633 135.018C307.283 136.003 314.505 128.921 322.015 130.687C324.276 131.199 326.286 132.485 327.699 134.323C329.111 136.161 329.837 138.435 329.75 140.751C329.663 143.067 328.768 145.28 327.222 147.007C325.675 148.734 323.573 149.865 321.281 150.206C326.291 150.931 329.116 157.261 327.266 161.964C325.417 166.667 320.165 169.4 315.109 169.511C310.053 169.623 305.201 167.559 300.823 165.022C296.445 162.484 292.365 159.445 287.81 157.251C283.256 155.058 278.004 153.794 273.115 155.086C266.497 156.852 261.813 163.098 260.102 169.725C258.392 176.352 259.126 183.342 260.149 190.108C261.171 196.875 262.482 203.707 261.841 210.557C261.864 210.956 261.792 211.354 261.63 211.72C261.469 212.085 261.222 212.407 260.911 212.657C259.889 213.224 258.727 212.258 257.983 211.375C249.508 201.317 243.091 189.692 239.096 177.161C236.791 169.911 235.518 162.847 238.288 155.783C241.057 148.719 250.371 141.943 256.273 144.824" fill="#263238"/>
<path d="M249.785 178.518L260.939 247.522C263.03 260.405 271.395 272.86 291.612 268.631C308.881 263.639 307.599 251.212 305.349 235.894C305.349 235.894 324.339 230.959 322.638 211.644C321.82 202.303 318.557 183.212 315.406 165.979C313.771 157.053 308.835 149.069 301.581 143.617C294.327 138.164 285.286 135.642 276.257 136.552L274.398 136.738C254.479 139.935 246.039 158.664 249.785 178.518Z" fill="#FFBF9D"/>
<path d="M305.387 235.894C305.387 235.894 293.303 237.837 279.519 230.996C279.519 230.996 287.094 245.347 306.167 241.676L305.387 235.894Z" fill="#FF9A6C"/>
<path d="M308.9 185.303C308.975 186.019 308.77 186.736 308.328 187.304C307.886 187.872 307.242 188.248 306.53 188.352C306.181 188.415 305.824 188.409 305.478 188.332C305.132 188.255 304.805 188.109 304.517 187.904C304.228 187.699 303.984 187.438 303.798 187.136C303.612 186.835 303.489 186.499 303.435 186.149C303.363 185.433 303.57 184.717 304.013 184.151C304.457 183.584 305.102 183.211 305.814 183.109C306.161 183.046 306.518 183.052 306.862 183.128C307.207 183.205 307.533 183.35 307.821 183.554C308.108 183.759 308.352 184.019 308.537 184.319C308.723 184.619 308.846 184.954 308.9 185.303Z" fill="#263238"/>
<path d="M312.255 175.869C311.949 176.259 309.709 174.939 306.744 175.227C303.779 175.515 301.752 177.235 301.399 176.91C301.222 176.761 301.501 176.082 302.384 175.292C303.579 174.274 305.059 173.65 306.623 173.508C308.159 173.335 309.71 173.661 311.047 174.437C312.032 175.069 312.404 175.692 312.255 175.869Z" fill="#263238"/>
<path d="M281.118 187.078C281.192 187.795 280.986 188.514 280.543 189.082C280.099 189.651 279.452 190.025 278.738 190.127C278.391 190.191 278.035 190.184 277.69 190.108C277.346 190.031 277.02 189.887 276.732 189.682C276.444 189.478 276.2 189.217 276.015 188.917C275.83 188.617 275.706 188.282 275.653 187.933C275.578 187.217 275.783 186.5 276.224 185.932C276.666 185.364 277.311 184.989 278.023 184.885C278.371 184.819 278.728 184.825 279.074 184.901C279.419 184.976 279.746 185.121 280.035 185.326C280.324 185.53 280.569 185.791 280.755 186.092C280.941 186.393 281.064 186.728 281.118 187.078Z" fill="#263238"/>
<path d="M283.172 179.345C282.865 179.745 280.616 178.415 277.651 178.713C274.686 179.01 272.669 180.721 272.306 180.386C272.139 180.247 272.418 179.559 273.301 178.778C274.491 177.758 275.969 177.134 277.53 176.993C279.069 176.826 280.621 177.152 281.964 177.923C282.977 178.555 283.321 179.168 283.172 179.345Z" fill="#263238"/>
<path d="M296.138 200.258C296.138 200.091 297.923 199.58 300.869 198.901C301.613 198.743 302.319 198.529 302.394 197.972C302.377 197.183 302.121 196.418 301.659 195.778C300.73 194.012 299.8 192.172 298.871 190.201C294.939 182.301 292.011 175.776 292.365 175.627C292.718 175.478 296.129 181.743 300.07 189.634L302.793 195.211C303.363 196.075 303.606 197.112 303.481 198.139C303.403 198.419 303.261 198.676 303.066 198.891C302.87 199.105 302.627 199.271 302.356 199.375C301.947 199.532 301.519 199.635 301.083 199.682C298.025 200.221 296.166 200.425 296.138 200.258Z" fill="#263238"/>
<path d="M282.763 167.652C282.549 168.489 279.556 168.405 276.117 169.176C272.678 169.948 269.964 171.175 269.434 170.496C269.193 170.171 269.602 169.362 270.661 168.47C272.078 167.359 273.729 166.586 275.49 166.211C277.251 165.835 279.074 165.867 280.82 166.304C282.15 166.685 282.856 167.262 282.763 167.652Z" fill="#263238"/>
<path d="M310.303 167.392C309.848 168.117 307.738 167.624 305.275 167.838C302.812 168.052 300.786 168.767 300.237 168.089C299.996 167.773 300.237 167.067 301.092 166.332C302.239 165.45 303.622 164.927 305.065 164.827C306.509 164.728 307.95 165.058 309.207 165.775C310.145 166.379 310.499 167.039 310.303 167.392Z" fill="#263238"/>
<path d="M252.797 192.646C252.453 192.544 239.143 190.062 240.89 203.205C242.637 216.347 255.474 211.886 255.446 211.514C255.418 211.142 252.797 192.646 252.797 192.646Z" fill="#FFBF9D"/>
<path d="M250.77 207.062C250.705 207.062 250.566 207.257 250.203 207.48C249.688 207.785 249.075 207.878 248.493 207.74C247.034 207.415 245.575 205.37 245.194 203.009C245.009 201.887 245.079 200.737 245.398 199.645C245.469 199.219 245.641 198.815 245.9 198.469C246.159 198.123 246.496 197.844 246.885 197.656C247.14 197.552 247.423 197.54 247.685 197.621C247.948 197.703 248.174 197.872 248.326 198.102C248.549 198.446 248.502 198.725 248.577 198.734C248.651 198.743 248.828 198.483 248.651 197.953C248.533 197.635 248.31 197.366 248.019 197.191C247.62 196.968 247.151 196.908 246.709 197.024C246.184 197.204 245.714 197.516 245.343 197.929C244.972 198.342 244.713 198.843 244.589 199.384C244.184 200.599 244.078 201.894 244.283 203.158C244.72 205.798 246.402 208.094 248.382 208.391C248.748 208.445 249.122 208.416 249.476 208.307C249.83 208.198 250.154 208.01 250.427 207.759C250.789 207.387 250.817 207.081 250.77 207.062Z" fill="#FF9A6C"/>
<path d="M313.873 147.994C311.772 144.369 308.407 141.645 304.838 139.47C297.118 134.675 288.083 132.434 279.017 133.066C269.919 133.771 261.45 137.984 255.399 144.815C250.774 150.415 247.897 157.251 247.127 164.473C246.377 171.663 247.063 178.929 249.144 185.851C250.018 188.891 251.179 192.032 253.587 194.086C255.093 195.378 257.528 196.076 258.968 194.719C259.721 193.818 260.152 192.693 260.195 191.521C261.71 181.092 263.114 169.892 258.401 160.467C260.479 156.833 263.286 153.669 266.646 151.172C268.328 149.939 270.239 149.052 272.267 148.564C274.295 148.076 276.4 147.996 278.46 148.328C284.529 149.546 288.684 154.9 293.815 158.413C297.482 160.91 301.689 162.501 306.09 163.055C310.492 163.609 314.962 163.111 319.134 161.601L313.873 147.994Z" fill="#263238"/>
<path d="M298.778 208.261C298.627 209.511 298.295 210.732 297.793 211.886C297.54 212.463 297.167 212.979 296.699 213.401C296.231 213.822 295.679 214.139 295.079 214.33C294.416 214.476 293.727 214.451 293.077 214.257C292.427 214.064 291.836 213.709 291.361 213.224C290.431 212.248 289.836 211.001 289.66 209.665C289.465 208.465 289.706 206.941 290.859 206.551C291.347 206.43 291.858 206.43 292.346 206.551L299.057 207.768" fill="#FF9A6C"/>
<path d="M297.347 213.866C297.272 213.68 296.027 214.516 293.963 214.154C292.794 213.954 291.739 213.332 290.998 212.406C290.568 211.839 290.262 211.188 290.102 210.494C289.942 209.8 289.931 209.08 290.069 208.382C290.141 208.022 290.257 207.673 290.413 207.341C290.608 207.034 290.561 207.053 290.84 207.043C291.119 207.034 291.547 207.164 291.909 207.22L293.015 207.424C294.447 207.685 295.739 207.898 296.835 208.066C299.02 208.4 300.377 208.531 300.414 208.373C300.451 208.215 299.131 207.815 296.993 207.285C295.915 207.015 294.642 206.718 293.21 206.356L292.123 206.114C291.718 206.019 291.308 205.945 290.896 205.891C290.571 205.859 290.245 205.935 289.967 206.105C289.721 206.283 289.523 206.52 289.39 206.792C289.188 207.209 289.038 207.649 288.944 208.103C288.773 208.961 288.794 209.846 289.006 210.695C289.218 211.543 289.616 212.334 290.171 213.011C291.099 214.089 292.415 214.757 293.833 214.87C294.759 214.966 295.694 214.809 296.538 214.414C297.133 214.191 297.384 213.922 297.347 213.866Z" fill="#263238"/>
<path d="M326.411 133.41C326.542 133.683 326.63 133.975 326.672 134.275C326.831 135.13 326.863 136.004 326.764 136.868C326.547 138.462 326.015 139.996 325.2 141.383C324.384 142.769 323.302 143.98 322.015 144.945C318.78 147.51 313.65 148.542 308.389 147.733C303.128 146.925 297.718 144.434 292.132 142.157C286.546 139.879 280.83 138.308 275.699 139.247C271.153 140.116 267.028 142.478 263.978 145.958C261.877 148.271 260.183 150.924 258.968 153.803C258.132 155.848 257.834 157.056 257.751 157.028C257.768 156.728 257.825 156.431 257.918 156.145C258.117 155.307 258.366 154.482 258.662 153.673C259.779 150.692 261.429 147.939 263.532 145.549C266.614 141.891 270.849 139.39 275.541 138.457C280.904 137.435 286.834 139.033 292.43 141.348C298.025 143.662 303.304 146.209 308.482 146.925C313.659 147.64 318.501 146.804 321.615 144.434C324.15 142.609 325.873 139.868 326.421 136.793C326.567 135.67 326.564 134.533 326.411 133.41Z" fill="#455A64"/>
<path d="M240.081 173.461C240.009 172.228 240.182 170.992 240.593 169.827C241.854 165.348 244.447 161.357 248.028 158.385C249.058 157.476 250.297 156.837 251.635 156.526C252.558 156.33 253.52 156.438 254.377 156.833C254.972 157.14 255.185 157.446 255.157 157.484C254.103 156.972 252.904 156.844 251.765 157.121C249.701 157.651 247.378 159.91 245.259 162.466C243.486 164.748 242.104 167.307 241.169 170.041C240.444 172.104 240.221 173.489 240.081 173.461Z" fill="#455A64"/>
<path d="M243.567 184.838C243.591 183.594 243.843 182.366 244.311 181.213C246.276 175.483 250.292 170.682 255.585 167.736C256.637 167.077 257.799 166.611 259.015 166.36C259.071 166.5 257.788 167.067 255.892 168.266C250.934 171.399 247.08 176.004 244.868 181.436C244.493 182.592 244.058 183.727 243.567 184.838Z" fill="#455A64"/>
<path d="M314.402 259.299C314.402 259.299 328.521 277.489 331.895 284.292C335.269 291.096 359.594 366.616 359.594 366.616L349.053 371.05L314.402 259.299Z" fill="#0F516A"/>
<path d="M257.676 242.28V233.162L308.909 249.818L322.628 271.791L333.206 302.473L303.555 257.904L257.676 242.28Z" fill="#EBEBEB"/>
<path d="M254.628 251.036C254.628 251.036 232.887 277.061 233.361 293.95C233.826 310.597 256.403 411.752 256.403 411.752L250.938 429.83L245.017 490.079H368.164L359.594 366.644C358.227 366.56 332.592 295.901 332.592 295.901L303.946 256.12L256.775 239.129L254.628 251.036Z" fill="#0F516A"/>
<path d="M348.468 337.273C348.468 337.273 357.084 336.929 361.583 338.936C366.081 340.944 369.883 339.94 373.071 346.168C376.259 352.395 379.968 355.202 380.749 364.636C381.529 374.071 371.342 395.923 364.613 399.027C357.883 402.132 348.468 337.273 348.468 337.273Z" fill="#0F516A"/>
<g opacity="0.3">
<path opacity="0.3" d="M252.137 336.39C252.137 336.39 302.487 383.644 308.891 388.161C315.295 392.679 316.243 421.27 324.134 421.809C332.025 422.348 357.595 403.442 357.595 403.442L281.852 332.086L252.137 336.39Z" fill="black"/>
</g>
<path d="M323.037 378.699C323.037 378.699 312.088 392.716 310.861 396.229C309.634 399.743 308.389 402.076 309.727 403.247C310.207 403.759 310.833 404.11 311.52 404.253C312.207 404.396 312.922 404.324 313.566 404.046C315.351 403.368 324.153 391.759 324.153 391.759C324.153 391.759 312.478 408.406 311.949 411.278C311.419 414.15 313.705 415.544 316.373 415.042C319.041 414.54 324.153 407.011 324.153 407.011C324.153 407.011 316.931 415.377 318.446 416.799C319.961 418.221 321.727 418.388 323.734 417.384C325.742 416.38 330.845 409.772 330.845 409.772C330.845 409.772 327.332 413.536 329.256 414.419C331.18 415.302 331.347 415.442 333.02 414.047C334.693 412.653 349.453 398.246 349.453 398.246L340.158 391.879L323.037 378.699Z" fill="#FFBF9D"/>
<path d="M327.527 387.26C327.015 388.087 326.44 388.873 325.807 389.611L321.541 395.188C319.859 397.354 318.288 399.287 317.107 400.635C316.505 401.403 315.83 402.109 315.09 402.745C315.619 401.931 316.203 401.155 316.838 400.421L321.16 394.891C322.833 392.725 324.376 390.783 325.538 389.416C326.134 388.638 326.8 387.917 327.527 387.26Z" fill="#FF9A6C"/>
<path d="M335.279 393.971C333.46 396.49 331.512 398.913 329.441 401.23C327.497 403.656 325.425 405.977 323.233 408.182C325.051 405.663 327 403.24 329.07 400.923C331.014 398.497 333.087 396.176 335.279 393.971Z" fill="#FF9A6C"/>
<path d="M341.534 398.181C339.62 400.635 337.579 402.987 335.418 405.227C333.368 407.576 331.197 409.816 328.912 411.938C330.829 409.487 332.874 407.138 335.037 404.901C338.504 401.1 341.404 398.098 341.534 398.181Z" fill="#FF9A6C"/>
<path d="M261.283 267.227C268.356 265.731 277.344 265.099 284.176 268.975L321.541 302.677C321.541 302.677 374.187 361.755 376.259 365.045C378.332 368.336 381.102 387.771 373.136 397.689C365.171 407.606 356.201 403.786 345.968 401.453C337.863 399.594 281.248 358.009 257.974 340.73C249.899 334.785 244.072 326.285 241.438 316.61C239.668 310.373 239.038 303.868 239.579 297.407" fill="#0F516A"/>
<path d="M239.542 297.398C239.542 297.398 239.542 297.723 239.487 298.327C239.431 298.932 239.384 299.926 239.375 301.172C239.369 304.828 239.737 308.475 240.472 312.056C240.972 314.648 241.656 317.201 242.517 319.696C243.565 322.651 244.93 325.484 246.588 328.145C248.496 331.198 250.768 334.007 253.354 336.51C256.059 339.224 259.424 341.502 262.835 344.058C276.545 354.161 292.894 366.161 311.317 379.118C315.918 382.352 320.658 385.624 325.547 388.942C330.436 392.26 335.446 395.569 340.735 398.637C342.051 399.411 343.41 400.109 344.806 400.728C345.512 401.013 346.243 401.231 346.99 401.379L349.267 401.936C352.282 402.769 355.355 403.374 358.46 403.749C361.597 404.136 364.777 403.559 367.578 402.094C370.356 400.501 372.677 398.219 374.317 395.467C377.003 390.82 378.035 385.42 378.174 380.187C378.271 377.573 378.162 374.957 377.849 372.36C377.688 371.071 377.474 369.798 377.207 368.54C376.982 367.294 376.559 366.092 375.953 364.98C374.428 362.973 372.709 361.03 371.073 359.106L366.128 353.39L356.406 342.375L321.374 302.808L284.064 269.058C281.107 267.468 277.848 266.518 274.5 266.27C272.062 266.062 269.61 266.084 267.176 266.335C265.205 266.521 263.727 266.772 262.733 266.939L261.608 267.143L261.227 267.208C261.227 267.208 261.729 267.088 262.714 266.883C263.699 266.679 265.196 266.418 267.166 266.214C269.605 265.941 272.063 265.9 274.509 266.093C277.893 266.324 281.189 267.275 284.176 268.882L321.587 302.529C332.063 314.277 343.895 327.625 356.675 342.059L366.388 353.129L371.342 358.846C372.988 360.788 374.67 362.675 376.269 364.766C376.443 365.052 376.601 365.346 376.743 365.649C376.863 365.956 376.956 366.272 377.068 366.579C377.282 367.202 377.421 367.843 377.588 368.438C377.861 369.721 378.075 371.013 378.23 372.314C378.551 374.934 378.663 377.576 378.564 380.214C378.378 385.494 377.393 390.959 374.642 395.727C372.954 398.548 370.57 400.888 367.717 402.522C364.834 404.039 361.555 404.639 358.32 404.241C355.18 403.854 352.073 403.232 349.026 402.382L346.767 401.825C345.993 401.674 345.237 401.447 344.508 401.146C343.09 400.526 341.712 399.818 340.381 399.027C335.065 395.95 330.064 392.595 325.166 389.305C320.268 386.014 315.546 382.705 310.936 379.471C292.532 366.458 276.201 354.449 262.51 344.309C259.108 341.762 255.734 339.457 253.01 336.715C250.423 334.172 248.148 331.33 246.235 328.247C244.58 325.56 243.218 322.702 242.173 319.724C241.328 317.214 240.657 314.649 240.165 312.046C239.502 308.474 239.209 304.842 239.291 301.209C239.301 299.935 239.385 298.662 239.542 297.398Z" fill="#263238"/>
<path d="M334.265 300.233C334.265 300.233 334.182 300.233 334.052 300.093L333.457 299.657C332.946 299.248 332.155 298.727 331.217 297.891C329.302 296.329 326.662 293.903 323.511 290.808C320.36 287.713 316.717 283.921 312.581 279.803C310.489 277.767 308.305 275.62 305.916 273.538C303.49 271.348 300.912 269.333 298.202 267.506C297.077 266.688 295.841 266.065 294.697 265.368L294.54 265.275V265.099C294.735 264.253 294.921 263.426 295.106 262.598L295.274 262.886L266.664 253.88L258.197 251.166L255.92 250.404L255.334 250.199C255.265 250.181 255.199 250.153 255.139 250.115L255.343 250.162L255.948 250.32L258.243 250.998L266.757 253.573L295.413 262.431L295.627 262.496V262.71C295.441 263.528 295.246 264.364 295.06 265.21L294.93 264.941C296.092 265.647 297.337 266.279 298.48 267.106C301.21 268.944 303.804 270.975 306.242 273.185C308.63 275.286 310.824 277.442 312.906 279.487C317.033 283.623 320.649 287.443 323.762 290.566C326.876 293.689 329.469 296.143 331.347 297.751C332.276 298.578 333.038 299.145 333.522 299.61L334.089 300.093L334.265 300.233Z" fill="#263238"/>
<path d="M352.753 338.276C352.352 337.687 352.001 337.065 351.702 336.417L349.007 331.073C346.758 326.556 343.69 320.291 340.335 313.357C336.979 306.423 333.959 300.131 331.802 295.567C330.752 293.327 329.943 291.486 329.274 290.148C328.995 289.544 328.781 289.051 328.605 288.67C328.522 288.5 328.454 288.322 328.4 288.14C328.522 288.287 328.622 288.449 328.698 288.624C328.884 289.005 329.135 289.479 329.441 290.074L332.109 295.418L340.772 313.106C344.09 320.021 347.101 326.277 349.314 330.878L351.87 336.287C352.465 337.57 352.79 338.314 352.753 338.276Z" fill="#263238"/>
<path d="M265.716 440.249C265.828 440.241 265.94 440.241 266.051 440.249L266.981 440.324L270.652 440.621L284.241 441.792L330.055 445.882L329.804 446.179C328.874 442.341 327.861 438.335 326.848 434.245L325.473 428.668L325.677 428.845L274.379 422.896L274.537 422.812C271.526 428.148 269.202 432.46 267.687 435.453C266.934 436.95 266.376 438.121 266.051 438.939C265.917 439.239 265.808 439.55 265.726 439.868C265.67 440.082 265.726 440.194 265.679 440.203C265.654 439.751 265.754 439.301 265.967 438.902C266.265 438.074 266.795 436.894 267.529 435.379C268.998 432.349 271.247 428.017 274.258 422.654V422.561H274.37L325.733 428.408H325.9V428.575C326.356 430.388 326.83 432.247 327.276 434.152L330.232 446.096L330.315 446.421H329.981L284.046 442.127L270.513 440.816L266.888 440.454L265.958 440.352L265.716 440.249Z" fill="#263238"/>
<g opacity="0.3">
<path opacity="0.3" d="M267.39 440.398L269.592 446.133L330.074 449.739V446.133L267.39 440.398Z" fill="black"/>
</g>
<path d="M184.22 152.176C184.034 148.942 181.348 146.228 178.262 145.252C175.176 144.276 171.755 144.778 168.725 145.791C162.024 148.022 156.391 152.576 150.926 157.037C142.44 163.971 134.195 173.48 130.951 183.946C128.516 191.828 127.81 196.959 130.31 205.324C132.532 212.76 134.288 219.926 133.842 226.126C133.154 235.932 131.983 238.209 129.446 247.857C127.866 253.88 133.229 269.616 133.229 269.616L167.145 256.603C179.228 250.915 205.319 240.291 205.319 240.291L184.22 152.176Z" fill="#263238"/>
<path d="M165.156 267.171C165.156 258.927 165.286 253.183 165.277 253.229C165.268 253.276 150.47 249.818 147.487 228.691C145.754 215.021 145.371 201.214 146.344 187.469C147.357 174.846 155.992 159.482 168.567 161.034L207.717 171.649C211.528 172.114 212.811 175.367 212.671 179.215L212.95 181.074L210.087 241.369L211.323 267.023C210.821 278.474 199.482 288.893 188.021 289.423C185.034 289.561 182.05 289.084 179.254 288.023C176.458 286.961 173.91 285.338 171.767 283.252C169.624 281.166 167.931 278.663 166.794 275.897C165.657 273.131 165.1 270.161 165.156 267.171Z" fill="#FFBF9D"/>
<path d="M155.22 204.292C155.2 205 155.456 205.687 155.936 206.208C156.415 206.729 157.079 207.042 157.785 207.081C158.126 207.107 158.467 207.067 158.792 206.961C159.116 206.855 159.416 206.687 159.675 206.465C159.934 206.243 160.147 205.972 160.301 205.668C160.455 205.364 160.548 205.032 160.574 204.692C160.597 203.985 160.342 203.298 159.864 202.776C159.387 202.255 158.724 201.942 158.018 201.903C157.677 201.875 157.334 201.915 157.009 202.02C156.683 202.125 156.382 202.294 156.122 202.516C155.862 202.738 155.649 203.009 155.494 203.314C155.339 203.619 155.246 203.951 155.22 204.292Z" fill="#263238"/>
<path d="M151.67 196.968C152.004 197.33 154.077 195.843 156.977 195.908C159.877 195.973 161.996 197.451 162.312 197.107C162.47 196.949 162.145 196.308 161.225 195.611C159.98 194.718 158.49 194.231 156.958 194.217C155.447 194.186 153.965 194.639 152.729 195.509C151.818 196.178 151.512 196.81 151.67 196.968Z" fill="#263238"/>
<path d="M182.435 203.967C182.41 204.674 182.664 205.363 183.142 205.885C183.62 206.406 184.284 206.719 184.991 206.755C185.332 206.783 185.674 206.743 185.999 206.638C186.324 206.533 186.624 206.364 186.884 206.142C187.143 205.92 187.356 205.649 187.509 205.344C187.663 205.039 187.755 204.707 187.78 204.366C187.803 203.66 187.548 202.972 187.07 202.451C186.592 201.93 185.93 201.617 185.224 201.578C184.883 201.55 184.541 201.59 184.216 201.695C183.891 201.8 183.591 201.969 183.331 202.191C183.072 202.413 182.859 202.684 182.706 202.989C182.552 203.294 182.46 203.626 182.435 203.967Z" fill="#263238"/>
<path d="M179.554 196.921C179.879 197.284 181.961 195.806 184.861 195.862C187.761 195.918 189.88 197.405 190.196 197.061C190.354 196.903 190.029 196.261 189.109 195.564C187.864 194.671 186.374 194.184 184.843 194.17C183.331 194.14 181.85 194.592 180.613 195.462C179.712 196.094 179.396 196.726 179.554 196.921Z" fill="#263238"/>
<path d="M167.88 218.876C167.88 218.708 166.095 218.364 163.176 217.946C162.433 217.862 161.736 217.704 161.615 217.193C161.564 216.425 161.749 215.66 162.145 215C162.882 213.215 163.647 211.356 164.441 209.423C167.629 201.429 169.952 194.849 169.627 194.719C169.302 194.588 166.457 200.974 163.269 208.967C162.507 210.947 161.773 212.825 161.067 214.619C160.59 215.509 160.439 216.538 160.639 217.528C160.742 217.791 160.903 218.028 161.111 218.219C161.318 218.411 161.567 218.553 161.838 218.634C162.246 218.754 162.668 218.82 163.093 218.829C166.039 218.996 167.87 219.043 167.88 218.876Z" fill="#263238"/>
<path d="M165.277 253.238C175.196 253.564 185.01 251.128 193.626 246.202C193.626 246.202 186.255 260.944 165.203 258.611L165.277 253.238Z" fill="#FF9A6C"/>
<path d="M178.615 186.604C178.959 187.376 181.831 186.799 185.261 186.985C188.691 187.171 191.507 187.915 191.916 187.162C192.093 186.809 191.563 186.102 190.401 185.414C188.856 184.577 187.14 184.104 185.385 184.03C183.629 183.956 181.88 184.283 180.27 184.987C179.061 185.582 178.466 186.242 178.615 186.604Z" fill="#263238"/>
<path d="M150.851 187.896C151.446 188.565 153.826 187.896 156.679 187.896C159.533 187.896 161.931 188.435 162.498 187.747C162.749 187.422 162.377 186.753 161.336 186.112C159.898 185.308 158.27 184.906 156.624 184.95C154.99 184.935 153.383 185.365 151.976 186.195C150.935 186.892 150.591 187.562 150.851 187.896Z" fill="#263238"/>
<path d="M168.567 226.042C169.19 225.145 170.042 224.432 171.034 223.977C172.027 223.523 173.124 223.343 174.209 223.458H174.414C175.004 223.457 175.581 223.629 176.075 223.952C176.569 224.276 176.958 224.736 177.194 225.277C177.43 225.818 177.503 226.416 177.403 226.997C177.304 227.579 177.037 228.119 176.635 228.552C175.909 229.399 174.933 229.994 173.847 230.252C173.164 230.471 172.442 230.543 171.729 230.463C171.016 230.383 170.328 230.153 169.711 229.788C169.106 229.401 168.659 228.812 168.45 228.125C168.24 227.439 168.282 226.7 168.567 226.042Z" fill="#FF9A6C"/>
<path d="M176.71 221.636C176.561 221.636 176.384 222.37 175.845 223.449C175.175 224.856 174.149 226.064 172.87 226.953C171.59 227.843 170.101 228.385 168.549 228.524C167.341 228.654 166.569 228.524 166.541 228.7C166.513 228.877 167.257 229.156 168.567 229.193C170.295 229.23 171.99 228.72 173.409 227.735C174.828 226.75 175.899 225.34 176.468 223.709C176.877 222.463 176.821 221.645 176.71 221.636Z" fill="#263238"/>
<path d="M145.823 211.793L141.455 194.133C137.532 188.723 140.599 179.903 143.379 173.824C146.158 167.745 151.456 163.098 157.321 159.956C163.186 156.814 169.729 155.039 176.217 153.45C173.539 161.645 168.021 168.614 160.658 173.099C160.658 173.099 149.894 180.451 147.952 189.114C145.86 198.585 145.823 211.793 145.823 211.793Z" fill="#263238"/>
<path d="M170.324 164.594L201.062 183.072C201.906 192.546 204.097 201.85 207.568 210.706C213.238 205.863 216.742 215.204 218.452 208.019C218.536 207.648 216.891 223.095 210.942 223.579L210.013 240.365L239.291 233.171C239.291 233.171 237.711 212.806 232.711 200.453C229.597 192.776 227.952 186.335 224.884 178.639C222.561 172.811 218.434 164.111 215.329 159.965C208.665 151.061 184.006 150.671 184.006 150.671C173.14 153.236 180.455 152.009 171.309 158.413L168.177 166.778" fill="#263238"/>
<path d="M207.605 210.594C207.605 206.151 212.327 202.926 216.37 204.933C218.583 206.03 220.358 208.391 220.423 213.104C220.6 225.661 207.689 223.253 207.689 222.947C207.689 222.64 207.624 215.79 207.605 210.594Z" fill="#B56760"/>
<path d="M211.528 218.086C211.584 218.039 211.751 218.234 212.132 218.392C212.666 218.606 213.262 218.606 213.796 218.392C215.144 217.89 216.25 215.762 216.287 213.503C216.306 212.425 216.077 211.356 215.618 210.38C215.493 209.985 215.273 209.627 214.976 209.338C214.679 209.05 214.315 208.839 213.917 208.726C213.661 208.661 213.391 208.687 213.152 208.799C212.913 208.911 212.72 209.101 212.606 209.339C212.439 209.692 212.532 209.943 212.457 209.962C212.383 209.981 212.178 209.757 212.281 209.237C212.347 208.924 212.521 208.644 212.773 208.447C213.123 208.179 213.562 208.056 214 208.103C214.523 208.198 215.013 208.423 215.426 208.758C215.839 209.093 216.16 209.526 216.361 210.018C216.918 211.097 217.199 212.298 217.179 213.513C217.133 216.041 215.841 218.429 214 218.978C213.659 219.083 213.298 219.111 212.944 219.06C212.591 219.008 212.253 218.879 211.955 218.68C211.556 218.383 211.481 218.104 211.528 218.086Z" fill="#8A4A43"/>
<path d="M184.973 150.624C184.838 150.9 184.663 151.154 184.452 151.377C184.071 151.823 183.523 152.464 182.751 153.236C181.255 154.742 179.108 156.712 176.738 158.878C174.367 161.044 172.211 163.014 170.696 164.455C169.181 165.895 168.27 166.853 168.214 166.806C168.367 166.535 168.554 166.285 168.772 166.063C169.144 165.607 169.701 164.975 170.454 164.204C171.914 162.679 174.023 160.662 176.403 158.497L182.51 152.92C184.062 151.554 184.917 150.587 184.973 150.624Z" fill="#455A64"/>
<path d="M150.786 161.276C151.019 160.919 151.294 160.591 151.604 160.3C152.397 159.466 153.248 158.689 154.151 157.976C157.154 155.596 160.611 153.854 164.31 152.855C166.36 152.225 168.548 152.199 170.612 152.78C171.46 153.021 172.247 153.44 172.92 154.009C173.593 154.578 174.137 155.284 174.516 156.08C175.002 157.171 175.065 158.403 174.693 159.538C174.594 159.838 174.453 160.123 174.274 160.384C174.132 160.557 174.058 160.641 174.051 160.635C174.233 160.262 174.388 159.877 174.516 159.482C174.8 158.392 174.691 157.237 174.209 156.22C173.83 155.496 173.305 154.857 172.669 154.344C172.033 153.831 171.298 153.454 170.51 153.236C168.524 152.71 166.43 152.755 164.468 153.366C160.833 154.355 157.417 156.024 154.402 158.283C152.051 159.984 150.852 161.341 150.786 161.276Z" fill="#455A64"/>
<path d="M143.75 173.907C143.988 173.571 144.259 173.259 144.559 172.978C145.098 172.42 145.888 171.621 146.892 170.664C149.49 168.117 152.39 165.898 155.527 164.055C157.254 163.029 159.138 162.294 161.104 161.88C162.757 161.546 164.475 161.806 165.956 162.614C166.949 163.164 167.733 164.027 168.186 165.068C168.3 165.349 168.378 165.642 168.419 165.942C168.419 166.146 168.419 166.258 168.419 166.258C168.419 166.258 168.335 165.83 168.01 165.142C167.508 164.191 166.73 163.413 165.779 162.912C164.344 162.185 162.702 161.978 161.132 162.326C159.21 162.746 157.368 163.471 155.676 164.473C152.573 166.305 149.678 168.468 147.041 170.924L144.605 173.117C144.349 173.41 144.062 173.675 143.75 173.907Z" fill="#455A64"/>
<path d="M217.337 224.118C217.368 224.987 217.14 225.847 216.682 226.587C216.224 227.327 215.557 227.914 214.766 228.275C213.974 228.635 213.093 228.753 212.234 228.612C211.375 228.472 210.578 228.08 209.942 227.486C209.306 226.892 208.861 226.122 208.663 225.275C208.464 224.428 208.522 223.541 208.828 222.727C209.134 221.912 209.675 221.207 210.383 220.7C211.09 220.193 211.932 219.908 212.801 219.879C213.964 219.842 215.095 220.267 215.945 221.061C216.795 221.856 217.296 222.955 217.337 224.118Z" fill="#455A64"/>
<path d="M136.816 349.672C135.766 350.378 124.176 353.185 121.359 360.556C118.543 367.927 103.643 382.928 114.435 397.558L136.816 385.141V349.672Z" fill="#7FCAEB"/>
<path d="M114.425 397.586C112.539 395.099 111.285 392.189 110.772 389.11C110.372 386.367 110.533 383.571 111.246 380.893C112.576 375.586 115.596 370.669 118.022 366.653C119.298 364.722 120.411 362.689 121.35 360.575C123.655 354.533 131.816 351.559 135.292 350.285C135.81 350.114 136.316 349.909 136.807 349.672V385.206L114.425 397.586ZM136.789 349.718C136.31 349.947 135.816 350.142 135.311 350.304C131.825 351.577 123.674 354.552 121.368 360.528C120.424 362.648 119.308 364.687 118.032 366.625C115.615 370.594 112.594 375.548 111.265 380.846C110.552 383.519 110.39 386.308 110.791 389.044C111.301 392.113 112.548 395.013 114.425 397.493L136.733 385.094L136.789 349.718Z" fill="#263238"/>
<path d="M162.637 288.54L164.468 263.24L210.533 244.018L212.169 253.462L180.79 269.43L162.637 288.54Z" fill="#E0E0E0"/>
<path d="M212.169 247.885C212.169 247.885 183.941 259.299 171.44 270.452C159.663 280.946 135.19 322.28 132.569 333.555C129.948 344.829 130.459 376.022 130.459 376.022C130.459 376.022 130.394 408.201 130.394 408.982C130.394 409.763 110.205 461.683 113.877 489.995H228.965C228.965 489.995 232.367 450.148 224.503 434.673C216.64 419.197 216.38 422.357 216.38 422.357C216.38 422.357 221.092 417.115 220.572 412.393C220.121 409.283 218.953 406.321 217.161 403.74L237.349 340.814C237.349 340.814 239.449 309.091 233.947 287.834C228.779 267.924 226.864 269.049 220.404 262.682C220.265 262.543 220.488 262.859 220.404 262.682L214.539 257.867L212.169 247.885Z" fill="#7FCAEB"/>
<path d="M136.816 440.249C136.454 438.892 145.535 422.775 145.535 422.775L197.586 431.512L201.211 446.133L136.816 440.249Z" fill="#7FCAEB"/>
<path d="M136.816 440.249C136.928 440.241 137.04 440.241 137.151 440.249L138.081 440.324L141.798 440.621L155.397 441.792L201.192 445.882L200.941 446.179C200.012 442.638 199.138 438.92 198.153 435.137L197.27 431.559L197.465 431.745L145.414 422.933L145.581 422.85C142.57 428.185 140.246 432.488 138.731 435.491C137.978 436.987 137.421 438.158 137.095 438.967C136.963 439.268 136.854 439.578 136.77 439.896C136.737 440.005 136.721 440.118 136.723 440.231C136.699 439.779 136.798 439.329 137.012 438.93C137.309 438.102 137.839 436.913 138.573 435.398C140.042 432.377 142.291 428.045 145.293 422.682L145.349 422.58H145.461L197.511 431.233H197.669V431.392C197.958 432.553 198.264 433.762 198.599 434.97C199.528 438.753 200.458 442.462 201.332 446.012L201.406 446.337H201.071L155.164 442.043L141.696 440.77L138.071 440.398L137.142 440.296L136.816 440.249Z" fill="#263238"/>
<g opacity="0.3">
<path opacity="0.3" d="M125.644 415.256L126.824 424.643C135.125 430.518 146.855 429.393 155.722 424.43C164.589 419.466 171.161 411.352 177.249 403.265C195.69 378.579 211.76 351.93 222.719 323.135C194.128 357.424 154.514 381.163 125.644 415.256Z" fill="black"/>
</g>
<path d="M218.573 274.524C228.231 282.21 236.652 306.265 221.696 327.058C221.696 327.058 156.354 415.702 145.535 422.794C134.716 429.886 120.142 425.712 115.978 415.302C111.814 404.892 113.487 394.909 119.314 387.836C125.142 380.763 163.427 313.339 163.427 313.339C163.427 313.339 172.165 282.08 187.036 273.008" fill="#7FCAEB"/>
<path d="M187.036 272.99L186.367 273.464C185.911 273.752 185.27 274.245 184.434 274.914C182.063 276.938 179.95 279.244 178.141 281.783C173.326 288.354 167.861 299.09 163.585 313.385C155.22 328.182 144.689 346.595 132.485 367.295C129.409 372.444 126.248 377.751 122.856 383.096C121.926 384.406 121.155 385.773 120.179 387.065C119.705 387.725 119.249 388.366 118.738 388.998C118.227 389.63 117.809 390.309 117.4 390.987C116.583 392.377 115.895 393.84 115.346 395.356C114.821 396.901 114.435 398.491 114.193 400.105C113.743 403.394 113.884 406.737 114.611 409.976C114.797 410.794 114.992 411.612 115.253 412.412C115.513 413.211 115.782 414.01 116.071 414.8C116.359 415.59 116.768 416.334 117.13 417.096L117.818 418.156C118.033 418.516 118.282 418.856 118.562 419.169C120.73 421.832 123.612 423.821 126.871 424.904C130.037 426.002 133.419 426.328 136.736 425.856C140.053 425.384 143.21 424.127 145.944 422.19C148.363 420.123 150.616 417.87 152.683 415.451C156.902 410.72 160.881 405.896 164.766 401.118C172.499 391.563 179.777 382.204 186.664 373.234C193.552 364.265 200.04 355.732 206.081 347.701L214.8 336.074L218.843 330.58C220.153 328.768 221.529 327.058 222.635 325.245C224.878 321.872 226.624 318.194 227.822 314.324C228.082 313.394 228.324 312.465 228.575 311.582C228.825 310.699 228.909 309.769 229.086 308.886C229.378 307.161 229.562 305.42 229.634 303.672C229.823 297.872 228.84 292.093 226.743 286.681C225.448 283.247 223.582 280.058 221.222 277.247C220.804 276.782 220.479 276.317 220.126 276.011L219.243 275.193L218.545 274.523C218.545 274.523 218.796 274.728 219.28 275.156L220.209 275.955C220.562 276.28 220.906 276.717 221.325 277.182C223.708 279.982 225.594 283.17 226.901 286.607C229.047 292.036 230.066 297.846 229.894 303.681C229.83 305.442 229.65 307.196 229.355 308.933C229.188 309.862 229.104 310.745 228.853 311.656L228.11 314.445C226.917 318.351 225.163 322.065 222.905 325.468C221.799 327.327 220.432 329.019 219.122 330.831L215.032 336.334L206.341 347.98C200.309 356.02 193.84 364.581 186.952 373.55C180.065 382.52 172.797 391.879 165.063 401.434C161.197 406.203 157.209 411.036 152.98 415.786C151.93 416.975 150.833 418.137 149.727 419.299C148.623 420.478 147.436 421.578 146.176 422.589C143.379 424.573 140.149 425.86 136.754 426.345C133.359 426.83 129.898 426.498 126.657 425.378C123.313 424.27 120.356 422.228 118.134 419.494C117.844 419.169 117.586 418.817 117.362 418.444L116.656 417.347C116.254 416.582 115.891 415.797 115.569 414.995C115.271 414.187 114.964 413.397 114.741 412.57C114.482 411.757 114.265 410.932 114.091 410.097C113.354 406.803 113.212 403.403 113.672 400.059C114.134 396.774 115.247 393.614 116.944 390.764C117.372 390.076 117.818 389.379 118.301 388.738C118.785 388.096 119.296 387.446 119.751 386.804C120.681 385.55 121.536 384.174 122.41 382.863C125.811 377.528 128.962 372.221 132.048 367.062C144.28 346.419 154.802 328.024 163.251 313.255C167.591 298.959 173.103 288.224 177.983 281.653C179.818 279.118 181.96 276.82 184.359 274.812C184.99 274.305 185.648 273.834 186.33 273.399L187.036 272.99Z" fill="#263238"/>
<path d="M158.222 341.622C158.222 341.622 156.54 337.217 153.185 336.631C149.829 336.046 143.323 336.631 143.323 336.631C143.323 336.631 140.451 338.788 140.479 341.743C140.48 343.438 140.683 345.126 141.083 346.772C141.083 346.772 138.731 343.602 135.636 346.605C132.541 349.607 129.827 355.695 129.827 355.695C129.827 355.695 125.709 357.015 124.138 359.004C123.035 360.608 122.195 362.378 121.647 364.246C120.623 364.946 119.814 365.918 119.312 367.053C118.809 368.187 118.633 369.44 118.803 370.669C118.989 371.976 119.481 373.222 120.241 374.302C121 375.383 122.004 376.269 123.172 376.887C123.172 376.887 135.441 385.931 136.947 384.769C138.452 383.607 141.52 381.748 137.095 377.844C132.671 373.94 129.92 371.468 129.92 371.468L132.002 368.261C132.002 368.261 144.011 376.515 145.944 376.115C147.877 375.716 151.149 375.66 149.811 372.695C148.472 369.73 137.225 361.086 137.225 361.086L138.564 356.438C138.564 356.438 151.577 365.241 153.677 363.828C155.778 362.415 157.702 361.764 155.536 358.874C153.37 355.983 143.992 349.04 143.992 349.04L147.84 345.452C147.84 345.452 156.903 347.041 158.222 341.622Z" fill="#FFBF9D"/>
<path d="M214.539 257.895C214.435 257.941 214.326 257.976 214.214 257.997L213.285 258.248C212.448 258.471 211.202 258.797 209.622 259.243C205.141 260.485 200.729 261.965 196.405 263.676C195.039 264.225 193.617 264.829 192.176 265.535C191.451 265.879 190.717 266.242 189.992 266.642C189.629 266.837 189.248 267.023 188.886 267.236C188.523 267.45 188.17 267.683 187.826 267.943C184.995 270.279 182.39 272.878 180.046 275.704C174.953 281.597 169.757 288.41 164.431 295.651C159.105 302.891 154.207 309.918 149.792 316.35C147.598 319.566 145.526 322.633 143.62 325.524C141.8 328.164 140.152 330.918 138.685 333.768C136.639 337.943 134.909 342.265 133.507 346.697C133.006 348.259 132.643 349.486 132.401 350.322C132.281 350.722 132.197 351.029 132.123 351.252C132.097 351.36 132.062 351.465 132.02 351.568C132.027 351.455 132.045 351.342 132.076 351.233C132.132 351.001 132.206 350.676 132.308 350.304C132.522 349.458 132.848 348.222 133.331 346.651C134.662 342.185 136.35 337.834 138.378 333.638C139.826 330.759 141.466 327.98 143.286 325.319C145.145 322.42 147.236 319.334 149.429 316.118C153.817 309.667 158.724 302.64 164.041 295.381C169.357 288.122 174.581 281.318 179.702 275.434C182.079 272.59 184.721 269.978 187.594 267.636C187.938 267.367 188.328 267.153 188.691 266.92C189.053 266.688 189.434 266.511 189.806 266.316C190.549 265.917 191.293 265.563 192.018 265.219C193.477 264.532 194.909 263.937 196.284 263.36C200.628 261.671 205.066 260.234 209.576 259.057C211.165 258.639 212.411 258.351 213.294 258.128L214.223 257.923L214.539 257.895Z" fill="#263238"/>
<path d="M207.234 416.771C206.733 416.539 206.252 416.269 205.793 415.962C204.864 415.414 203.59 414.577 202.075 413.49C193.949 407.768 186.853 400.709 181.088 392.614C179.991 391.061 179.145 389.779 178.596 388.896C178.287 388.441 178.014 387.962 177.779 387.464C178.137 387.882 178.463 388.327 178.755 388.794C179.349 389.667 180.242 390.922 181.366 392.446C187.257 400.382 194.303 407.391 202.27 413.239C203.804 414.354 205.059 415.237 205.932 415.832C206.39 416.11 206.825 416.424 207.234 416.771Z" fill="#263238"/>
<g opacity="0.3">
<path opacity="0.3" d="M138.49 440.398L140.06 446.133L198.971 445.929L138.49 440.398Z" fill="black"/>
</g>
</g>
<g opacity="0.33" clip-path="url(#clip1)">
<path d="M303.252 572.002H303.221C300.899 572.002 299.602 573.701 299 574.851C298.388 573.701 297.101 572.002 294.78 572.002H294.737C292.226 572.023 290.133 574.165 290.007 576.877C289.848 580.2 292.501 582.437 296.468 585.814C297.154 586.405 297.882 587.027 298.652 587.692L299 587.998L299.348 587.692C300.108 587.027 300.847 586.405 301.532 585.814C305.5 582.437 308.152 580.2 307.993 576.877C307.867 574.165 305.763 572.023 303.252 572.002Z" fill="#FF3636"/>
<path d="M307.993 576.877C308.151 580.2 305.5 582.437 301.532 585.814C300.846 586.405 300.108 587.027 299.348 587.692L299 587.998V574.851C299.601 573.701 300.899 572.002 303.22 572.002H303.252C305.763 572.023 307.867 574.165 307.993 576.877Z" fill="#F40000"/>
</g>
<path d="M167.275 589.525C167.275 589.945 167.41 590.5 167.68 591.19C167.98 591.85 168.13 592.375 168.13 592.765C168.13 593.125 167.995 593.485 167.725 593.845C167.485 594.205 167.155 594.385 166.735 594.385C166.315 594.385 165.955 594.04 165.655 593.35C165.385 592.66 165.25 591.97 165.25 591.28C165.25 589.36 166.015 587.8 167.545 586.6C169.075 585.4 170.74 584.8 172.54 584.8C174.34 584.8 175.885 585.295 177.175 586.285C178.495 587.275 179.155 588.595 179.155 590.245C179.155 591.865 178.84 593.26 178.21 594.43C177.61 595.6 176.905 596.545 176.095 597.265C175.285 597.985 174.07 599.05 172.45 600.46C170.86 601.87 169.465 603.22 168.265 604.51C169.345 604.69 170.83 605.065 172.72 605.635C174.64 606.175 175.765 606.445 176.095 606.445C177.205 606.445 178.255 605.635 179.245 604.015C179.755 603.145 180.115 602.71 180.325 602.71C180.595 602.71 180.73 602.89 180.73 603.25C180.73 604.09 180.295 605.2 179.425 606.58C178.585 607.96 177.82 608.92 177.13 609.46C176.44 609.97 175.405 610.225 174.025 610.225C173.605 610.225 172.51 609.73 170.74 608.74C168.97 607.75 167.545 607.255 166.465 607.255C165.625 609.085 164.86 610 164.17 610C163.66 610 163.24 609.85 162.91 609.55C162.61 609.25 162.46 608.77 162.46 608.11C162.46 607.45 162.805 606.685 163.495 605.815C164.185 604.945 164.98 604.45 165.88 604.33C166.9 603.25 168.055 602.095 169.345 600.865C170.635 599.635 171.55 598.735 172.09 598.165C172.66 597.595 173.23 596.92 173.8 596.14C174.4 595.36 174.79 594.595 174.97 593.845C175.18 593.095 175.285 592.15 175.285 591.01C175.285 589.87 174.94 588.88 174.25 588.04C173.56 587.17 172.645 586.735 171.505 586.735C170.365 586.735 169.375 586.945 168.535 587.365C167.695 587.785 167.275 588.505 167.275 589.525ZM191.846 602.755L183.071 603.25C182.561 603.25 182.156 603.115 181.856 602.845C181.556 602.575 181.406 602.29 181.406 601.99C181.406 601.66 181.811 601.375 182.621 601.135C182.861 600.355 183.791 598.03 185.411 594.16C187.061 590.29 187.946 588.115 188.066 587.635C188.216 587.125 188.366 586.54 188.516 585.88C188.666 585.22 188.801 584.725 188.921 584.395C189.041 584.065 189.296 583.72 189.686 583.36C190.076 583 190.496 582.82 190.946 582.82C191.396 582.82 191.711 583.015 191.891 583.405C192.101 583.795 192.206 584.215 192.206 584.665C192.206 585.805 191.816 586.975 191.036 588.175C190.256 589.345 189.206 591.19 187.886 593.71C186.566 596.23 185.471 598.63 184.601 600.91C186.041 600.91 187.541 600.745 189.101 600.415C190.691 600.055 191.771 599.83 192.341 599.74C192.791 594.52 193.361 591.91 194.051 591.91C194.381 591.91 194.711 592.135 195.041 592.585C195.401 593.035 195.581 593.485 195.581 593.935L195.221 599.47C196.391 599.47 197.411 599.74 198.281 600.28C199.181 600.82 199.631 601.405 199.631 602.035C199.631 602.815 199.136 603.205 198.146 603.205C197.726 603.205 197.186 603.13 196.526 602.98C195.896 602.8 195.356 602.71 194.906 602.71C194.846 603.97 194.816 605.92 194.816 608.56C194.816 609.1 194.576 609.55 194.096 609.91C193.646 610.27 193.001 610.45 192.161 610.45C191.561 610.45 191.261 609.955 191.261 608.965C191.261 607.375 191.456 605.305 191.846 602.755ZM201.091 616.795C200.671 616.795 200.326 616.585 200.056 616.165C199.786 615.775 199.651 615.34 199.651 614.86C199.651 614.41 199.846 613.675 200.236 612.655C200.626 611.665 201.031 610.75 201.451 609.91C202.261 608.38 203.176 606.715 204.196 604.915C205.426 602.485 206.671 598.885 207.931 594.115C209.191 589.345 210.046 586.48 210.496 585.52C210.946 584.53 211.471 584.035 212.071 584.035C212.281 584.035 212.386 584.215 212.386 584.575C212.386 584.935 212.296 585.475 212.116 586.195C209.386 597.925 206.896 606.64 204.646 612.34C204.166 613.54 203.566 614.575 202.846 615.445C202.126 616.345 201.541 616.795 201.091 616.795ZM220.774 599.875C220.384 599.875 219.934 599.965 219.424 600.145C218.914 600.295 218.509 600.37 218.209 600.37C217.609 600.37 217.309 600.13 217.309 599.65C217.309 598.48 218.764 597.895 221.674 597.895C223.084 594.775 224.164 592.195 224.914 590.155C223.534 589.855 221.764 589.315 219.604 588.535C217.444 587.755 216.244 587.365 216.004 587.365C215.374 587.365 215.059 587.695 215.059 588.355C215.059 588.595 215.119 588.895 215.239 589.255C215.389 589.585 215.464 589.81 215.464 589.93C215.464 590.17 215.359 590.29 215.149 590.29C214.669 590.29 214.234 589.945 213.844 589.255C213.484 588.535 213.304 587.845 213.304 587.185C213.304 586.525 213.514 585.925 213.934 585.385C214.354 584.845 214.894 584.575 215.554 584.575C216.214 584.575 217.759 584.95 220.189 585.7C222.649 586.42 224.539 586.795 225.859 586.825C226.039 586.555 226.369 586.255 226.849 585.925C227.329 585.565 227.749 585.385 228.109 585.385C228.499 585.385 228.859 585.67 229.189 586.24C229.519 586.78 229.684 587.5 229.684 588.4C229.684 588.94 229.369 589.375 228.739 589.705C228.139 590.035 227.464 590.245 226.714 590.335C226.024 592.405 225.094 595 223.924 598.12C224.854 598.21 225.844 598.255 226.894 598.255C227.974 598.255 228.514 598.495 228.514 598.975C228.514 599.365 228.109 599.59 227.299 599.65C227.029 599.68 225.694 599.725 223.294 599.785C222.004 603.235 221.284 605.215 221.134 605.725C220.984 606.235 220.849 606.79 220.729 607.39C220.609 607.99 220.474 608.47 220.324 608.83C220.204 609.19 219.934 609.55 219.514 609.91C219.094 610.27 218.614 610.45 218.074 610.45C217.564 610.45 217.189 610.255 216.949 609.865C216.739 609.475 216.634 609.055 216.634 608.605C216.634 607.525 217.174 606.25 218.254 604.78C218.734 604.09 219.574 602.455 220.774 599.875ZM240.892 593.96L241.292 595.84C241.292 596.293 241.132 596.667 240.812 596.96C240.492 597.253 240.119 597.4 239.692 597.4C239.266 597.4 238.946 597.2 238.732 596.8C238.546 596.4 238.452 595.96 238.452 595.48C238.452 594.04 239.066 592.747 240.292 591.6C241.546 590.427 242.959 589.84 244.532 589.84H244.772C245.306 587.813 246.106 586.8 247.172 586.8C247.492 586.8 247.652 587.227 247.652 588.08C247.652 588.24 247.612 588.88 247.532 590C247.932 590.053 248.399 590.12 248.932 590.2C250.186 590.387 251.226 590.48 252.052 590.48C252.906 590.48 253.759 590.347 254.612 590.08C255.492 589.787 256.079 589.64 256.372 589.64C257.119 589.64 257.492 590.027 257.492 590.8C257.492 591.547 257.092 592.12 256.292 592.52C255.492 592.893 254.332 593.08 252.812 593.08C251.292 593.08 249.439 592.733 247.252 592.04C246.932 593.88 246.746 595.267 246.692 596.2C246.639 597.133 246.586 598.52 246.532 600.36C247.652 600.307 249.199 600.28 251.172 600.28C251.519 600.28 251.812 600.413 252.052 600.68C252.319 600.947 252.452 601.227 252.452 601.52C252.452 601.813 252.359 602.053 252.172 602.24C251.986 602.427 251.786 602.52 251.572 602.52L246.492 602.24C246.386 604.853 246.292 606.627 246.212 607.56C246.159 608.493 245.906 609.36 245.452 610.16C244.999 610.96 244.466 611.36 243.852 611.36C243.506 611.36 243.119 611.173 242.692 610.8C242.292 610.453 242.092 610.12 242.092 609.8C242.092 609.48 242.132 609.24 242.212 609.08C242.319 608.893 242.426 608.72 242.532 608.56C242.666 608.373 242.759 608.227 242.812 608.12C243.132 607.427 243.426 605.52 243.692 602.4L242.132 602.6C241.919 602.6 241.746 602.533 241.612 602.4C241.479 602.24 241.412 602.067 241.412 601.88C241.412 601.667 241.452 601.48 241.532 601.32C241.612 601.16 241.772 601.04 242.012 600.96C242.252 600.853 242.426 600.787 242.532 600.76C242.959 600.653 243.386 600.6 243.812 600.6C243.866 599.96 243.932 598.573 244.012 596.44C244.119 594.307 244.266 592.64 244.452 591.44C244.292 591.413 244.052 591.4 243.732 591.4C241.839 591.4 240.892 592.253 240.892 593.96ZM267.02 601.32C268.086 600.973 268.82 600.68 269.22 600.44C269.646 600.173 269.966 599.973 270.18 599.84L270.66 599.56C270.793 599.48 270.9 599.44 270.98 599.44C271.193 599.44 271.3 599.56 271.3 599.8C271.3 600.04 270.886 600.467 270.06 601.08C269.233 601.667 268.206 602.2 266.98 602.68C266.793 604.92 266.086 606.733 264.86 608.12C263.633 609.507 261.886 610.2 259.62 610.2C257.966 610.2 256.7 609.547 255.82 608.24C254.94 606.907 254.5 605.36 254.5 603.6C254.5 601.813 255.02 600.133 256.06 598.56C257.126 596.987 258.486 596.2 260.14 596.2C260.886 595.667 261.766 595.4 262.78 595.4C263.82 595.4 264.78 595.947 265.66 597.04C266.54 598.133 266.993 599.56 267.02 601.32ZM264.42 603.36L262.98 603.44C261.753 603.44 260.713 603.08 259.86 602.36C259.006 601.613 258.58 600.8 258.58 599.92C258.58 599.04 258.726 598.28 259.02 597.64C257.873 598.547 257.3 600.333 257.3 603C257.3 604.28 257.566 605.507 258.1 606.68C258.633 607.827 259.473 608.4 260.62 608.4C261.766 608.4 262.66 607.92 263.3 606.96C263.94 605.973 264.313 604.773 264.42 603.36ZM261.94 596.72C261.513 596.72 261.18 596.92 260.94 597.32C260.7 597.693 260.58 598.107 260.58 598.56C260.58 599.547 260.913 600.347 261.58 600.96C262.273 601.573 263.073 601.88 263.98 601.88H264.46C264.406 600.573 264.18 599.387 263.78 598.32C263.406 597.253 262.793 596.72 261.94 596.72ZM272.55 599.56L274.75 599.32C274.963 599.32 275.15 599.44 275.31 599.68C275.47 599.92 275.55 600.173 275.55 600.44C275.55 600.707 275.456 601.613 275.27 603.16C275.11 604.707 275.03 605.933 275.03 606.84C275.03 607.72 275.11 608.16 275.27 608.16C275.723 608.133 276.35 607.573 277.15 606.48C277.95 605.36 278.736 603.933 279.51 602.2C280.31 600.467 280.79 599.6 280.95 599.6C281.136 599.6 281.23 599.707 281.23 599.92C281.23 600.667 280.843 601.853 280.07 603.48C277.963 607.96 276.19 610.2 274.75 610.2C273.71 610.2 272.923 609.987 272.39 609.56C272.203 609.373 272.11 608.213 272.11 606.08C272.11 603.947 272.336 602.12 272.79 600.6C271.243 600.6 270.163 600.107 269.55 599.12C269.23 598.613 269.07 598.04 269.07 597.4C269.07 596.76 269.203 596.2 269.47 595.72C269.736 595.24 270.11 595 270.59 595C271.096 595 271.55 595.267 271.95 595.8C272.376 596.307 272.59 596.88 272.59 597.52C272.59 598.16 272.403 598.8 272.03 599.44C272.136 599.52 272.31 599.56 272.55 599.56ZM303.834 608.16C304.287 608.16 304.914 607.613 305.714 606.52C306.514 605.4 307.301 603.973 308.074 602.24C308.874 600.48 309.354 599.6 309.514 599.6C309.701 599.6 309.794 599.707 309.794 599.92C309.794 600.667 309.407 601.853 308.634 603.48C306.527 607.96 304.767 610.2 303.354 610.2C302.127 610.2 301.261 610 300.754 609.6C300.541 609.387 300.434 608.867 300.434 608.04C300.434 607.213 300.501 605.933 300.634 604.2C299.621 605.933 298.541 607.373 297.394 608.52C296.274 609.64 295.154 610.2 294.034 610.2C292.941 610.2 292.047 609.613 291.354 608.44C290.661 607.24 290.314 605.64 290.314 603.64C290.314 601.613 290.514 599.093 290.914 596.08C291.314 593.04 291.514 590.787 291.514 589.32C291.514 588.947 291.421 588.76 291.234 588.76C290.807 588.76 290.314 589.08 289.754 589.72C289.221 590.333 288.861 591.293 288.674 592.6C288.647 592.893 288.527 593.16 288.314 593.4C288.127 593.613 287.927 593.72 287.714 593.72C287.394 593.72 287.234 593.453 287.234 592.92C287.234 592.387 287.501 591.64 288.034 590.68C288.567 589.693 289.261 588.8 290.114 588C290.994 587.2 291.847 586.8 292.674 586.8C293.634 586.8 294.101 587.573 294.074 589.12C294.074 590.64 293.914 592.867 293.594 595.8C293.274 598.733 293.114 600.933 293.114 602.4C293.114 606.133 293.807 608 295.194 608C295.994 608 296.927 607.36 297.994 606.08C299.061 604.8 300.007 603.307 300.834 601.6C301.367 594.773 301.754 590.547 301.994 588.92C302.047 588.68 302.461 588.267 303.234 587.68C304.007 587.093 304.594 586.8 304.994 586.8C305.421 586.8 305.634 587.573 305.634 589.12C305.634 590.293 305.541 591.307 305.354 592.16C305.167 593.013 304.927 594.013 304.634 595.16C304.367 596.307 304.167 597.16 304.034 597.72C303.767 601.293 303.634 604.413 303.634 607.08C303.634 607.8 303.701 608.16 303.834 608.16Z" fill="#0F516A"/>
</g>
<defs>
<filter id="filter0_d" x="0" y="37.646" width="470.88" height="517.354" filterUnits="userSpaceOnUse" color-interpolation-filters="sRGB">
<feFlood flood-opacity="0" result="BackgroundImageFix"/>
<feColorMatrix in="SourceAlpha" type="matrix" values="0 0 0 0 0 0 0 0 0 0 0 0 0 0 0 0 0 0 127 0"/>
<feOffset dy="4"/>
<feGaussianBlur stdDeviation="2"/>
<feColorMatrix type="matrix" values="0 0 0 0 0 0 0 0 0 0 0 0 0 0 0 0 0 0 0.25 0"/>
<feBlend mode="normal" in2="BackgroundImageFix" result="effect1_dropShadow"/>
<feBlend mode="normal" in="SourceGraphic" in2="effect1_dropShadow" result="shape"/>
</filter>
<clipPath id="clip0">
<rect width="400.428" height="397.092" fill="white" transform="translate(35.3639 93.4147)"/>
</clipPath>
<clipPath id="clip1">
<rect width="18" height="18" fill="white" transform="translate(290 571)"/>
</clipPath>
</defs>
</svg>
