<svg width="76" height="76" viewBox="0 0 76 76" fill="none" xmlns="http://www.w3.org/2000/svg">
<rect width="76" height="76" rx="12" fill="#0F516A"/>
<path d="M10.1172 28.98C10.1172 29.3907 10.2492 29.9333 10.5132 30.608C10.8066 31.2533 10.9532 31.7667 10.9532 32.148C10.9532 32.5 10.8212 32.852 10.5572 33.204C10.3226 33.556 9.9999 33.732 9.58923 33.732C9.17857 33.732 8.82657 33.3947 8.53323 32.72C8.26923 32.0453 8.13723 31.3707 8.13723 30.696C8.13723 28.8187 8.88523 27.2933 10.3812 26.12C11.8772 24.9467 13.5052 24.36 15.2652 24.36C17.0252 24.36 18.5359 24.844 19.7972 25.812C21.0879 26.78 21.7332 28.0707 21.7332 29.684C21.7332 31.268 21.4252 32.632 20.8092 33.776C20.2226 34.92 19.5332 35.844 18.7412 36.548C17.9492 37.252 16.7612 38.2933 15.1772 39.672C13.6226 41.0507 12.2586 42.3707 11.0852 43.632C12.1412 43.808 13.5932 44.1747 15.4412 44.732C17.3186 45.26 18.4186 45.524 18.7412 45.524C19.8266 45.524 20.8532 44.732 21.8212 43.148C22.3199 42.2973 22.6719 41.872 22.8772 41.872C23.1412 41.872 23.2732 42.048 23.2732 42.4C23.2732 43.2213 22.8479 44.3067 21.9972 45.656C21.1759 47.0053 20.4279 47.944 19.7532 48.472C19.0786 48.9707 18.0666 49.22 16.7172 49.22C16.3066 49.22 15.2359 48.736 13.5052 47.768C11.7746 46.8 10.3812 46.316 9.32523 46.316C8.5039 48.1053 7.7559 49 7.08123 49C6.58257 49 6.1719 48.8533 5.84923 48.56C5.5559 48.2667 5.40923 47.7973 5.40923 47.152C5.40923 46.5067 5.74657 45.7587 6.42123 44.908C7.0959 44.0573 7.87323 43.5733 8.75323 43.456C9.75057 42.4 10.8799 41.2707 12.1412 40.068C13.4026 38.8653 14.2972 37.9853 14.8252 37.428C15.3826 36.8707 15.9399 36.2107 16.4972 35.448C17.0839 34.6853 17.4652 33.9373 17.6412 33.204C17.8466 32.4707 17.9492 31.5467 17.9492 30.432C17.9492 29.3173 17.6119 28.3493 16.9372 27.528C16.2626 26.6773 15.3679 26.252 14.2532 26.252C13.1386 26.252 12.1706 26.4573 11.3492 26.868C10.5279 27.2787 10.1172 27.9827 10.1172 28.98ZM34.143 41.916L25.563 42.4C25.0643 42.4 24.6683 42.268 24.375 42.004C24.0816 41.74 23.935 41.4613 23.935 41.168C23.935 40.8453 24.331 40.5667 25.123 40.332C25.3576 39.5693 26.267 37.296 27.851 33.512C29.4643 29.728 30.3296 27.6013 30.447 27.132C30.5936 26.6333 30.7403 26.0613 30.887 25.416C31.0336 24.7707 31.1656 24.2867 31.283 23.964C31.4003 23.6413 31.6496 23.304 32.031 22.952C32.4123 22.6 32.823 22.424 33.263 22.424C33.703 22.424 34.011 22.6147 34.187 22.996C34.3923 23.3773 34.495 23.788 34.495 24.228C34.495 25.3427 34.1136 26.4867 33.351 27.66C32.5883 28.804 31.5616 30.608 30.271 33.072C28.9803 35.536 27.9096 37.8827 27.059 40.112C28.467 40.112 29.9336 39.9507 31.459 39.628C33.0136 39.276 34.0696 39.056 34.627 38.968C35.067 33.864 35.6243 31.312 36.299 31.312C36.6216 31.312 36.9443 31.532 37.267 31.972C37.619 32.412 37.795 32.852 37.795 33.292L37.443 38.704C38.587 38.704 39.5843 38.968 40.435 39.496C41.315 40.024 41.755 40.596 41.755 41.212C41.755 41.9747 41.271 42.356 40.303 42.356C39.8923 42.356 39.3643 42.2827 38.719 42.136C38.103 41.96 37.575 41.872 37.135 41.872C37.0763 43.104 37.047 45.0107 37.047 47.592C37.047 48.12 36.8123 48.56 36.343 48.912C35.903 49.264 35.2723 49.44 34.451 49.44C33.8643 49.44 33.571 48.956 33.571 47.988C33.571 46.4333 33.7616 44.4093 34.143 41.916ZM43.1819 55.644C42.7712 55.644 42.4339 55.4387 42.1699 55.028C41.9059 54.6467 41.7739 54.2213 41.7739 53.752C41.7739 53.312 41.9645 52.5933 42.3459 51.596C42.7272 50.628 43.1232 49.7333 43.5339 48.912C44.3259 47.416 45.2205 45.788 46.2179 44.028C47.4205 41.652 48.6379 38.132 49.8699 33.468C51.1019 28.804 51.9379 26.0027 52.3779 25.064C52.8179 24.096 53.3312 23.612 53.9179 23.612C54.1232 23.612 54.2259 23.788 54.2259 24.14C54.2259 24.492 54.1379 25.02 53.9619 25.724C51.2925 37.1933 48.8579 45.7147 46.6579 51.288C46.1885 52.4613 45.6019 53.4733 44.8979 54.324C44.1939 55.204 43.6219 55.644 43.1819 55.644ZM62.4281 39.1C62.0467 39.1 61.6067 39.188 61.1081 39.364C60.6094 39.5107 60.2134 39.584 59.9201 39.584C59.3334 39.584 59.0401 39.3493 59.0401 38.88C59.0401 37.736 60.4627 37.164 63.3081 37.164C64.6867 34.1133 65.7427 31.5907 66.4761 29.596C65.1267 29.3027 63.3961 28.7747 61.2841 28.012C59.1721 27.2493 57.9987 26.868 57.7641 26.868C57.1481 26.868 56.8401 27.1907 56.8401 27.836C56.8401 28.0707 56.8987 28.364 57.0161 28.716C57.1627 29.0387 57.2361 29.2587 57.2361 29.376C57.2361 29.6107 57.1334 29.728 56.9281 29.728C56.4587 29.728 56.0334 29.3907 55.6521 28.716C55.3001 28.012 55.1241 27.3373 55.1241 26.692C55.1241 26.0467 55.3294 25.46 55.7401 24.932C56.1507 24.404 56.6787 24.14 57.3241 24.14C57.9694 24.14 59.4801 24.5067 61.8561 25.24C64.2614 25.944 66.1094 26.3107 67.4001 26.34C67.5761 26.076 67.8987 25.7827 68.3681 25.46C68.8374 25.108 69.2481 24.932 69.6001 24.932C69.9814 24.932 70.3334 25.2107 70.6561 25.768C70.9787 26.296 71.1401 27 71.1401 27.88C71.1401 28.408 70.8321 28.8333 70.2161 29.156C69.6294 29.4787 68.9694 29.684 68.2361 29.772C67.5614 31.796 66.6521 34.3333 65.5081 37.384C66.4174 37.472 67.3854 37.516 68.4121 37.516C69.4681 37.516 69.9961 37.7507 69.9961 38.22C69.9961 38.6013 69.6001 38.8213 68.8081 38.88C68.5441 38.9093 67.2387 38.9533 64.8921 39.012C63.6307 42.3853 62.9267 44.3213 62.7801 44.82C62.6334 45.3187 62.5014 45.8613 62.3841 46.448C62.2667 47.0347 62.1347 47.504 61.9881 47.856C61.8707 48.208 61.6067 48.56 61.1961 48.912C60.7854 49.264 60.3161 49.44 59.7881 49.44C59.2894 49.44 58.9227 49.2493 58.6881 48.868C58.4827 48.4867 58.3801 48.076 58.3801 47.636C58.3801 46.58 58.9081 45.3333 59.9641 43.896C60.4334 43.2213 61.2547 41.6227 62.4281 39.1Z" fill="#FEE2F7"/>
<path d="M10.5132 30.608L10.0476 30.7902L10.0525 30.8027L10.0581 30.8149L10.5132 30.608ZM10.5572 33.204L10.1572 32.904L10.1489 32.9151L10.1412 32.9266L10.5572 33.204ZM8.53323 32.72L8.06761 32.9022L8.071 32.9108L8.0747 32.9194L8.53323 32.72ZM10.3812 26.12L10.0727 25.7266L10.0727 25.7266L10.3812 26.12ZM19.7972 25.812L19.4928 26.2087L19.4972 26.212L19.7972 25.812ZM20.8092 33.776L20.3689 33.5389L20.3643 33.5478L20.8092 33.776ZM18.7412 36.548L18.4091 36.1743L18.4091 36.1743L18.7412 36.548ZM15.1772 39.672L14.849 39.2948L14.8455 39.2979L15.1772 39.672ZM11.0852 43.632L10.7191 43.2914L10.0858 43.9723L11.003 44.1252L11.0852 43.632ZM15.4412 44.732L15.2968 45.2108L15.3059 45.2133L15.4412 44.732ZM21.8212 43.148L22.2479 43.4088L22.2526 43.4009L21.8212 43.148ZM21.9972 45.656L21.5742 45.3893L21.5701 45.396L21.9972 45.656ZM19.7532 48.472L20.0505 48.8742L20.0614 48.8658L19.7532 48.472ZM13.5052 47.768L13.2612 48.2044L13.2612 48.2044L13.5052 47.768ZM9.32523 46.316V45.816H9.00458L8.87082 46.1074L9.32523 46.316ZM5.84923 48.56L5.49568 48.9136L5.50409 48.922L5.5129 48.93L5.84923 48.56ZM6.42123 44.908L6.81298 45.2187L6.81298 45.2187L6.42123 44.908ZM8.75323 43.456L8.81932 43.9516L8.99503 43.9282L9.11674 43.7993L8.75323 43.456ZM12.1412 40.068L12.4863 40.4299L12.4863 40.4299L12.1412 40.068ZM14.8252 37.428L14.4716 37.0743L14.4623 37.0841L14.8252 37.428ZM16.4972 35.448L16.1008 35.1431L16.0935 35.153L16.4972 35.448ZM17.6412 33.204L17.1598 33.0692L17.1572 33.0782L17.155 33.0873L17.6412 33.204ZM16.9372 27.528L16.5454 27.8387L16.5509 27.8454L16.9372 27.528ZM11.3492 26.868L11.5728 27.3152L11.5728 27.3152L11.3492 26.868ZM9.61723 28.98C9.61723 29.4835 9.77555 30.0949 10.0476 30.7902L10.9789 30.4258C10.7229 29.7717 10.6172 29.2979 10.6172 28.98H9.61723ZM10.0581 30.8149C10.3429 31.4416 10.4532 31.8757 10.4532 32.148H11.4532C11.4532 31.6576 11.2702 31.065 10.9684 30.4011L10.0581 30.8149ZM10.4532 32.148C10.4532 32.3672 10.3728 32.6166 10.1572 32.904L10.9572 33.504C11.2697 33.0874 11.4532 32.6327 11.4532 32.148H10.4532ZM10.1412 32.9266C9.99592 33.1446 9.82676 33.232 9.58923 33.232V34.232C10.173 34.232 10.6492 33.9674 10.9733 33.4813L10.1412 32.9266ZM9.58923 33.232C9.50284 33.232 9.27199 33.1651 8.99177 32.5206L8.0747 32.9194C8.38115 33.6242 8.85429 34.232 9.58923 34.232V33.232ZM8.99886 32.5378C8.75588 31.9169 8.63723 31.3038 8.63723 30.696H7.63723C7.63723 31.4375 7.78258 32.1738 8.06761 32.9022L8.99886 32.5378ZM8.63723 30.696C8.63723 28.9745 9.31285 27.5934 10.6898 26.5134L10.0727 25.7266C8.45762 26.9933 7.63723 28.6628 7.63723 30.696H8.63723ZM10.6898 26.5134C12.1053 25.4032 13.6263 24.86 15.2652 24.86V23.86C13.3841 23.86 11.6492 24.4901 10.0727 25.7266L10.6898 26.5134ZM15.2652 24.86C16.9276 24.86 18.3282 25.3149 19.4928 26.2087L20.1016 25.4153C18.7436 24.3731 17.1229 23.86 15.2652 23.86V24.86ZM19.4972 26.212C20.662 27.0856 21.2332 28.228 21.2332 29.684H22.2332C22.2332 27.9133 21.5138 26.4744 20.0972 25.412L19.4972 26.212ZM21.2332 29.684C21.2332 31.2032 20.9381 32.4821 20.369 33.5389L21.2495 34.013C21.9124 32.7819 22.2332 31.3328 22.2332 29.684H21.2332ZM20.3643 33.5478C19.8 34.6482 19.1461 35.5192 18.4091 36.1743L19.0734 36.9217C19.9204 36.1688 20.6451 35.1918 21.2541 34.0042L20.3643 33.5478ZM18.4091 36.1743C17.6191 36.8765 16.4327 37.9164 14.849 39.2948L15.5055 40.0492C17.0898 38.6702 18.2794 37.6275 19.0734 36.9217L18.4091 36.1743ZM14.8455 39.2979C13.2812 40.6851 11.9053 42.0163 10.7191 43.2914L11.4513 43.9726C12.6118 42.725 13.9639 41.4162 15.509 40.0461L14.8455 39.2979ZM11.003 44.1252C12.0277 44.296 13.4559 44.6555 15.2969 45.2107L15.5856 44.2533C13.7306 43.6939 12.2548 43.32 11.1674 43.1388L11.003 44.1252ZM15.3059 45.2133C16.247 45.478 16.9984 45.678 17.5575 45.8122C18.091 45.9402 18.5088 46.024 18.7412 46.024V45.024C18.651 45.024 18.3575 44.9758 17.7909 44.8398C17.2501 44.71 16.5128 44.514 15.5766 44.2507L15.3059 45.2133ZM18.7412 46.024C20.0974 46.024 21.2546 45.0341 22.2479 43.4087L21.3946 42.8873C20.4519 44.4299 19.5557 45.024 18.7412 45.024V46.024ZM22.2526 43.4009C22.4971 42.9837 22.6939 42.6917 22.8444 42.5098C22.9204 42.418 22.9717 42.3701 22.9991 42.3492C23.0372 42.3201 22.9893 42.372 22.8772 42.372V41.372C22.6625 41.372 22.4936 41.477 22.3924 41.5543C22.2805 41.6397 22.1741 41.7513 22.074 41.8722C21.8726 42.1157 21.644 42.4616 21.3899 42.8951L22.2526 43.4009ZM22.8772 42.372C22.8882 42.372 22.8742 42.3738 22.8474 42.3619C22.8177 42.3487 22.7916 42.3271 22.7742 42.304C22.759 42.2837 22.7594 42.2741 22.7634 42.2903C22.7676 42.307 22.7732 42.3416 22.7732 42.4H23.7732C23.7732 42.1759 23.7338 41.9167 23.5742 41.704C23.3944 41.4643 23.1312 41.372 22.8772 41.372V42.372ZM22.7732 42.4C22.7732 43.0732 22.4141 44.0571 21.5743 45.3893L22.4202 45.9227C23.2817 44.5562 23.7732 43.3694 23.7732 42.4H22.7732ZM21.5701 45.396C20.7583 46.7298 20.0479 47.6065 19.4451 48.0782L20.0614 48.8658C20.8079 48.2815 21.5935 47.2809 22.4243 45.916L21.5701 45.396ZM19.456 48.0699C18.9056 48.4767 18.0196 48.72 16.7172 48.72V49.72C18.1135 49.72 19.2515 49.4646 20.0504 48.8741L19.456 48.0699ZM16.7172 48.72C16.6954 48.72 16.6123 48.71 16.4408 48.654C16.2791 48.6012 16.0707 48.5183 15.8122 48.4014C15.2956 48.1679 14.6094 47.8127 13.7493 47.3316L13.2612 48.2044C14.1317 48.6913 14.8462 49.0621 15.4003 49.3126C15.6771 49.4377 15.9215 49.5363 16.1302 49.6045C16.329 49.6695 16.5337 49.72 16.7172 49.72V48.72ZM13.7493 47.3316C11.999 46.3526 10.513 45.816 9.32523 45.816V46.816C10.2495 46.816 11.5502 47.2474 13.2612 48.2044L13.7493 47.3316ZM8.87082 46.1074C8.46784 46.9853 8.09728 47.6104 7.76464 48.0083C7.41942 48.4212 7.19145 48.5 7.08123 48.5V49.5C7.64568 49.5 8.12905 49.1315 8.53183 48.6497C8.94719 48.1529 9.3613 47.436 9.77965 46.5246L8.87082 46.1074ZM7.08123 48.5C6.68783 48.5 6.40297 48.3877 6.18557 48.19L5.5129 48.93C5.94083 49.319 6.4773 49.5 7.08123 49.5V48.5ZM6.20279 48.2064C6.04402 48.0477 5.90923 47.7365 5.90923 47.152H4.90923C4.90923 47.8582 5.06778 48.4857 5.49568 48.9136L6.20279 48.2064ZM5.90923 47.152C5.90923 46.6739 6.16477 46.036 6.81298 45.2187L6.02949 44.5973C5.32837 45.4813 4.90923 46.3394 4.90923 47.152H5.90923ZM6.81298 45.2187C7.42614 44.4456 8.09513 44.0482 8.81932 43.9516L8.68715 42.9604C7.65134 43.0985 6.76566 43.6691 6.02949 44.5973L6.81298 45.2187ZM9.11674 43.7993C10.107 42.7508 11.2301 41.6277 12.4863 40.4299L11.7962 39.7061C10.5297 40.9137 9.39409 42.0492 8.38973 43.1127L9.11674 43.7993ZM12.4863 40.4299C13.748 39.2268 14.6507 38.3392 15.1882 37.7719L14.4623 37.0841C13.9437 37.6315 13.0571 38.5039 11.7962 39.7061L12.4863 40.4299ZM15.1788 37.7816C15.7575 37.2029 16.3313 36.5225 16.9009 35.743L16.0935 35.153C15.5485 35.8988 15.0077 36.5385 14.4717 37.0744L15.1788 37.7816ZM16.8935 35.7529C17.5117 34.9493 17.9312 34.1384 18.1274 33.3207L17.155 33.0873C16.9993 33.7362 16.6561 34.4214 16.1009 35.1431L16.8935 35.7529ZM18.1227 33.3388C18.3446 32.5464 18.4492 31.5732 18.4492 30.432H17.4492C17.4492 31.5201 17.3486 32.3949 17.1598 33.0692L18.1227 33.3388ZM18.4492 30.432C18.4492 29.2077 18.0755 28.126 17.3236 27.2106L16.5509 27.8454C17.1483 28.5727 17.4492 29.427 17.4492 30.432H18.4492ZM17.329 27.2173C16.5566 26.2434 15.5158 25.752 14.2532 25.752V26.752C15.22 26.752 15.9686 27.1113 16.5455 27.8387L17.329 27.2173ZM14.2532 25.752C13.0773 25.752 12.0297 25.9688 11.1256 26.4208L11.5728 27.3152C12.3115 26.9459 13.1998 26.752 14.2532 26.752V25.752ZM11.1256 26.4208C10.6394 26.6639 10.2537 27.0058 9.99335 27.4521C9.73442 27.8959 9.61723 28.4125 9.61723 28.98H10.6172C10.6172 28.5501 10.7054 28.2161 10.8571 27.9559C11.0075 27.6982 11.2377 27.4828 11.5728 27.3152L11.1256 26.4208ZM34.143 41.916L34.6372 41.9916L34.7304 41.3821L34.1148 41.4168L34.143 41.916ZM25.563 42.4V42.9H25.577L25.5911 42.8992L25.563 42.4ZM24.375 42.004L24.7094 41.6324L24.7094 41.6324L24.375 42.004ZM25.123 40.332L25.265 40.8114L25.522 40.7352L25.6008 40.479L25.123 40.332ZM27.851 33.512L27.391 33.3159L27.3897 33.3189L27.851 33.512ZM30.447 27.132L29.9673 26.9909L29.9644 27.0008L29.9619 27.0107L30.447 27.132ZM31.283 23.964L31.7529 24.1349L31.7529 24.1349L31.283 23.964ZM32.031 22.952L32.3701 23.3194L32.3701 23.3194L32.031 22.952ZM34.187 22.996L33.733 23.2055L33.7394 23.2195L33.7467 23.233L34.187 22.996ZM33.351 27.66L33.767 27.9374L33.7702 27.9325L33.351 27.66ZM27.059 40.112L26.5918 39.9337L26.333 40.612H27.059V40.112ZM31.459 39.628L31.5624 40.1172L31.5694 40.1157L31.459 39.628ZM34.627 38.968L34.7049 39.4619L35.0915 39.4008L35.1251 39.0109L34.627 38.968ZM37.267 31.972L36.8638 32.2677L36.87 32.2761L36.8765 32.2843L37.267 31.972ZM37.795 33.292L38.2939 33.3245L38.295 33.3082V33.292H37.795ZM37.443 38.704L36.944 38.6715L36.9094 39.204H37.443V38.704ZM40.435 39.496L40.1712 39.9209L40.1777 39.9247L40.435 39.496ZM38.719 42.136L38.5816 42.6168L38.5948 42.6205L38.6081 42.6236L38.719 42.136ZM37.135 41.872V41.372H36.6582L36.6355 41.8482L37.135 41.872ZM36.343 48.912L36.043 48.512L36.0367 48.5167L36.0306 48.5216L36.343 48.912ZM34.1148 41.4168L25.5348 41.9008L25.5911 42.8992L34.1711 42.4152L34.1148 41.4168ZM25.563 41.9C25.1541 41.9 24.8886 41.7936 24.7094 41.6324L24.0405 42.3756C24.4479 42.7424 24.9745 42.9 25.563 42.9V41.9ZM24.7094 41.6324C24.4833 41.4289 24.435 41.2753 24.435 41.168H23.435C23.435 41.6473 23.6799 42.0511 24.0405 42.3756L24.7094 41.6324ZM24.435 41.168C24.435 41.2393 24.3849 41.2207 24.5197 41.1259C24.6527 41.0323 24.8898 40.9226 25.265 40.8114L24.9809 39.8526C24.5641 39.9761 24.2072 40.1231 23.9442 40.3081C23.683 40.4919 23.435 40.7741 23.435 41.168H24.435ZM25.6008 40.479C25.8264 39.746 26.7231 37.5012 28.3122 33.7051L27.3897 33.3189C25.8108 37.0908 24.8888 39.3927 24.6451 40.185L25.6008 40.479ZM28.3109 33.7081C29.1179 31.8152 29.7389 30.3346 30.1731 29.2674C30.5992 28.2201 30.8626 27.531 30.932 27.2533L29.9619 27.0107C29.914 27.2023 29.686 27.8112 29.2468 28.8906C28.8157 29.9501 28.1973 31.4248 27.391 33.3159L28.3109 33.7081ZM30.9266 27.2731C31.0769 26.7621 31.2261 26.1797 31.3745 25.5268L30.3994 25.3052C30.2544 25.9429 30.1103 26.5045 29.9673 26.9909L30.9266 27.2731ZM31.3745 25.5268C31.52 24.8869 31.6465 24.4274 31.7529 24.1349L30.8131 23.7931C30.6848 24.1459 30.5473 24.6545 30.3994 25.3052L31.3745 25.5268ZM31.7529 24.1349C31.8325 23.9158 32.02 23.6426 32.3701 23.3194L31.6918 22.5846C31.2793 22.9654 30.9681 23.3668 30.8131 23.7931L31.7529 24.1349ZM32.3701 23.3194C32.6767 23.0364 32.9707 22.924 33.263 22.924V21.924C32.6752 21.924 32.1479 22.1636 31.6918 22.5846L32.3701 23.3194ZM33.263 22.924C33.41 22.924 33.5013 22.9553 33.5608 22.9921C33.6188 23.028 33.6793 23.0893 33.733 23.2055L34.6409 22.7865C34.5186 22.5213 34.3371 22.2966 34.0871 22.1419C33.8386 21.988 33.5559 21.924 33.263 21.924V22.924ZM33.7467 23.233C33.9122 23.5403 33.995 23.8694 33.995 24.228H34.995C34.995 23.7066 34.8724 23.2143 34.6272 22.7589L33.7467 23.233ZM33.995 24.228C33.995 25.2239 33.6551 26.2746 32.9317 27.3875L33.7702 27.9325C34.5721 26.6987 34.995 25.4614 34.995 24.228H33.995ZM32.9349 27.3826C32.157 28.5495 31.1204 30.3728 29.828 32.84L30.7139 33.304C32.0028 30.8432 33.0196 29.0585 33.767 27.9373L32.9349 27.3826ZM29.828 32.84C28.5297 35.3186 27.4505 37.6833 26.5918 39.9337L27.5261 40.2903C28.3687 38.082 29.4309 35.7534 30.7139 33.304L29.828 32.84ZM27.059 40.612C28.5052 40.612 30.0067 40.4463 31.5624 40.1172L31.3555 39.1388C29.8606 39.4551 28.4287 39.612 27.059 39.612V40.612ZM31.5694 40.1157C33.126 39.7632 34.1664 39.5469 34.7049 39.4619L34.549 38.4741C33.9729 38.5651 32.9012 38.7888 31.3485 39.1403L31.5694 40.1157ZM35.1251 39.0109C35.3447 36.4642 35.5919 34.5762 35.8634 33.3327C36.0002 32.7066 36.1369 32.2736 36.2652 32.0079C36.3298 31.8742 36.379 31.8109 36.403 31.7872C36.4233 31.7672 36.3865 31.812 36.299 31.812V30.812C36.0427 30.812 35.841 30.9366 35.6999 31.0761C35.5625 31.2119 35.4542 31.3878 35.3647 31.5731C35.185 31.9454 35.0284 32.4694 34.8865 33.1193C34.6007 34.4278 34.3493 36.3678 34.1288 38.9251L35.1251 39.0109ZM36.299 31.812C36.3782 31.812 36.571 31.8684 36.8638 32.2677L37.6702 31.6763C37.3176 31.1956 36.865 30.812 36.299 30.812V31.812ZM36.8765 32.2843C37.1778 32.6609 37.295 32.9941 37.295 33.292H38.295C38.295 32.7099 38.0601 32.1631 37.6574 31.6597L36.8765 32.2843ZM37.296 33.2595L36.944 38.6715L37.9419 38.7365L38.2939 33.3245L37.296 33.2595ZM37.443 39.204C38.5074 39.204 39.4106 39.4487 40.1713 39.9208L40.6986 39.0712C39.758 38.4873 38.6665 38.204 37.443 38.204V39.204ZM40.1777 39.9247C41.0105 40.4244 41.255 40.8656 41.255 41.212H42.255C42.255 40.3264 41.6194 39.6236 40.6922 39.0673L40.1777 39.9247ZM41.255 41.212C41.255 41.4803 41.1758 41.6038 41.0825 41.6773C40.9665 41.7686 40.7349 41.856 40.303 41.856V42.856C40.8391 42.856 41.3334 42.7527 41.7014 42.4627C42.0921 42.1549 42.255 41.7064 42.255 41.212H41.255ZM40.303 41.856C39.9451 41.856 39.4579 41.7912 38.8298 41.6484L38.6081 42.6236C39.2706 42.7741 39.8394 42.856 40.303 42.856V41.856ZM38.8563 41.6552C38.214 41.4717 37.6373 41.372 37.135 41.372V42.372C37.5126 42.372 37.9919 42.4483 38.5816 42.6168L38.8563 41.6552ZM36.6355 41.8482C36.5763 43.0928 36.547 45.0093 36.547 47.592H37.547C37.547 45.012 37.5763 43.1152 37.6344 41.8958L36.6355 41.8482ZM36.547 47.592C36.547 47.9435 36.4025 48.2424 36.043 48.512L36.643 49.312C37.2221 48.8776 37.547 48.2965 37.547 47.592H36.547ZM36.0306 48.5216C35.7119 48.7765 35.2091 48.94 34.451 48.94V49.94C35.3355 49.94 36.094 49.7515 36.6553 49.3024L36.0306 48.5216ZM34.451 48.94C34.3246 48.94 34.2706 48.9038 34.2186 48.8178C34.142 48.6916 34.071 48.4378 34.071 47.988H33.071C33.071 48.5062 33.1466 48.9784 33.3634 49.3362C33.6046 49.7342 33.9906 49.94 34.451 49.94V48.94ZM34.071 47.988C34.071 46.4693 34.2577 44.4732 34.6372 41.9916L33.6487 41.8404C33.2656 44.3454 33.071 46.3974 33.071 47.988H34.071ZM42.1699 55.028L42.5904 54.7576L42.5858 54.7504L42.581 54.7434L42.1699 55.028ZM42.3459 51.596L41.8806 51.4127L41.8788 51.4174L42.3459 51.596ZM43.5339 48.912L43.0918 48.678L43.0866 48.6884L43.5339 48.912ZM46.2179 44.028L46.6529 44.2745L46.6587 44.2643L46.664 44.2538L46.2179 44.028ZM49.8699 33.468L49.3864 33.3403L49.3864 33.3403L49.8699 33.468ZM52.3779 25.064L52.8306 25.2762L52.833 25.2709L52.3779 25.064ZM53.9619 25.724L53.4767 25.6027L53.4749 25.6107L53.9619 25.724ZM46.6579 51.288L47.1221 51.4737L47.1229 51.4716L46.6579 51.288ZM44.8979 54.324L44.5126 54.0052L44.5074 54.0117L44.8979 54.324ZM43.1819 55.144C42.9755 55.144 42.7826 55.0565 42.5904 54.7576L41.7493 55.2984C42.0851 55.8208 42.5669 56.144 43.1819 56.144V55.144ZM42.581 54.7434C42.3756 54.4467 42.2739 54.1209 42.2739 53.752H41.2739C41.2739 54.3217 41.4361 54.8466 41.7588 55.3126L42.581 54.7434ZM42.2739 53.752C42.2739 53.4142 42.4309 52.7735 42.8129 51.7746L41.8788 51.4174C41.4981 52.4131 41.2739 53.2098 41.2739 53.752H42.2739ZM42.8111 51.7793C43.1877 50.8232 43.5778 49.9422 43.9811 49.1356L43.0866 48.6884C42.6686 49.5245 42.2667 50.4328 41.8807 51.4127L42.8111 51.7793ZM43.9758 49.1459C44.7651 47.6549 45.6575 46.0311 46.6529 44.2745L45.7828 43.7815C44.7836 45.5449 43.8866 47.1771 43.092 48.6781L43.9758 49.1459ZM46.664 44.2538C47.8904 41.8309 49.1183 38.271 50.3533 33.5957L49.3864 33.3403C48.1574 37.993 46.9507 41.4731 45.7718 43.8022L46.664 44.2538ZM50.3533 33.5957C50.9687 31.266 51.4841 29.4054 51.9 28.012C52.3193 26.607 52.6287 25.7068 52.8306 25.2762L51.9251 24.8518C51.687 25.3598 51.3584 26.3297 50.9417 27.726C50.5216 29.1339 50.003 31.006 49.3864 33.3403L50.3533 33.5957ZM52.833 25.2709C53.2605 24.3305 53.6515 24.112 53.9179 24.112V23.112C53.0109 23.112 52.3752 23.8615 51.9227 24.8571L52.833 25.2709ZM53.9179 24.112C53.8961 24.112 53.8528 24.1067 53.8045 24.0791C53.7561 24.0514 53.7289 24.0163 53.717 23.9959C53.7069 23.9787 53.7105 23.9769 53.7158 24.0044C53.721 24.0311 53.7259 24.0748 53.7259 24.14H54.7259C54.7259 23.9318 54.6984 23.6937 54.5807 23.4921C54.439 23.249 54.1967 23.112 53.9179 23.112V24.112ZM53.7259 24.14C53.7259 24.4274 53.651 24.9058 53.4768 25.6027L54.4469 25.8453C54.6247 25.1342 54.7259 24.5566 54.7259 24.14H53.7259ZM53.4749 25.6107C50.8069 37.0742 48.3788 45.5664 46.1928 51.1044L47.1229 51.4716C49.3369 45.8629 51.7782 37.3124 54.4488 25.8373L53.4749 25.6107ZM46.1936 51.1023C45.7408 52.2343 45.1792 53.1998 44.5127 54.0052L45.2831 54.6428C46.0245 53.7468 46.6362 52.6884 47.1221 51.4737L46.1936 51.1023ZM44.5074 54.0117C44.1682 54.4357 43.8777 54.7318 43.636 54.9177C43.386 55.11 43.2407 55.144 43.1819 55.144V56.144C43.563 56.144 43.9237 55.958 44.2457 55.7103C44.576 55.4562 44.9236 55.0923 45.2883 54.6363L44.5074 54.0117ZM62.4281 39.1L62.8814 39.3109L63.2121 38.6H62.4281V39.1ZM61.1081 39.364L61.2492 39.8437L61.2619 39.8399L61.2745 39.8355L61.1081 39.364ZM63.3081 37.164V37.664H63.6308L63.7637 37.3699L63.3081 37.164ZM66.4761 29.596L66.9454 29.7685L67.1436 29.2294L66.5823 29.1074L66.4761 29.596ZM61.2841 28.012L61.1143 28.4823L61.1143 28.4823L61.2841 28.012ZM57.0161 28.716L56.5417 28.8741L56.55 28.899L56.5609 28.9229L57.0161 28.716ZM55.6521 28.716L55.2049 28.9396L55.2105 28.951L55.2168 28.962L55.6521 28.716ZM55.7401 24.932L55.3454 24.625L55.3454 24.625L55.7401 24.932ZM61.8561 25.24L61.7086 25.7178L61.7156 25.7199L61.8561 25.24ZM67.4001 26.34L67.3887 26.8399L67.6636 26.8461L67.8161 26.6173L67.4001 26.34ZM68.3681 25.46L68.6513 25.872L68.6598 25.8662L68.6681 25.86L68.3681 25.46ZM70.6561 25.768L70.2232 26.0186L70.2294 26.0287L70.6561 25.768ZM70.2161 29.156L69.984 28.713L69.9751 28.7179L70.2161 29.156ZM68.2361 29.772L68.1765 29.2756L67.8619 29.3133L67.7617 29.6139L68.2361 29.772ZM65.5081 37.384L65.0399 37.2084L64.811 37.8189L65.4599 37.8817L65.5081 37.384ZM68.8081 38.88L68.7711 38.3814L68.762 38.382L68.7529 38.3831L68.8081 38.88ZM64.8921 39.012L64.8796 38.5122L64.542 38.5206L64.4237 38.8369L64.8921 39.012ZM62.7801 44.82L63.2598 44.9611L63.2598 44.9611L62.7801 44.82ZM62.3841 46.448L62.8744 46.5461L62.8744 46.5461L62.3841 46.448ZM61.9881 47.856L61.5265 47.6637L61.5195 47.6806L61.5137 47.6979L61.9881 47.856ZM61.1961 48.912L61.5215 49.2916L61.5215 49.2916L61.1961 48.912ZM58.6881 48.868L58.2478 49.105L58.2547 49.1178L58.2622 49.13L58.6881 48.868ZM59.9641 43.896L60.3672 44.1921L60.3745 44.1815L59.9641 43.896ZM62.4281 38.6C61.9728 38.6 61.4747 38.7044 60.9417 38.8925L61.2745 39.8355C61.7388 39.6716 62.1207 39.6 62.4281 39.6V38.6ZM60.967 38.8843C60.4846 39.0262 60.1424 39.084 59.9201 39.084V40.084C60.2844 40.084 60.7342 39.9951 61.2492 39.8437L60.967 38.8843ZM59.9201 39.084C59.6802 39.084 59.5928 39.0338 59.5724 39.0176C59.5657 39.0122 59.5615 39.0074 59.5566 38.9957C59.5505 38.9809 59.5401 38.9461 59.5401 38.88H58.5401C58.5401 39.225 58.6534 39.563 58.9477 39.7984C59.2207 40.0168 59.5733 40.084 59.9201 40.084V39.084ZM59.5401 38.88C59.5401 38.7072 59.5904 38.5706 59.6917 38.4484C59.8003 38.3174 59.9875 38.18 60.2936 38.0569C60.9146 37.8072 61.9041 37.664 63.3081 37.664V36.664C61.8667 36.664 60.7222 36.8068 59.9206 37.1291C59.5153 37.292 59.169 37.5121 58.9219 37.8101C58.6676 38.1169 58.5401 38.4808 58.5401 38.88H59.5401ZM63.7637 37.3699C65.1449 34.3137 66.2062 31.779 66.9454 29.7685L66.0068 29.4235C65.2793 31.4024 64.2286 33.9129 62.8524 36.9581L63.7637 37.3699ZM66.5823 29.1074C65.2636 28.8207 63.5562 28.3009 61.4539 27.5417L61.1143 28.4823C63.2359 29.2484 64.9899 29.7846 66.3699 30.0846L66.5823 29.1074ZM61.4539 27.5417C60.3962 27.1598 59.569 26.8716 58.9746 26.6785C58.678 26.5821 58.4344 26.5077 58.2468 26.4569C58.0837 26.4127 57.901 26.368 57.7641 26.368V27.368C57.7445 27.368 57.7964 27.3709 57.9854 27.4221C58.1498 27.4666 58.3755 27.5353 58.6655 27.6295C59.2445 27.8177 60.0599 28.1016 61.1143 28.4823L61.4539 27.5417ZM57.7641 26.368C57.3729 26.368 56.9892 26.4716 56.7094 26.7648C56.4337 27.0536 56.3401 27.4419 56.3401 27.836H57.3401C57.3401 27.5847 57.4004 27.4891 57.4328 27.4552C57.4609 27.4257 57.5392 27.368 57.7641 27.368V26.368ZM56.3401 27.836C56.3401 28.1463 56.4161 28.4972 56.5417 28.8741L57.4904 28.5579C57.3814 28.2308 57.3401 27.995 57.3401 27.836H56.3401ZM56.5609 28.9229C56.6303 29.0757 56.6777 29.1939 56.7067 29.2811C56.7396 29.3798 56.7361 29.4011 56.7361 29.376H57.7361C57.7361 29.2336 57.6959 29.0862 57.6554 28.9649C57.6112 28.8321 57.5485 28.679 57.4713 28.5091L56.5609 28.9229ZM56.7361 29.376C56.7361 29.4314 56.7225 29.3796 56.7828 29.3107C56.814 29.275 56.8514 29.2515 56.8848 29.2388C56.9152 29.2272 56.933 29.228 56.9281 29.228V30.228C57.1265 30.228 57.3613 30.1682 57.5354 29.9693C57.6983 29.783 57.7361 29.5552 57.7361 29.376H56.7361ZM56.9281 29.228C56.7351 29.228 56.4405 29.0947 56.0874 28.47L55.2168 28.962C55.6264 29.6867 56.1824 30.228 56.9281 30.228V29.228ZM56.0993 28.4924C55.7745 27.8428 55.6241 27.2445 55.6241 26.692H54.6241C54.6241 27.4302 54.8257 28.1812 55.2049 28.9396L56.0993 28.4924ZM55.6241 26.692C55.6241 26.1622 55.7897 25.6827 56.1348 25.239L55.3454 24.625C54.8692 25.2373 54.6241 25.9312 54.6241 26.692H55.6241ZM56.1348 25.239C56.4547 24.8276 56.8395 24.64 57.3241 24.64V23.64C56.518 23.64 55.8468 23.9804 55.3454 24.625L56.1348 25.239ZM57.3241 24.64C57.5807 24.64 58.0675 24.7175 58.8231 24.9009C59.5645 25.0808 60.5254 25.3526 61.7086 25.7178L62.0035 24.7622C60.8108 24.3941 59.8283 24.1158 59.059 23.9291C58.3039 23.7458 57.7128 23.64 57.3241 23.64V24.64ZM61.7156 25.7199C64.1314 26.4269 66.0305 26.809 67.3887 26.8399L67.4114 25.8401C66.1883 25.8123 64.3914 25.4611 61.9965 24.7601L61.7156 25.7199ZM67.8161 26.6173C67.9391 26.4328 68.1995 26.1827 68.6513 25.872L68.0848 25.048C67.598 25.3827 67.213 25.7192 66.9841 26.0626L67.8161 26.6173ZM68.6681 25.86C69.1034 25.5335 69.4073 25.432 69.6001 25.432V24.432C69.0888 24.432 68.5714 24.6825 68.0681 25.06L68.6681 25.86ZM69.6001 25.432C69.7049 25.432 69.9266 25.5059 70.2234 26.0185L71.0888 25.5175C70.7402 24.9154 70.2579 24.432 69.6001 24.432V25.432ZM70.2294 26.0287C70.488 26.4518 70.6401 27.0551 70.6401 27.88H71.6401C71.6401 26.9449 71.4695 26.1402 71.0827 25.5073L70.2294 26.0287ZM70.6401 27.88C70.6401 28.1621 70.4962 28.4448 69.9841 28.7131L70.4481 29.5989C71.168 29.2218 71.6401 28.6539 71.6401 27.88H70.6401ZM69.9751 28.7179C69.4501 29.0066 68.8528 29.1944 68.1765 29.2756L68.2957 30.2684C69.0861 30.1736 69.8087 29.9507 70.457 29.5941L69.9751 28.7179ZM67.7617 29.6139C67.0898 31.6298 66.1827 34.1609 65.0399 37.2084L65.9762 37.5596C67.1214 34.5058 68.0331 31.9622 68.7104 29.9301L67.7617 29.6139ZM65.4599 37.8817C66.3871 37.9714 67.3713 38.016 68.4121 38.016V37.016C67.3996 37.016 66.4478 36.9726 65.5562 36.8863L65.4599 37.8817ZM68.4121 38.016C68.9185 38.016 69.2299 38.0746 69.397 38.1489C69.4747 38.1834 69.4958 38.2103 69.4971 38.212C69.4974 38.2125 69.4962 38.2106 69.4953 38.208C69.4946 38.2057 69.4961 38.2087 69.4961 38.22H70.4961C70.4961 38.0022 70.4325 37.7925 70.2971 37.612C70.1663 37.4377 69.9894 37.3179 69.8031 37.2351C69.4423 37.0747 68.9616 37.016 68.4121 37.016V38.016ZM69.4961 38.22C69.4961 38.2237 69.4967 38.2122 69.5042 38.2008C69.5091 38.1934 69.5026 38.2082 69.4563 38.2339C69.3526 38.2915 69.1414 38.3539 68.7711 38.3814L68.845 39.3786C69.2668 39.3474 69.6496 39.2705 69.9419 39.1081C70.263 38.9297 70.4961 38.6296 70.4961 38.22H69.4961ZM68.7529 38.3831C68.5167 38.4093 67.2438 38.453 64.8796 38.5122L64.9046 39.5118C67.2337 39.4536 68.5715 39.4094 68.8633 39.3769L68.7529 38.3831ZM64.4237 38.8369C63.1668 42.1984 62.4536 44.158 62.3004 44.6789L63.2598 44.9611C63.3999 44.4846 64.0947 42.5723 65.3604 39.1871L64.4237 38.8369ZM62.3004 44.6789C62.149 45.1937 62.0136 45.7509 61.8938 46.3499L62.8744 46.5461C62.9892 45.9718 63.1178 45.4436 63.2598 44.9611L62.3004 44.6789ZM61.8938 46.3499C61.7797 46.9203 61.6555 47.3541 61.5265 47.6637L62.4496 48.0483C62.614 47.6539 62.7538 47.149 62.8744 46.5461L61.8938 46.3499ZM61.5137 47.6979C61.4353 47.9333 61.2421 48.214 60.8707 48.5324L61.5215 49.2916C61.9714 48.906 62.3062 48.4827 62.4624 48.0141L61.5137 47.6979ZM60.8707 48.5324C60.5482 48.8088 60.1936 48.94 59.7881 48.94V49.94C60.4386 49.94 61.0226 49.7192 61.5215 49.2916L60.8707 48.5324ZM59.7881 48.94C59.4395 48.94 59.2459 48.8204 59.1139 48.606L58.2622 49.13C58.5996 49.6783 59.1393 49.94 59.7881 49.94V48.94ZM59.1283 48.631C58.9629 48.3237 58.8801 47.9946 58.8801 47.636H57.8801C57.8801 48.1574 58.0026 48.6497 58.2478 49.105L59.1283 48.631ZM58.8801 47.636C58.8801 46.7377 59.3349 45.5969 60.367 44.192L59.5611 43.6C58.4813 45.0697 57.8801 46.4223 57.8801 47.636H58.8801ZM60.3745 44.1815C60.8734 43.4645 61.7128 41.8234 62.8814 39.3109L61.9747 38.8891C60.7967 41.422 59.9935 42.9782 59.5536 43.6105L60.3745 44.1815Z" fill="#FFF5FD"/>
</svg>
